<?xml version="1.0" standalone="no"?>
<!DOCTYPE svg PUBLIC "-//W3C//DTD SVG 20010904//EN"
 "http://www.w3.org/TR/2001/REC-SVG-20010904/DTD/svg10.dtd">
<svg version="1.0" xmlns="http://www.w3.org/2000/svg"
 width="250.000000pt" height="250.000000pt" viewBox="0 0 250.000000 250.000000"
 preserveAspectRatio="xMidYMid meet">
<g transform="translate(0.000000,250.000000) scale(0.100000,-0.100000)"
fill="#000000" stroke="none">
<path d="M1001 2374 c-146 -25 -287 -120 -387 -260 -93 -130 -115 -213 -118
-444 -2 -118 1 -156 16 -204 31 -97 76 -176 110 -194 48 -26 77 -55 83 -83 6
-24 3 -26 -112 -63 -88 -29 -139 -53 -203 -95 -111 -73 -191 -153 -210 -211
-12 -36 -20 -45 -40 -45 -59 -3 -70 -7 -104 -39 -43 -40 -45 -51 -8 -53 24 -2
25 -1 7 8 -17 8 -16 9 8 5 18 -2 27 1 24 8 -2 6 -1 20 4 31 6 17 8 15 9 -10
l1 -30 24 28 c27 31 47 32 57 2 6 -19 6 -18 7 3 1 12 13 41 27 63 14 23 21 38
15 35 -5 -4 -3 7 5 23 19 38 49 51 41 19 -2 -13 -8 -32 -12 -42 -6 -14 -5 -17
3 -12 6 4 16 21 21 39 l9 32 2 -40 c3 -71 17 -95 15 -28 0 35 -6 68 -13 75
-20 20 -13 32 35 61 26 16 41 21 33 13 -17 -22 -10 -25 20 -9 14 7 19 13 13
13 -7 0 -13 8 -13 18 0 14 2 14 9 3 8 -12 15 -8 36 17 29 35 74 65 60 40 -5
-7 3 -3 16 8 33 30 69 40 80 23 7 -11 9 -10 9 3 0 12 12 19 45 24 25 3 45 10
45 15 0 5 9 9 20 9 11 0 23 6 26 13 2 7 17 12 34 11 21 -1 27 2 23 12 -4 10 0
12 13 8 11 -4 16 -4 13 0 -4 4 -3 23 1 42 6 27 5 37 -6 41 -8 3 -11 10 -8 15
4 6 -2 5 -14 -1 -14 -7 -23 -8 -27 -1 -4 6 -12 5 -21 -4 -15 -15 -44 -12 -44
5 0 5 -7 9 -16 9 -9 0 -12 5 -8 12 4 6 3 8 -4 5 -14 -9 -43 3 -36 14 3 5 -2 9
-10 9 -10 0 -13 6 -9 17 4 10 2 14 -4 10 -11 -7 -38 49 -63 134 -20 65 -12 82
9 22 8 -21 19 -41 25 -45 8 -5 7 -8 -2 -8 -9 0 -6 -12 8 -40 11 -22 23 -40 25
-40 3 0 -2 14 -10 30 -9 17 -15 36 -14 43 2 11 -4 28 -44 115 -8 16 -7 26 1
34 8 8 10 5 6 -13 -5 -19 -4 -21 5 -9 9 12 11 11 12 -10 1 -14 1 -28 0 -32 0
-5 3 -8 9 -8 5 0 6 -7 3 -17 -4 -11 -3 -14 5 -9 8 5 10 1 5 -10 -5 -13 -3 -15
8 -9 8 4 11 5 7 0 -4 -4 4 -29 17 -55 18 -35 21 -50 12 -53 -6 -2 -10 -7 -7
-10 3 -3 11 -2 19 2 10 7 4 31 -29 112 -51 124 -73 192 -60 184 6 -4 10 -15
10 -26 0 -17 3 -18 20 -7 20 13 28 30 11 25 -5 -1 -11 2 -13 7 -1 5 4 10 13
11 11 2 15 -7 16 -34 0 -32 72 -226 80 -217 2 1 -13 53 -33 113 -35 104 -39
143 -14 143 5 0 10 -9 10 -20 0 -11 13 -45 29 -77 16 -32 31 -65 34 -73 3 -8
6 2 6 23 1 21 -3 36 -7 33 -5 -3 -9 0 -9 7 0 7 -4 21 -8 32 -7 16 -4 15 14 -5
21 -24 22 -24 11 -2 -6 13 -18 26 -25 29 -8 3 -21 19 -30 36 -18 35 -18 37 -6
37 5 0 14 -12 20 -27 10 -25 10 -25 5 -3 -16 67 -12 79 8 23 12 -34 26 -59 31
-56 5 3 4 10 -2 16 -6 6 -11 21 -11 33 0 12 -10 40 -21 62 -21 39 -21 41 -4
108 9 38 19 84 22 101 3 18 9 30 14 27 5 -3 6 3 2 12 -4 12 -3 15 6 10 7 -5 1
10 -13 32 l-25 40 25 23 c23 21 24 21 25 3 1 -10 1 -22 1 -26 -1 -3 4 -8 11
-11 18 -7 61 39 46 49 -7 4 -10 3 -7 -2 3 -5 -3 -17 -14 -26 -17 -17 -18 -17
-18 0 0 10 -6 27 -14 37 -13 18 -15 18 -39 -11 -14 -16 -42 -60 -62 -99 -23
-44 -29 -61 -16 -46 17 19 24 21 36 11 10 -9 15 -9 15 -1 0 6 -4 11 -10 11
-13 0 -13 26 1 51 8 16 13 18 25 8 8 -6 14 -18 14 -26 0 -13 -3 -13 -17 -2
-16 13 -17 12 -4 -3 11 -15 11 -22 -4 -44 -9 -15 -12 -23 -6 -20 7 4 11 -1 11
-13 0 -14 -5 -19 -15 -15 -8 4 -15 1 -15 -6 0 -6 5 -8 12 -4 8 5 9 2 3 -12 -4
-10 -7 -27 -7 -36 0 -10 -3 -19 -9 -19 -5 -1 -13 -2 -18 -3 -5 0 -13 -5 -18
-9 -4 -5 -2 -7 6 -5 7 2 16 -3 19 -11 3 -9 0 -11 -9 -7 -8 4 -6 1 5 -8 10 -8
15 -19 11 -25 -3 -6 -1 -11 5 -11 7 0 7 -7 -2 -22 -7 -13 -11 -26 -10 -30 1
-5 -2 -8 -8 -8 -14 0 -13 13 3 29 10 12 9 13 -7 7 -15 -5 -17 -4 -7 8 8 10 9
16 1 21 -5 3 -10 15 -10 26 0 11 -4 18 -8 15 -4 -2 -7 12 -5 32 2 27 1 32 -5
18 -6 -14 -11 -16 -16 -7 -11 18 -16 102 -6 96 5 -3 12 0 16 6 4 7 3 9 -3 6
-5 -3 -10 6 -10 22 0 19 5 27 13 24 7 -2 15 5 19 17 4 13 12 19 21 16 9 -4 12
-1 9 5 -4 6 -13 8 -21 5 -21 -8 -17 6 12 39 14 17 22 23 18 15 -12 -22 -14
-41 -3 -34 5 3 7 9 4 14 -3 5 -1 12 5 15 8 5 7 11 -1 21 -10 12 -9 13 6 8 12
-5 16 -4 11 4 -3 6 0 14 8 19 8 4 15 13 16 18 1 6 6 9 12 7 5 -1 6 3 2 9 -5 8
-2 10 7 7 8 -3 23 0 34 8 10 8 14 14 9 14 -6 0 -15 -5 -22 -12 -7 -7 -12 -8
-12 -4 0 12 43 56 55 56 6 0 3 -5 -5 -11 -13 -9 -13 -10 0 -6 8 2 14 9 13 15
-6 24 151 106 203 106 18 0 31 3 29 6 -6 10 116 9 175 -2 71 -13 223 -86 216
-103 -6 -17 19 -39 34 -30 6 4 9 1 8 -7 -2 -7 3 -12 10 -11 6 2 12 -2 12 -7 0
-9 -5 -12 -30 -14 -6 -1 -17 10 -24 24 -7 14 -18 24 -25 22 -7 -1 -9 2 -5 9 5
8 2 10 -8 7 -8 -4 -15 -1 -15 7 0 7 6 11 14 8 26 -10 12 6 -18 21 -17 9 -36
13 -42 9 -5 -3 -7 -1 -4 4 4 7 -19 18 -58 28 -127 35 -290 2 -407 -82 -27 -20
-53 -31 -59 -27 -8 5 -9 3 -4 -6 5 -8 -4 -22 -25 -40 -29 -25 -31 -29 -19 -49
15 -23 34 -29 26 -7 -7 17 15 15 37 -4 12 -9 14 -16 6 -24 -12 -12 -13 -29 -1
-22 5 3 11 -1 14 -8 3 -8 1 -16 -6 -19 -8 -2 -7 -9 5 -20 9 -10 20 -26 23 -37
3 -11 11 -20 17 -20 6 0 3 11 -6 25 -9 14 -12 25 -6 25 8 0 40 -50 40 -64 0
-3 -8 -2 -17 1 -11 4 -5 -7 14 -27 23 -24 29 -37 20 -42 -7 -4 -15 0 -19 10
-4 9 -7 13 -7 7 -1 -5 -11 9 -23 32 -24 47 -73 108 -64 81 7 -23 -10 -24 -18
-2 -4 9 -9 15 -12 12 -7 -7 57 -108 68 -108 5 0 7 -4 3 -9 -3 -5 0 -13 6 -17
8 -4 9 -3 5 4 -12 19 8 14 26 -7 11 -13 24 -18 39 -14 17 5 20 3 14 -7 -5 -8
1 -7 16 3 35 25 46 21 13 -5 -54 -43 -136 -133 -150 -165 -23 -54 -16 -151 10
-136 6 3 8 3 4 -2 -4 -4 -1 -20 7 -36 8 -15 12 -35 9 -43 -3 -9 -2 -16 4 -16
6 0 16 -17 22 -37 7 -21 21 -52 31 -69 21 -34 24 -48 10 -39 -5 3 -12 1 -15
-4 -4 -5 2 -8 11 -7 18 3 69 -42 65 -57 -1 -5 1 -6 6 -3 5 3 40 -6 78 -19 100
-34 215 -45 284 -27 30 7 59 20 63 28 12 21 29 7 18 -15 -20 -37 -39 -104 -34
-120 4 -12 3 -13 -5 -3 -6 9 -20 -11 -48 -74 l-38 -87 -99 6 c-83 4 -96 3 -86
-9 7 -8 30 -14 60 -14 26 0 50 -4 54 -9 3 -6 21 -4 45 4 22 8 40 11 40 7 0 -4
4 -1 9 7 19 30 29 6 14 -34 -8 -22 -17 -51 -19 -65 -13 -67 27 41 82 219 9 30
17 68 16 83 0 15 3 28 8 28 5 0 7 7 4 15 -4 8 -2 15 3 15 5 0 10 13 10 28 0
32 41 94 56 85 6 -4 8 2 5 15 -4 12 -2 20 3 16 5 -3 9 4 9 15 0 12 5 21 11 21
5 0 7 5 4 10 -3 6 0 10 8 10 7 0 14 6 15 13 0 6 9 38 20 71 16 49 20 55 25 35
4 -14 1 -26 -6 -31 -9 -6 -9 -8 1 -8 18 0 32 -43 35 -105 1 -29 5 -51 10 -48
8 4 8 4 13 -42 6 -52 7 -55 16 -55 4 0 8 -16 8 -36 0 -29 3 -35 16 -30 8 3 13
2 9 -3 -7 -12 5 -41 16 -41 6 0 19 -9 31 -19 11 -11 26 -17 34 -14 8 3 14 0
14 -7 0 -6 4 -9 8 -6 5 3 23 -4 41 -15 18 -11 38 -16 44 -13 7 4 9 4 5 -1 -4
-4 24 -23 62 -40 39 -18 78 -39 88 -48 10 -10 22 -17 26 -17 16 0 135 -83 130
-91 -3 -5 -7 -9 -10 -9 -3 0 -2 5 1 10 3 6 1 10 -5 10 -6 0 -18 7 -27 15 -8 9
-18 14 -21 11 -8 -8 50 -51 64 -48 7 1 18 -14 24 -33 15 -44 23 -41 11 3 -5
18 -8 32 -7 32 2 0 15 -11 31 -24 19 -17 26 -30 21 -41 -5 -15 -4 -16 9 -5 10
8 15 9 15 1 0 -6 6 -11 14 -11 8 0 17 -13 21 -29 3 -15 22 -42 41 -60 36 -31
50 -39 39 -21 -3 6 -3 10 2 10 14 0 43 -61 43 -90 0 -18 -11 -42 -30 -63 -16
-19 -30 -41 -29 -48 0 -8 5 -4 11 8 6 13 15 23 21 23 14 0 58 50 52 60 -3 4 2
11 10 14 14 5 13 11 -4 45 -21 40 -59 73 -98 85 -11 4 -24 18 -27 31 -8 33
-59 89 -104 116 -20 12 -46 30 -58 41 -43 38 -237 147 -352 197 l-120 53 -26
62 c-14 33 -26 67 -26 75 0 8 -7 37 -14 65 -8 28 -22 80 -31 116 -9 36 -19 73
-22 84 -3 12 -1 16 6 12 6 -4 11 -2 11 5 0 6 -8 9 -19 6 -35 -9 -12 17 29 35
46 19 60 46 81 145 11 55 11 69 -4 116 -9 30 -27 63 -38 73 -12 10 -43 65 -70
122 -28 57 -57 106 -65 109 -8 3 -22 23 -31 44 -8 22 -36 57 -60 79 -113 99
-281 143 -442 114z m219 -64 c13 -9 13 -10 0 -9 -8 0 -24 4 -35 9 l-20 9 20 0
c11 0 27 -4 35 -9z m-29 -28 c14 -5 37 -5 57 0 31 9 36 6 105 -55 40 -36 81
-66 91 -68 24 -5 32 -25 12 -32 -9 -4 -34 12 -63 38 -26 25 -54 43 -61 40 -7
-3 -11 -1 -8 4 6 9 -45 44 -83 56 -16 5 -20 3 -15 -9 3 -9 14 -16 23 -16 10 0
26 -7 37 -15 16 -13 17 -16 4 -25 -12 -8 -11 -10 8 -10 13 0 20 -4 17 -10 -3
-5 1 -10 10 -10 10 0 13 5 9 12 -4 6 5 3 19 -8 15 -10 25 -24 22 -31 -2 -7 2
-10 9 -7 8 3 23 -7 35 -22 11 -15 21 -22 21 -15 0 25 22 8 60 -49 23 -33 45
-58 51 -55 5 4 8 1 7 -6 -2 -7 2 -14 7 -14 31 -3 50 -17 52 -40 5 -55 8 -65
14 -65 4 0 15 -23 24 -50 9 -28 23 -57 32 -65 8 -8 10 -15 5 -15 -6 0 -13 -7
-16 -16 -3 -9 -2 -12 5 -8 7 4 7 0 1 -12 -6 -11 -15 -38 -21 -61 -7 -24 -15
-42 -19 -41 -4 1 -22 -6 -39 -15 -18 -10 -33 -13 -33 -8 0 5 4 12 9 16 6 3 6
16 1 33 -18 58 -21 84 -9 76 8 -4 9 -3 5 5 -4 6 -11 9 -15 6 -5 -2 -6 27 -3
65 2 39 0 75 -5 82 -6 7 -13 26 -17 43 l-7 29 25 -26 c19 -18 27 -38 29 -67 1
-22 4 -41 8 -41 9 0 29 23 29 35 0 5 -4 4 -9 -3 -5 -9 -10 0 -15 27 -3 23 -11
41 -16 41 -6 0 -10 6 -10 13 0 7 -9 18 -20 25 -12 7 -20 8 -20 2 0 -5 -3 -9
-7 -9 -5 1 -17 1 -28 0 -18 -2 -17 -3 5 -14 14 -7 26 -21 28 -32 20 -147 16
-158 -66 -193 -94 -40 -109 -39 -153 7 -21 23 -42 53 -45 66 -3 14 -11 22 -17
18 -6 -4 -8 0 -5 9 9 22 -6 40 -26 32 -10 -4 -15 -13 -11 -24 7 -22 -11 -36
-19 -15 -8 23 -70 19 -161 -10 -108 -35 -159 -64 -163 -95 -4 -23 -2 -22 36
12 22 20 49 41 59 46 25 13 116 34 158 36 31 1 35 -2 41 -28 4 -19 2 -32 -5
-34 -6 -2 -11 -13 -11 -25 1 -22 1 -22 16 -2 15 19 15 17 9 -25 -4 -25 -12
-53 -17 -63 -14 -27 -91 -58 -158 -64 -58 -6 -58 -5 -75 27 -21 41 -81 104
-92 97 -5 -3 -8 6 -7 20 1 28 54 64 179 118 110 48 169 98 207 177 26 52 38
67 55 67 12 1 25 -3 28 -9 3 -5 18 -10 33 -10 15 0 42 -9 60 -20 40 -24 38
-24 45 0 4 14 10 18 24 14 16 -6 16 -5 -2 10 -16 13 -17 15 -2 10 9 -3 17 -1
17 5 0 17 -28 13 -38 -5 -6 -10 -14 -14 -22 -9 -8 5 -9 10 -1 18 14 14 14 27
0 27 -5 0 -8 -4 -4 -9 3 -5 1 -12 -5 -16 -6 -4 -8 -10 -5 -15 3 -5 1 -11 -4
-14 -6 -4 -8 7 -6 24 5 40 -27 60 -48 30 -12 -17 -16 -18 -20 -6 -4 9 1 20 11
25 15 9 14 10 -5 11 -17 0 -21 -5 -18 -21 3 -13 0 -19 -8 -16 -7 2 -11 14 -9
26 1 13 -2 30 -8 39 -8 14 -9 11 -6 -10 3 -20 0 -28 -10 -28 -8 0 -14 -5 -14
-11 0 -5 4 -8 9 -5 5 3 11 -1 14 -9 4 -9 1 -12 -8 -9 -8 3 -27 -3 -42 -14 -21
-15 -33 -18 -46 -10 -19 10 -51 -7 -42 -22 3 -4 -9 -7 -25 -6 -25 2 -29 -1
-24 -16 3 -10 2 -18 -3 -17 -18 5 -63 -14 -63 -25 0 -12 -25 -28 -60 -39 -10
-4 -7 -6 6 -6 24 -1 77 23 69 31 -3 3 1 11 10 18 10 8 15 9 15 1 0 -23 41 0
53 29 4 11 6 10 6 -4 1 -11 -6 -28 -16 -38 -11 -13 -12 -18 -3 -18 11 0 2 -9
-49 -47 -2 -2 -2 -5 1 -8 6 -6 73 53 73 64 0 3 6 25 14 47 11 35 17 42 38 39
13 -1 27 -6 31 -10 4 -4 0 -6 -8 -4 -21 3 -51 -11 -44 -22 3 -5 0 -9 -5 -9 -6
0 -11 -6 -11 -12 1 -7 10 -2 20 11 11 13 20 18 20 12 0 -7 5 -9 10 -6 17 10
11 -12 -7 -26 -14 -12 -16 -12 -9 1 4 8 -2 4 -13 -9 -12 -12 -19 -27 -16 -32
3 -4 -9 -16 -27 -25 -18 -9 -37 -23 -41 -31 -5 -9 -17 -12 -30 -8 -17 5 -19 4
-7 -4 9 -6 10 -11 3 -11 -6 0 -20 -3 -30 -6 -15 -5 -15 -4 -3 5 8 5 12 13 9
16 -4 3 -17 -3 -30 -14 -17 -15 -20 -21 -9 -21 8 -1 -5 -9 -30 -19 -25 -11
-47 -17 -49 -16 -4 4 58 64 90 87 23 15 23 17 5 24 -10 4 -27 2 -37 -4 -15
-10 -19 -8 -25 11 -5 12 -7 29 -5 36 2 13 0 13 -13 2 -10 -8 -16 -9 -16 -3 0
6 4 14 10 17 15 9 -42 83 -60 77 -11 -4 -12 -2 -4 7 13 14 47 4 37 -12 -3 -6
-1 -7 5 -3 7 4 13 2 13 -3 1 -6 2 -15 3 -19 0 -5 14 -20 30 -35 16 -15 23 -27
16 -27 -7 0 -11 -2 -8 -5 3 -3 12 -3 20 0 12 5 9 13 -16 40 -17 18 -38 46 -46
62 -25 47 -53 83 -67 83 -7 0 -13 5 -13 11 0 5 4 8 9 5 5 -4 11 -1 13 6 3 7
11 -1 19 -17 9 -17 21 -29 28 -27 7 1 10 -2 6 -8 -8 -13 52 -100 68 -99 9 0 9
2 0 5 -18 8 -55 72 -48 84 9 15 27 1 21 -17 -3 -8 -1 -11 4 -8 6 3 13 -1 16
-9 3 -9 10 -16 16 -16 5 0 -2 15 -16 33 -15 19 -26 38 -26 43 -1 11 -36 54
-45 54 -3 0 3 -13 14 -29 26 -36 27 -45 2 -29 -11 7 -17 16 -14 22 3 5 1 6 -5
2 -7 -4 -12 -5 -12 -2 0 2 -3 11 -6 19 -3 8 2 21 10 30 14 13 14 16 0 27 -12
11 -13 10 -8 -5 5 -13 4 -16 -4 -11 -8 5 -10 1 -5 -11 5 -17 5 -17 -12 -1 -22
20 -12 36 42 69 l34 21 25 -23 c13 -12 24 -19 24 -14 0 5 7 0 15 -11 8 -10 15
-14 15 -7 0 6 -4 15 -10 18 -16 10 -12 25 8 25 14 0 15 2 2 10 -10 6 -16 6
-18 0 -2 -6 -9 -7 -14 -4 -7 4 -8 2 -4 -4 10 -17 -9 -15 -24 3 -10 12 -7 17
16 26 16 6 40 13 54 16 13 2 27 6 29 9 7 7 135 -4 162 -14z m-364 -129 c4 -10
-26 -27 -34 -20 -2 2 -1 12 3 21 7 18 25 17 31 -1z m695 -41 c-7 -2 -10 -8 -6
-13 3 -5 -2 -9 -11 -9 -9 0 -14 4 -11 9 4 5 3 11 -1 14 -5 2 -2 2 5 1 6 -2 12
1 12 7 0 6 5 7 12 3 9 -6 9 -9 0 -12z m-672 -47 c10 -12 10 -15 -3 -15 -8 0
-17 7 -21 15 -3 8 -2 15 3 15 5 0 14 -7 21 -15z m693 -8 c12 -19 12 -24 2 -24
-7 0 -18 11 -24 24 -6 13 -7 23 -2 23 5 0 16 -10 24 -23z m-173 4 c0 -14 -18
-23 -30 -16 -6 4 -8 11 -5 16 8 12 35 12 35 0z m-775 -31 c3 -5 1 -10 -4 -10
-6 0 -11 5 -11 10 0 6 2 10 4 10 3 0 8 -4 11 -10z m239 -83 c14 -20 22 -37 18
-37 -10 0 -39 20 -29 20 4 0 -1 10 -12 22 -11 11 -18 25 -15 30 7 11 7 12 38
-35z m-287 -19 c-3 -8 -6 -5 -6 6 -1 11 2 17 5 13 3 -3 4 -12 1 -19z m1134
-100 c9 -26 13 -50 8 -53 -4 -3 -11 7 -15 22 -5 26 -12 48 -29 98 -14 43 18
-17 36 -67z m-1107 -28 c3 -23 12 -50 19 -60 10 -17 8 -24 -15 -47 -34 -34
-43 -26 -27 25 9 30 9 48 -1 76 -11 35 -7 61 9 51 5 -2 11 -23 15 -45z m606
-31 c0 -5 -4 -9 -10 -9 -5 0 -10 7 -10 16 0 8 5 12 10 9 6 -3 10 -10 10 -16z
m89 -53 c45 -58 57 -66 102 -66 36 0 125 33 150 56 17 15 18 15 25 -12 4 -16
8 -67 8 -114 1 -77 -2 -92 -31 -150 -85 -171 -124 -202 -262 -208 -64 -3 -103
1 -168 19 -140 37 -151 49 -235 247 -27 64 -52 123 -55 130 -4 10 1 13 18 10
15 -2 35 -19 54 -48 16 -25 35 -51 42 -57 15 -17 56 -16 118 1 122 35 142 55
151 158 3 34 7 69 10 76 7 25 33 11 73 -42z m-481 -477 c-10 -5 -18 -18 -18
-27 0 -9 -8 -22 -18 -28 -16 -10 -18 -8 -18 22 0 34 8 41 51 43 18 0 19 0 3
-10z m569 -234 c-10 -44 -19 -60 -35 -66 -13 -5 -22 -4 -22 1 0 6 4 10 9 10 7
0 28 49 47 109 2 8 7 12 9 9 3 -3 -1 -31 -8 -63z"/>
<path d="M1106 2237 c12 -19 20 -25 27 -18 8 8 16 2 29 -17 10 -15 18 -23 18
-19 0 4 -12 25 -26 45 -15 20 -24 30 -21 20 9 -26 -4 -29 -25 -5 l-19 22 17
-28z"/>
<path d="M1155 2250 c4 -6 11 -8 16 -5 14 9 11 15 -7 15 -8 0 -12 -5 -9 -10z"/>
<path d="M1030 2240 c-11 -8 -7 -9 17 -5 l31 5 -3 -45 c-4 -43 3 -57 32 -61
10 -2 10 3 2 17 -5 11 -13 18 -17 15 -4 -2 -8 4 -8 15 0 10 2 19 3 19 9 0 39
-39 41 -55 2 -11 9 -23 15 -27 7 -4 8 -8 4 -8 -4 0 -3 -9 3 -20 8 -16 8 -20
-4 -20 -8 0 -17 -3 -19 -7 -3 -5 14 -8 38 -9 35 -1 42 2 38 16 -3 12 3 19 22
24 35 9 29 16 -7 9 -19 -4 -28 -12 -28 -24 0 -11 -6 -19 -14 -19 -10 0 -13 8
-11 21 4 21 -23 84 -47 111 -7 8 -18 23 -24 33 -13 23 -42 30 -64 15z"/>
<path d="M1180 2228 c0 -6 8 -7 17 -4 9 4 20 1 25 -6 7 -10 9 -9 5 2 -4 16
-47 23 -47 8z"/>
<path d="M889 2216 c9 -11 9 -15 -1 -18 -9 -3 -9 -6 0 -12 7 -4 12 -2 12 4 0
6 6 8 13 4 6 -4 3 2 -7 14 -21 24 -36 31 -17 8z"/>
<path d="M1000 2225 c0 -4 9 -18 20 -32 11 -14 17 -29 14 -34 -3 -5 -1 -9 5
-9 14 0 33 -38 26 -51 -5 -7 -11 -6 -21 2 -15 12 -16 10 -19 -33 -1 -15 2 -25
6 -22 5 3 9 1 9 -4 0 -6 -11 -13 -25 -16 -30 -8 -31 -17 -6 -40 13 -12 21 -14
26 -6 3 6 1 9 -6 8 -7 -2 -15 5 -17 15 -2 11 3 17 15 17 15 0 16 -2 3 -10 -8
-5 -10 -10 -4 -10 18 0 35 26 28 44 -4 11 -1 16 10 16 9 0 16 -6 16 -14 0 -8
4 -17 9 -20 5 -4 7 2 5 11 -3 12 5 24 23 35 15 10 22 18 15 18 -7 0 -10 5 -6
11 4 8 1 8 -13 0 -18 -9 -24 -3 -54 50 -31 56 -59 91 -59 74z m104 -152 c-11
-8 -20 -10 -22 -3 -2 6 -10 7 -22 0 -13 -7 -19 -6 -23 4 -4 10 6 13 41 13 41
0 44 -1 26 -14z"/>
<path d="M1260 2220 c8 -5 20 -10 25 -10 6 0 3 5 -5 10 -8 5 -19 10 -25 10 -5
0 -3 -5 5 -10z"/>
<path d="M1190 2200 c0 -4 7 -11 16 -14 9 -4 14 -13 10 -21 -3 -8 -1 -15 4
-15 6 0 10 5 10 10 0 6 5 10 11 10 5 0 7 -4 4 -10 -3 -5 1 -10 10 -10 14 0 14
2 0 24 -15 22 -65 42 -65 26z"/>
<path d="M930 2190 c0 -5 6 -10 14 -10 7 0 21 -11 30 -25 14 -21 14 -25 2 -25
-8 0 -20 8 -25 18 -6 9 -11 12 -11 5 0 -6 7 -19 16 -28 12 -12 19 -13 30 -4
11 9 14 7 14 -9 0 -11 -6 -23 -12 -25 -7 -3 -8 -6 -3 -6 6 0 16 3 24 8 11 7
10 15 -7 43 -12 19 -18 39 -14 43 4 5 2 5 -4 2 -7 -4 -14 0 -18 8 -6 17 -36
21 -36 5z"/>
<path d="M905 2170 c-7 -12 34 -84 43 -75 3 3 -4 19 -17 35 -12 17 -19 35 -16
40 3 6 4 10 1 10 -3 0 -8 -5 -11 -10z"/>
<path d="M1000 2177 c0 -14 24 -57 32 -57 5 0 1 12 -9 28 -22 35 -23 36 -23
29z"/>
<path d="M1286 2140 c7 -28 12 -35 18 -29 2 2 -2 15 -10 29 l-15 25 7 -25z"/>
<path d="M1315 2150 c-3 -5 0 -7 8 -4 16 6 31 -22 20 -38 -3 -7 -1 -8 5 -4 7
4 12 18 12 32 0 17 -5 24 -19 24 -11 0 -23 -4 -26 -10z"/>
<path d="M1191 2136 c2 -2 18 -6 34 -10 22 -5 26 -4 15 4 -14 9 -59 15 -49 6z"/>
<path d="M1396 2092 c-3 -5 1 -9 9 -9 8 0 12 4 9 9 -3 4 -7 8 -9 8 -2 0 -6 -4
-9 -8z"/>
<path d="M960 2060 c12 -23 47 -27 47 -5 0 12 -3 12 -16 2 -9 -8 -12 -8 -8 -1
4 7 0 15 -9 18 -24 9 -26 8 -14 -14z"/>
<path d="M1435 2070 c3 -5 11 -10 16 -10 6 0 7 5 4 10 -3 6 -11 10 -16 10 -6
0 -7 -4 -4 -10z"/>
<path d="M1474 1999 c0 -10 4 -19 8 -19 4 0 8 6 8 14 0 8 -4 17 -8 20 -4 2 -8
-4 -8 -15z"/>
<path d="M1260 2002 c0 -4 10 -9 22 -9 18 -2 20 0 8 7 -18 12 -30 13 -30 2z"/>
<path d="M1495 1977 c-4 -15 -11 -27 -15 -27 -17 0 -40 12 -35 19 2 4 -2 8
-10 8 -8 0 -12 -4 -10 -7 3 -4 -15 -5 -39 -3 -62 7 -136 -26 -136 -62 l0 -26
22 21 c12 11 25 20 29 20 4 0 20 5 36 12 15 7 60 12 100 13 58 0 76 4 90 19
10 10 13 16 6 12 -6 -3 -16 1 -22 11 -8 16 -10 14 -16 -10z"/>
<path d="M974 1975 c-4 -8 -11 -12 -18 -8 -6 3 -7 2 -3 -2 15 -17 36 -13 34 6
-2 23 -6 24 -13 4z"/>
<path d="M1586 1935 c24 -39 24 -40 24 -28 0 6 -9 21 -21 34 l-20 24 17 -30z"/>
<path d="M1040 1928 c0 -4 5 -8 11 -8 5 0 7 -5 3 -12 -4 -7 -3 -8 4 -4 17 10
15 33 -3 33 -8 0 -15 -4 -15 -9z"/>
<path d="M1410 1916 c-66 -17 -154 -68 -158 -90 -3 -15 3 -13 35 13 35 28 140
77 148 69 2 -2 19 -38 38 -81 19 -43 38 -79 42 -80 5 -1 10 13 13 32 2 23 0
31 -8 26 -8 -5 -11 2 -9 21 5 63 0 74 -31 80 -16 4 -27 10 -24 15 3 5 4 9 2 8
-2 0 -23 -6 -48 -13z m83 -30 c4 -10 0 -12 -15 -8 -15 4 -17 7 -6 13 17 11 15
11 21 -5z"/>
<path d="M1018 1893 c7 -3 16 -2 19 1 4 3 -2 6 -13 5 -11 0 -14 -3 -6 -6z"/>
<path d="M1343 1850 c-36 -22 -77 -60 -65 -60 5 0 15 -11 22 -25 8 -14 20 -23
27 -21 7 3 13 1 13 -4 0 -20 36 -9 63 19 24 24 25 29 12 35 -20 7 -38 -2 -30
-15 4 -5 0 -16 -9 -24 -10 -11 -17 -12 -22 -4 -3 6 0 16 7 21 10 6 1 8 -26 3
-29 -4 -36 -3 -25 4 13 9 12 11 -4 11 -16 0 -16 2 -5 16 11 13 14 13 21 1 5
-9 16 -13 28 -10 19 5 24 14 21 41 -3 18 20 15 34 -5 7 -9 17 -13 24 -9 9 6 8
13 -5 27 -22 24 -41 24 -81 -1z"/>
<path d="M1589 1743 c-13 -16 -12 -17 4 -4 9 7 17 15 17 17 0 8 -8 3 -21 -13z"/>
<path d="M1023 1743 c-23 -4 -33 -23 -12 -23 5 0 7 -5 4 -10 -4 -6 -12 -4 -22
6 -14 14 -18 13 -44 -12 -28 -26 -30 -58 -3 -47 13 5 18 17 15 36 -1 10 6 9
28 -5 23 -14 51 4 51 33 0 17 3 17 20 7 14 -9 16 -15 7 -21 -8 -5 -3 -7 12 -5
14 2 27 12 33 27 6 19 6 22 -4 14 -8 -6 -22 -7 -33 -2 -11 4 -22 7 -25 7 -3 0
-15 -3 -27 -5z"/>
<path d="M1463 1735 c0 -8 4 -12 9 -9 5 3 6 10 3 15 -9 13 -12 11 -12 -6z"/>
<path d="M1050 1669 c0 -18 1 -19 25 -3 14 9 25 17 25 18 0 0 -11 2 -25 2 -18
2 -25 -3 -25 -17z"/>
<path d="M909 1658 c-5 -18 -6 -38 -2 -34 4 3 14 -1 24 -10 13 -12 19 -12 25
-3 4 7 3 10 -3 6 -12 -8 -46 27 -36 36 3 4 3 7 0 7 -4 0 -7 -1 -8 -2z"/>
<path d="M1018 1643 c7 -3 16 -2 19 1 4 3 -2 6 -13 5 -11 0 -14 -3 -6 -6z"/>
<path d="M1603 1615 c0 -8 4 -12 9 -9 5 3 6 10 3 15 -9 13 -12 11 -12 -6z"/>
<path d="M1205 1711 c-3 -5 5 -13 17 -17 13 -4 38 -20 56 -35 53 -47 56 -33 3
16 -48 45 -65 53 -76 36z"/>
<path d="M1354 1613 c6 -9 4 -18 -4 -26 -7 -7 -10 -7 -7 -1 4 7 -2 9 -18 6
-14 -2 -23 -8 -20 -12 5 -7 -25 -38 -32 -32 -1 1 -6 2 -10 1 -5 -1 -18 0 -30
1 -12 1 -32 -4 -44 -10 -17 -10 -23 -9 -30 1 -10 17 -23 5 -16 -16 7 -17 47
-21 47 -5 0 7 20 10 50 9 42 -2 53 1 66 19 16 23 41 31 28 10 -4 -7 3 -4 17 7
13 11 25 20 27 21 1 1 -5 10 -15 21 -10 10 -14 13 -9 6z"/>
<path d="M1380 1556 c0 -8 6 -16 14 -19 10 -4 12 0 9 14 -6 22 -23 26 -23 5z"/>
<path d="M1321 1519 c-13 -11 -22 -21 -20 -23 2 -3 17 7 32 20 15 13 24 24 20
24 -4 -1 -19 -10 -32 -21z"/>
<path d="M1410 1501 c0 -5 -20 -11 -45 -14 -25 -2 -54 -12 -65 -22 -10 -9 -33
-18 -52 -20 -18 -1 -50 -10 -70 -19 -21 -9 -47 -16 -58 -16 -11 0 -20 -7 -20
-15 0 -8 5 -15 10 -15 6 0 10 5 10 10 0 12 57 14 64 2 10 -17 98 -12 156 9 49
18 60 26 65 49 4 16 15 30 26 33 25 7 25 22 -1 24 -11 1 -20 -2 -20 -6z m-20
-50 c0 -5 -10 -13 -22 -17 -13 -3 -31 -13 -40 -21 -10 -9 -24 -13 -33 -10 -8
4 -15 3 -15 -1 0 -9 -78 -7 -87 2 -4 3 4 5 18 4 13 0 42 7 64 17 74 35 115 44
115 26z"/>
<path d="M1104 1472 c-13 -9 -44 -54 -44 -64 0 -5 5 -8 10 -8 6 0 10 6 10 14
0 7 11 25 25 40 23 25 23 34 -1 18z"/>
<path d="M1440 1444 c0 -3 7 -12 15 -20 16 -17 18 -14 9 10 -6 15 -24 23 -24
10z"/>
<path d="M950 1416 c0 -2 7 -7 16 -10 8 -3 12 -2 9 4 -6 10 -25 14 -25 6z"/>
<path d="M1364 1378 l-19 -23 23 19 c12 11 22 21 22 23 0 8 -8 2 -26 -19z"/>
<path d="M976 1366 c3 -9 11 -16 16 -16 13 0 5 23 -10 28 -7 2 -10 -2 -6 -12z"/>
<path d="M1341 1311 c-8 -5 -4 -11 12 -18 19 -9 24 -8 24 3 0 16 -20 25 -36
15z"/>
<path d="M726 2288 c3 -5 10 -6 15 -3 13 9 11 12 -6 12 -8 0 -12 -4 -9 -9z"/>
<path d="M710 2046 c0 -7 6 -19 14 -25 12 -10 14 -9 11 6 -2 10 -4 21 -4 26
-2 13 -21 7 -21 -7z"/>
<path d="M738 1978 c-3 -7 5 -20 16 -30 18 -15 19 -19 6 -29 -13 -9 -12 -10 4
-5 14 5 17 2 12 -10 -5 -12 -2 -15 10 -10 8 3 17 6 19 6 7 0 -50 89 -57 90 -3
0 -8 -6 -10 -12z"/>
<path d="M723 1929 c3 -9 0 -22 -6 -28 -8 -8 -8 -11 0 -11 19 0 25 18 13 37
-9 15 -11 15 -7 2z"/>
<path d="M605 1920 c-3 -5 -2 -10 4 -10 5 0 13 5 16 10 3 6 2 10 -4 10 -5 0
-13 -4 -16 -10z"/>
<path d="M630 1901 c0 -6 4 -13 10 -16 6 -3 7 1 4 9 -7 18 -14 21 -14 7z"/>
<path d="M803 1876 c19 -15 24 -31 5 -20 -7 4 -8 3 -4 -5 6 -9 11 -9 21 -1 9
8 14 6 19 -5 3 -9 11 -13 17 -9 7 4 10 1 7 -7 -3 -8 -10 -13 -16 -12 -6 2 -9
-4 -6 -12 4 -8 1 -15 -5 -15 -10 0 -15 14 -12 33 1 5 -3 6 -9 2 -5 -3 -19 9
-31 27 -17 28 -19 29 -14 8 4 -14 19 -36 33 -49 22 -22 23 -25 8 -31 -10 -3
-17 -10 -16 -15 0 -6 -7 -12 -17 -13 -10 -2 -22 -7 -26 -12 -5 -4 3 -5 17 -3
30 6 106 74 106 94 -1 8 -17 24 -36 37 -38 23 -71 30 -41 8z"/>
<path d="M690 1866 c0 -26 22 -89 35 -98 5 -4 16 -8 23 -8 10 0 9 4 -2 16 -9
8 -16 25 -16 37 0 12 -9 33 -20 47 -17 22 -20 23 -20 6z"/>
<path d="M726 1867 c3 -10 9 -15 12 -12 3 3 0 11 -7 18 -10 9 -11 8 -5 -6z"/>
<path d="M760 1822 c0 -12 19 -26 26 -19 2 2 -2 10 -11 17 -9 8 -15 8 -15 2z"/>
<path d="M750 1794 c0 -2 9 -8 20 -14 11 -6 20 -7 20 -2 0 6 -9 12 -20 15 -11
3 -20 3 -20 1z"/>
<path d="M676 1777 c3 -10 9 -15 12 -12 3 3 0 11 -7 18 -10 9 -11 8 -5 -6z"/>
<path d="M721 1713 c-1 -18 19 -27 32 -13 9 10 8 12 -5 7 -9 -3 -19 -1 -22 6
-3 9 -5 9 -5 0z"/>
<path d="M768 1695 c-10 -13 -18 -28 -18 -34 0 -5 -6 -12 -12 -14 -8 -3 -6 -6
5 -6 9 -1 17 5 17 12 0 7 9 23 20 35 21 22 25 32 13 32 -5 0 -16 -11 -25 -25z"/>
<path d="M730 1613 c0 -15 2 -15 9 -4 7 11 10 10 14 -5 4 -16 5 -16 6 4 1 13
-5 22 -14 22 -8 0 -15 -8 -15 -17z"/>
<path d="M588 1543 c9 -21 20 -39 24 -41 4 -2 4 -11 1 -20 -5 -13 -3 -14 6 -6
10 9 9 22 -7 58 -12 25 -26 46 -31 46 -6 0 -3 -16 7 -37z"/>
<path d="M742 1540 c0 -19 2 -27 5 -17 2 9 2 25 0 35 -3 9 -5 1 -5 -18z"/>
<path d="M661 1523 c11 -34 19 -42 19 -20 0 7 -7 22 -15 33 -13 17 -14 16 -4
-13z"/>
<path d="M790 1531 c0 -6 5 -13 10 -16 6 -3 11 -25 12 -48 1 -39 1 -40 5 -8 5
40 -4 81 -17 81 -6 0 -10 -4 -10 -9z"/>
<path d="M741 1474 c0 -11 3 -14 6 -6 3 7 2 16 -1 19 -3 4 -6 -2 -5 -13z"/>
<path d="M680 1475 c0 -5 5 -17 10 -25 5 -8 10 -10 10 -5 0 6 -5 17 -10 25 -5
8 -10 11 -10 5z"/>
<path d="M730 1441 c0 -5 5 -13 10 -16 6 -3 10 -2 10 4 0 5 -4 13 -10 16 -5 3
-10 2 -10 -4z"/>
<path d="M1583 1415 c0 -22 2 -30 4 -17 2 12 2 30 0 40 -3 9 -5 -1 -4 -23z"/>
<path d="M656 1383 c-6 -14 -5 -15 5 -6 7 7 10 15 7 18 -3 3 -9 -2 -12 -12z"/>
<path d="M686 1392 c-3 -5 1 -9 9 -9 8 0 12 4 9 9 -3 4 -7 8 -9 8 -2 0 -6 -4
-9 -8z"/>
<path d="M690 1311 c0 -6 4 -13 10 -16 6 -3 7 1 4 9 -7 18 -14 21 -14 7z"/>
<path d="M1515 1290 c-3 -5 -1 -10 4 -10 6 0 11 5 11 10 0 6 -2 10 -4 10 -3 0
-8 -4 -11 -10z"/>
<path d="M1470 1259 c0 -5 5 -7 10 -4 6 3 10 8 10 11 0 2 -4 4 -10 4 -5 0 -10
-5 -10 -11z"/>
<path d="M1560 1238 c0 -19 2 -20 10 -8 13 19 13 30 0 30 -5 0 -10 -10 -10
-22z"/>
<path d="M1502 1230 c0 -14 2 -19 5 -12 2 6 2 18 0 25 -3 6 -5 1 -5 -13z"/>
<path d="M965 1188 c10 -46 30 -63 21 -19 -3 18 -6 37 -6 42 0 5 -5 9 -11 9
-7 0 -8 -12 -4 -32z"/>
<path d="M1465 1190 c3 -5 8 -10 11 -10 2 0 4 5 4 10 0 6 -5 10 -11 10 -5 0
-7 -4 -4 -10z"/>
<path d="M1450 1155 c0 -5 5 -17 10 -25 5 -8 10 -10 10 -5 0 6 -5 17 -10 25
-5 8 -10 11 -10 5z"/>
<path d="M1510 1156 c0 -2 8 -10 18 -17 15 -13 16 -12 3 4 -13 16 -21 21 -21
13z"/>
<path d="M1562 1130 c0 -19 2 -27 5 -17 2 9 2 25 0 35 -3 9 -5 1 -5 -18z"/>
<path d="M1582 1140 c0 -14 2 -19 5 -12 2 6 2 18 0 25 -3 6 -5 1 -5 -13z"/>
<path d="M983 1112 c10 -10 17 -24 17 -30 0 -7 4 -12 8 -12 10 0 42 -54 42
-72 0 -7 -11 1 -25 17 -13 17 -24 25 -25 20 0 -6 10 -21 23 -35 21 -24 28 -64
15 -86 -4 -5 -3 -15 1 -22 5 -9 11 -5 19 12 8 19 8 26 -1 30 -7 2 -6 5 4 5 13
1 14 9 6 62 -8 47 -17 68 -43 95 -35 35 -71 50 -41 16z"/>
<path d="M1670 1083 c0 -21 3 -24 9 -14 5 8 7 20 4 28 -8 21 -13 15 -13 -14z"/>
<path d="M637 1073 c-3 -5 -1 -17 4 -28 4 -11 8 -15 8 -8 1 6 4 18 7 27 6 16
-11 23 -19 9z"/>
<path d="M1716 1062 c-3 -5 1 -9 9 -9 8 0 12 4 9 9 -3 4 -7 8 -9 8 -2 0 -6 -4
-9 -8z"/>
<path d="M436 1012 l-20 -27 21 18 c14 12 23 15 28 8 8 -14 -3 -33 -16 -26 -5
4 -9 1 -9 -4 0 -15 15 -14 27 2 12 14 13 48 2 41 -4 -2 -9 0 -11 5 -1 5 -12
-3 -22 -17z"/>
<path d="M1763 1013 c3 -30 62 -111 73 -100 3 2 -10 21 -29 40 -19 20 -31 38
-27 39 3 2 0 14 -7 28 l-13 25 3 -32z"/>
<path d="M1780 1030 c0 -5 18 -14 40 -20 22 -6 40 -15 40 -20 0 -6 10 -10 23
-10 12 0 31 -7 41 -15 23 -18 45 -20 29 -4 -17 17 -173 79 -173 69z"/>
<path d="M1724 1006 c0 -13 4 -22 9 -19 10 6 9 31 -2 37 -5 3 -8 -5 -7 -18z"/>
<path d="M510 986 c0 -31 6 -34 13 -6 3 11 1 23 -4 26 -5 3 -9 -6 -9 -20z"/>
<path d="M610 999 c0 -5 -4 -7 -10 -4 -15 9 -12 -4 4 -20 11 -12 14 -10 14 11
0 13 -2 24 -4 24 -2 0 -4 -5 -4 -11z"/>
<path d="M555 978 c-2 -7 -6 -42 -9 -77 -3 -35 -8 -66 -11 -69 -10 -10 -56 47
-49 60 5 7 3 8 -6 3 -10 -6 -12 -3 -8 13 7 26 -7 30 -16 5 -4 -9 -1 -20 5 -24
7 -4 8 -13 4 -20 -5 -8 -5 -11 -1 -8 8 7 56 -36 56 -50 0 -5 7 -12 16 -15 26
-10 30 -6 10 9 -11 8 -15 15 -9 15 13 0 22 44 26 118 2 52 0 63 -8 40z"/>
<path d="M1740 973 c0 -6 11 -24 24 -40 13 -15 24 -32 26 -38 3 -17 10 -19 10
-2 0 8 -6 22 -13 29 -7 7 -21 24 -30 38 -9 13 -17 19 -17 13z"/>
<path d="M1837 953 c10 -16 22 -31 27 -35 5 -3 11 -14 12 -23 3 -23 11 -29 19
-16 3 6 1 11 -5 11 -6 0 -9 4 -5 9 3 6 -3 18 -13 28 -10 10 -22 26 -25 36 -4
9 -11 17 -17 17 -6 0 -3 -12 7 -27z"/>
<path d="M1718 955 c5 -11 12 -27 15 -35 5 -13 6 -13 6 1 1 8 -6 24 -15 35
-15 19 -15 19 -6 -1z"/>
<path d="M635 919 c-10 -55 -2 -58 11 -4 6 25 7 45 3 45 -4 0 -10 -18 -14 -41z"/>
<path d="M701 944 c0 -11 3 -14 6 -6 3 7 2 16 -1 19 -3 4 -6 -2 -5 -13z"/>
<path d="M306 934 c-11 -7 -18 -16 -15 -18 2 -2 13 2 23 10 11 7 18 16 15 18
-2 2 -13 -2 -23 -10z"/>
<path d="M420 930 c15 -11 26 -15 29 -8 4 12 -17 28 -39 28 -10 0 -7 -7 10
-20z"/>
<path d="M593 910 c0 -25 2 -35 4 -22 2 12 2 32 0 45 -2 12 -4 2 -4 -23z"/>
<path d="M1970 943 c0 -5 22 -19 48 -32 53 -26 53 -23 -1 13 -40 28 -47 30
-47 19z"/>
<path d="M352 925 c-33 -18 -36 -23 -7 -17 14 2 28 9 31 14 9 15 1 16 -24 3z"/>
<path d="M1697 919 c4 -13 8 -18 11 -10 2 7 -1 18 -6 23 -8 8 -9 4 -5 -13z"/>
<path d="M997 911 c-4 -17 -3 -21 5 -13 5 5 8 16 6 23 -3 8 -7 3 -11 -10z"/>
<path d="M370 900 c-13 -8 -12 -10 2 -10 11 0 15 -5 12 -15 -4 -8 -2 -15 4
-15 6 0 12 6 15 13 2 6 3 -7 2 -30 -1 -24 0 -41 4 -39 3 2 15 -2 26 -10 10 -8
15 -14 9 -14 -5 0 0 -7 10 -15 11 -8 16 -15 11 -15 -4 0 3 -9 15 -20 13 -12
25 -28 26 -38 2 -9 8 -18 13 -20 6 -2 11 -10 11 -17 0 -8 7 -18 15 -22 8 -5
16 -21 17 -35 1 -15 5 -25 9 -22 4 2 10 -6 12 -18 4 -21 4 -21 6 2 0 15 -4 31
-10 37 -8 8 -7 13 2 18 8 5 10 4 5 -3 -5 -8 -2 -10 8 -6 23 9 20 24 -3 19 -17
-3 -54 34 -56 55 -1 10 -40 65 -82 118 -23 29 -40 58 -37 65 7 20 -28 48 -46
37z m61 -87 c13 -16 12 -17 -3 -4 -10 7 -18 15 -18 17 0 8 8 3 21 -13z"/>
<path d="M1906 898 c3 -5 10 -6 15 -3 13 9 11 12 -6 12 -8 0 -12 -4 -9 -9z"/>
<path d="M1534 886 c-3 -8 -4 -25 -2 -38 3 -17 5 -13 9 15 5 38 2 47 -7 23z"/>
<path d="M1622 875 c0 -16 2 -22 5 -12 2 9 2 23 0 30 -3 6 -5 -1 -5 -18z"/>
<path d="M2070 890 c0 -5 5 -10 11 -10 8 0 8 -4 0 -14 -9 -10 -9 -16 -1 -21 6
-4 14 -4 17 -1 4 3 0 6 -7 6 -10 0 -9 4 3 13 16 11 16 13 -3 25 -12 7 -20 8
-20 2z"/>
<path d="M337 865 c-10 -7 -14 -16 -9 -19 5 -3 15 1 22 9 17 21 9 27 -13 10z"/>
<path d="M922 860 c0 -14 2 -19 5 -12 2 6 2 18 0 25 -3 6 -5 1 -5 -13z"/>
<path d="M996 872 c-2 -4 -1 -14 4 -22 5 -9 4 -20 -3 -29 -10 -12 -9 -13 2 -7
10 7 12 3 6 -14 -5 -15 -4 -20 4 -16 6 4 13 -5 16 -21 3 -15 10 -47 15 -71 14
-59 13 -112 -2 -112 -8 0 -9 -3 -3 -8 18 -13 55 -71 55 -86 0 -8 5 -18 10 -21
19 -12 10 22 -16 61 -22 32 -27 49 -25 95 2 60 -25 212 -39 217 -5 2 -7 9 -4
17 6 14 -12 30 -20 17z"/>
<path d="M473 800 c26 -36 62 -87 79 -113 18 -27 34 -43 37 -36 2 7 -1 15 -7
17 -7 2 -12 9 -12 16 0 7 -13 27 -29 44 -17 17 -41 48 -54 69 -13 21 -33 45
-43 53 -10 8 3 -14 29 -50z"/>
<path d="M2025 850 c-3 -5 -1 -10 4 -10 6 0 11 5 11 10 0 6 -2 10 -4 10 -3 0
-8 -4 -11 -10z"/>
<path d="M1551 834 c0 -11 3 -14 6 -6 3 7 2 16 -1 19 -3 4 -6 -2 -5 -13z"/>
<path d="M1690 836 c0 -2 7 -9 15 -16 13 -11 14 -10 9 4 -5 14 -24 23 -24 12z"/>
<path d="M2121 823 c7 -12 15 -20 18 -17 3 2 -3 12 -13 22 -17 16 -18 16 -5
-5z"/>
<path d="M340 820 c-9 -6 -10 -10 -3 -10 6 0 15 5 18 10 8 12 4 12 -15 0z"/>
<path d="M1595 820 c-3 -5 -1 -10 4 -10 6 0 11 5 11 10 0 6 -2 10 -4 10 -3 0
-8 -4 -11 -10z"/>
<path d="M1820 820 c12 -7 12 -12 2 -22 -6 -6 -12 -17 -12 -22 0 -6 5 -3 11 7
10 17 13 16 32 -15 12 -18 22 -35 22 -38 8 -30 36 -70 49 -70 10 0 -7 35 -50
103 -24 37 -49 67 -56 67 -9 0 -8 -3 2 -10z"/>
<path d="M381 804 c0 -11 3 -14 6 -6 3 7 2 16 -1 19 -3 4 -6 -2 -5 -13z"/>
<path d="M912 790 c0 -14 2 -19 5 -12 2 6 2 18 0 25 -3 6 -5 1 -5 -13z"/>
<path d="M1530 800 c0 -5 5 -10 11 -10 5 0 7 5 4 10 -3 6 -8 10 -11 10 -2 0
-4 -4 -4 -10z"/>
<path d="M245 781 c-12 -38 43 -199 81 -238 26 -26 25 -11 -1 33 -39 66 -75
177 -64 197 6 9 5 18 0 21 -5 4 -12 -2 -16 -13z"/>
<path d="M1786 769 c1 -39 9 -45 12 -9 1 16 -1 31 -5 33 -5 3 -8 -8 -7 -24z"/>
<path d="M526 775 c4 -8 8 -15 10 -15 2 0 4 7 4 15 0 8 -4 15 -10 15 -5 0 -7
-7 -4 -15z"/>
<path d="M1281 774 c0 -11 3 -14 6 -6 3 7 2 16 -1 19 -3 4 -6 -2 -5 -13z"/>
<path d="M1570 769 c0 -5 5 -7 10 -4 6 3 10 8 10 11 0 2 -4 4 -10 4 -5 0 -10
-5 -10 -11z"/>
<path d="M2246 763 c-6 -14 -5 -15 5 -6 7 7 10 15 7 18 -3 3 -9 -2 -12 -12z"/>
<path d="M310 750 c0 -11 4 -20 9 -20 5 0 7 9 4 20 -3 11 -7 20 -9 20 -2 0 -4
-9 -4 -20z"/>
<path d="M986 748 c-7 -29 -8 -93 0 -86 6 6 15 108 10 108 -2 0 -6 -10 -10
-22z"/>
<path d="M1632 745 c0 -16 2 -22 5 -12 2 9 2 23 0 30 -3 6 -5 -1 -5 -18z"/>
<path d="M210 755 c-5 -28 3 -96 12 -110 3 -6 10 -28 14 -50 6 -36 8 -37 16
-16 4 12 6 27 3 32 -3 4 -14 41 -25 81 -10 40 -20 69 -20 63z"/>
<path d="M555 750 c3 -5 8 -10 11 -10 2 0 4 5 4 10 0 6 -5 10 -11 10 -5 0 -7
-4 -4 -10z"/>
<path d="M1079 718 c4 -28 6 -29 9 -9 2 13 0 27 -5 32 -6 6 -7 -3 -4 -23z"/>
<path d="M1551 734 c0 -11 3 -14 6 -6 3 7 2 16 -1 19 -3 4 -6 -2 -5 -13z"/>
<path d="M1570 746 c0 -2 7 -7 16 -10 8 -3 12 -2 9 4 -6 10 -25 14 -25 6z"/>
<path d="M931 714 c0 -11 3 -14 6 -6 3 7 2 16 -1 19 -3 4 -6 -2 -5 -13z"/>
<path d="M1233 662 c-29 -63 -44 -124 -57 -244 -3 -29 -2 -48 4 -48 6 0 10 24
11 53 0 38 3 47 9 32 8 -19 9 -19 9 2 1 12 -3 24 -8 27 -11 7 8 65 29 86 9 8
11 12 6 8 -18 -14 -26 -8 -16 10 24 43 51 115 48 128 -2 8 -17 -16 -35 -54z"/>
<path d="M911 704 c0 -11 3 -14 6 -6 3 7 2 16 -1 19 -3 4 -6 -2 -5 -13z"/>
<path d="M1570 710 c0 -5 5 -10 11 -10 5 0 7 5 4 10 -3 6 -8 10 -11 10 -2 0
-4 -4 -4 -10z"/>
<path d="M100 691 c0 -5 4 -11 8 -13 5 -1 12 -15 16 -31 5 -20 2 -29 -9 -33
-10 -4 -12 -10 -6 -18 5 -6 11 -20 14 -31 3 -13 5 -10 5 10 -1 17 4 41 10 55
8 20 6 30 -8 48 -19 23 -30 28 -30 13z"/>
<path d="M160 683 c0 -13 5 -23 10 -23 13 0 13 11 0 30 -8 12 -10 11 -10 -7z"/>
<path d="M692 665 c0 -16 2 -22 5 -12 2 9 2 23 0 30 -3 6 -5 -1 -5 -18z"/>
<path d="M841 674 c0 -11 3 -14 6 -6 3 7 2 16 -1 19 -3 4 -6 -2 -5 -13z"/>
<path d="M66 672 c-5 -9 22 -112 30 -112 7 0 -1 65 -9 71 -4 3 -9 16 -10 27
-1 24 -3 26 -11 14z"/>
<path d="M1006 663 c-6 -14 -5 -15 5 -6 7 7 10 15 7 18 -3 3 -9 -2 -12 -12z"/>
<path d="M20 626 c0 -49 16 -62 26 -22 8 32 2 58 -13 64 -9 2 -13 -10 -13 -42z"/>
<path d="M900 655 c-7 -8 -17 -12 -24 -8 -6 3 -8 3 -4 -2 4 -4 3 -14 -3 -22
-14 -17 -2 -17 14 0 22 23 39 47 34 47 -2 0 -10 -7 -17 -15z"/>
<path d="M938 660 c18 -20 15 -36 -10 -60 -12 -11 -16 -20 -10 -20 15 0 52 59
51 80 0 11 -2 11 -6 2 -4 -10 -8 -10 -21 0 -14 10 -15 10 -4 -2z"/>
<path d="M1521 663 c6 -32 -3 -51 -26 -55 -14 -3 -28 -1 -31 3 -3 5 0 9 5 9 6
0 10 5 9 12 -2 7 2 12 9 13 17 0 29 15 12 15 -25 0 -32 -9 -67 -83 -2 -5 10
-1 28 8 17 9 37 14 43 12 7 -3 0 -10 -15 -16 -16 -6 -40 -16 -55 -23 -42 -17
-51 -17 -57 -1 -3 7 -2 12 3 8 12 -7 41 4 41 16 0 13 -24 11 -45 -5 -16 -12
-17 -16 -6 -30 9 -11 10 -16 2 -16 -6 0 -10 -3 -9 -7 0 -5 -2 -16 -6 -25 -4
-10 -6 -23 -3 -30 3 -7 6 -3 6 8 1 12 8 25 17 28 8 3 12 10 9 16 -3 5 -2 10 4
10 5 0 13 -4 16 -10 9 -15 25 -12 19 4 -3 8 0 17 7 22 7 4 10 3 6 -3 -4 -6 1
-17 11 -24 15 -12 16 -12 5 2 -15 19 -7 29 21 28 20 0 20 -1 2 -8 -16 -6 -17
-9 -6 -16 9 -5 15 -4 18 3 2 7 8 12 14 12 5 0 16 7 24 15 9 8 12 15 7 15 -5 0
-14 -5 -21 -12 -8 -8 -15 -9 -23 -1 -7 7 -1 12 23 18 18 4 27 9 21 12 -7 2
-13 9 -13 14 0 6 4 8 9 5 5 -3 12 1 15 10 9 24 7 31 -5 14 -9 -12 -10 -11 -6
7 3 13 1 26 -4 29 -5 3 -9 2 -8 -3z"/>
<path d="M1615 660 c3 -5 8 -10 11 -10 2 0 4 5 4 10 0 6 -5 10 -11 10 -5 0 -7
-4 -4 -10z"/>
<path d="M320 653 c0 -19 41 -93 52 -93 5 0 7 -8 4 -17 -7 -22 8 -50 18 -34 4
6 2 11 -4 11 -7 0 -9 8 -5 19 3 12 0 23 -8 28 -7 4 -23 28 -35 53 -12 25 -22
40 -22 33z"/>
<path d="M158 620 c-3 -16 -2 -30 1 -30 4 0 5 -19 3 -42 -3 -24 -1 -40 2 -37
8 7 10 128 3 135 -3 3 -7 -9 -9 -26z"/>
<path d="M1131 624 c0 -11 3 -14 6 -6 3 7 2 16 -1 19 -3 4 -6 -2 -5 -13z"/>
<path d="M2120 630 c0 -5 5 -10 10 -10 6 0 10 5 10 10 0 6 -4 10 -10 10 -5 0
-10 -4 -10 -10z"/>
<path d="M1556 608 c-10 -39 -7 -44 9 -14 17 33 18 36 6 36 -5 0 -11 -10 -15
-22z"/>
<path d="M1592 604 c-7 -14 -8 -23 -2 -19 20 13 9 -24 -12 -39 -12 -9 -19 -18
-15 -22 13 -13 41 30 43 67 1 22 1 39 0 39 -2 0 -8 -12 -14 -26z"/>
<path d="M840 600 c0 -5 -7 -10 -15 -10 -8 0 -15 -5 -15 -11 0 -5 -4 -7 -10
-4 -5 3 -10 1 -10 -4 0 -14 3 -14 35 1 21 9 36 38 20 38 -3 0 -5 -4 -5 -10z"/>
<path d="M2395 599 c-6 -8 -4 -10 5 -4 10 6 12 4 6 -11 -6 -15 -5 -17 5 -6 9
9 10 15 2 23 -8 8 -13 7 -18 -2z"/>
<path d="M43 575 c-9 -10 -6 -18 13 -36 13 -12 24 -18 24 -12 0 6 -7 16 -15
23 -12 10 -13 15 -4 20 6 4 7 10 3 13 -5 3 -14 -1 -21 -8z"/>
<path d="M994 582 c-6 -4 -14 -18 -18 -32 -6 -20 -5 -22 4 -10 15 20 31 50 28
50 -2 0 -8 -4 -14 -8z"/>
<path d="M263 562 c0 -10 16 -26 35 -35 l35 -18 -29 35 c-33 39 -43 44 -41 18z"/>
<path d="M891 554 c0 -11 3 -14 6 -6 3 7 2 16 -1 19 -3 4 -6 -2 -5 -13z"/>
<path d="M1766 562 c-9 -15 30 -39 78 -48 47 -8 42 11 -5 21 -23 5 -28 9 -18
16 9 6 10 9 2 9 -6 0 -15 -5 -18 -11 -5 -6 -11 -4 -19 7 -9 11 -15 13 -20 6z"/>
<path d="M200 551 c0 -5 5 -13 10 -16 6 -3 10 -2 10 4 0 5 -4 13 -10 16 -5 3
-10 2 -10 -4z"/>
<path d="M611 544 c0 -11 3 -14 6 -6 3 7 2 16 -1 19 -3 4 -6 -2 -5 -13z"/>
<path d="M2281 544 c0 -11 3 -14 6 -6 3 7 2 16 -1 19 -3 4 -6 -2 -5 -13z"/>
<path d="M2413 553 c4 -3 1 -13 -6 -22 -11 -14 -10 -14 6 -2 20 15 22 31 5 31
-6 0 -8 -3 -5 -7z"/>
<path d="M100 544 c0 -5 9 -17 20 -27 11 -9 20 -13 20 -8 0 4 -9 16 -20 26
-11 10 -20 14 -20 9z"/>
<path d="M632 522 c-1 -13 2 -31 8 -40 8 -14 9 -12 10 10 0 14 2 33 5 41 3 7
0 14 -8 14 -7 0 -14 -11 -15 -25z"/>
<path d="M825 540 c3 -5 8 -10 11 -10 2 0 4 5 4 10 0 6 -5 10 -11 10 -5 0 -7
-4 -4 -10z"/>
<path d="M715 529 c-4 -6 -5 -12 -2 -15 2 -3 7 2 10 11 7 17 1 20 -8 4z"/>
<path d="M1006 524 c-10 -25 1 -29 14 -5 6 12 7 21 1 21 -5 0 -12 -7 -15 -16z"/>
<path d="M0 520 c0 -5 9 -14 21 -21 16 -8 24 -8 33 2 8 9 7 11 -6 6 -10 -4
-18 -2 -18 2 0 5 -7 11 -15 15 -8 3 -15 1 -15 -4z"/>
<path d="M581 514 c0 -11 3 -14 6 -6 3 7 2 16 -1 19 -3 4 -6 -2 -5 -13z"/>
<path d="M670 505 c0 -16 3 -24 8 -19 4 5 11 11 15 15 4 3 1 12 -8 19 -13 11
-15 9 -15 -15z"/>
<path d="M1772 514 c8 -9 23 -14 33 -12 12 2 7 7 -16 15 -30 12 -32 11 -17 -3z"/>
<path d="M245 510 c3 -5 10 -10 16 -10 5 0 9 5 9 10 0 6 -7 10 -16 10 -8 0
-12 -4 -9 -10z"/>
<path d="M918 478 c-10 -23 -16 -43 -14 -45 5 -6 38 67 34 77 -2 5 -11 -9 -20
-32z"/>
<path d="M1490 510 c-8 -5 -10 -10 -5 -10 6 0 17 5 25 10 8 5 11 10 5 10 -5 0
-17 -5 -25 -10z"/>
<path d="M1505 490 c-16 -11 -39 -18 -49 -16 -14 4 -16 2 -8 -6 8 -8 22 -6 52
7 23 10 43 22 46 27 9 14 -10 9 -41 -12z"/>
<path d="M2380 500 c-9 -6 -10 -10 -3 -10 6 0 15 5 18 10 8 12 4 12 -15 0z"/>
<path d="M862 470 c-13 -16 -19 -30 -14 -30 4 0 16 14 25 30 10 17 16 30 14
30 -2 0 -13 -13 -25 -30z"/>
<path d="M2481 483 c-16 -17 -11 -25 8 -14 7 5 12 13 10 19 -2 6 -10 4 -18 -5z"/>
<path d="M330 471 c-8 -15 -7 -19 5 -17 8 1 21 8 28 16 9 11 8 11 -7 0 -18
-14 -19 -13 -13 3 9 23 0 22 -13 -2z"/>
<path d="M390 486 c0 -2 11 -6 25 -8 13 -3 22 -1 19 3 -5 9 -44 13 -44 5z"/>
<path d="M2352 460 c-7 -11 -8 -20 -3 -20 9 0 24 30 18 36 -1 2 -8 -6 -15 -16z"/>
<path d="M406 458 c5 -8 0 -9 -15 -5 -15 3 -24 0 -28 -9 -3 -9 -13 -13 -22
-10 -11 4 -10 2 3 -9 11 -8 17 -15 14 -15 -3 0 -2 -18 2 -40 4 -23 3 -40 -2
-40 -5 0 -6 -6 -2 -12 5 -8 0 -7 -11 2 -17 14 -18 14 -6 -9 7 -13 9 -21 3 -17
-5 3 -13 -1 -16 -10 -5 -13 -14 -15 -42 -10 -24 5 -47 2 -74 -10 -41 -18 -48
-28 -30 -39 15 -9 12 -38 -2 -29 -7 4 -10 4 -6 -1 4 -4 2 -15 -4 -24 -10 -13
-10 -14 2 -3 17 14 34 16 25 2 -3 -5 1 -10 10 -10 9 0 13 -5 10 -10 -3 -5 -1
-10 6 -10 8 0 7 -5 -2 -17 -12 -15 -12 -16 4 -10 10 4 16 3 12 -2 -3 -5 -1
-12 4 -15 5 -4 8 -17 7 -31 -2 -13 1 -22 6 -19 5 3 7 13 3 23 -3 9 5 3 19 -14
13 -16 21 -36 18 -45 -3 -9 2 -7 11 5 14 19 16 19 22 3 4 -10 17 -18 28 -18
19 0 19 2 -8 30 -16 16 -35 30 -42 30 -8 0 -17 8 -20 18 -4 9 -24 48 -46 85
-21 38 -37 70 -35 71 25 16 56 21 79 13 21 -8 33 -6 63 12 41 26 51 53 43 122
-6 52 -2 57 27 36 16 -12 17 -20 6 -96 -21 -140 3 -311 44 -319 13 -3 14 1 7
20 -4 13 -6 28 -4 35 2 6 -1 14 -6 18 -6 3 -11 11 -11 16 0 6 5 7 12 3 7 -4 8
-3 4 5 -4 6 -11 9 -16 6 -9 -6 -13 154 -4 202 4 19 11 30 17 26 6 -4 7 -1 1 8
-8 14 -15 54 -15 94 0 16 -2 17 -9 5 -9 -13 -14 -8 -12 12 1 3 -5 9 -14 12
-10 4 -13 2 -8 -6z"/>
<path d="M1021 464 c0 -5 4 -18 8 -29 5 -11 4 -25 -1 -32 -7 -9 -7 -18 1 -27
9 -11 9 -20 2 -35 -14 -24 -14 -71 -2 -71 6 0 11 19 13 42 2 23 9 43 16 46 7
2 11 -2 10 -10 -2 -7 3 -12 10 -10 8 1 11 -1 8 -6 -3 -5 10 -23 28 -41 23 -22
36 -29 41 -21 6 10 -20 39 -36 40 -4 0 -12 13 -19 29 -6 16 -20 37 -31 47 -10
9 -19 24 -19 33 0 9 -7 25 -15 35 -8 11 -15 16 -14 10z m29 -79 c7 -9 8 -15 2
-15 -5 0 -12 7 -16 15 -3 8 -4 15 -2 15 2 0 9 -7 16 -15z"/>
<path d="M663 415 c0 -27 2 -43 5 -35 2 8 9 23 14 34 7 12 7 16 0 12 -6 -3
-12 4 -15 16 -2 13 -4 1 -4 -27z"/>
<path d="M790 450 c0 -5 5 -10 11 -10 5 0 7 5 4 10 -3 6 -8 10 -11 10 -2 0 -4
-4 -4 -10z"/>
<path d="M989 440 c-2 -32 -4 -38 -10 -44 -4 -4 -5 -21 -3 -39 3 -17 -3 -49
-11 -70 -20 -51 -19 -93 4 -126 11 -15 23 -39 26 -54 10 -39 20 -40 19 -2 -1
18 -9 41 -18 51 -26 25 -36 60 -29 96 l6 32 11 -38 c10 -33 11 -20 12 88 1 69
0 126 -2 126 -2 0 -5 -9 -5 -20z"/>
<path d="M2458 443 c7 -3 16 -2 19 1 4 3 -2 6 -13 5 -11 0 -14 -3 -6 -6z"/>
<path d="M1120 430 c0 -5 5 -10 10 -10 6 0 10 5 10 10 0 6 -4 10 -10 10 -5 0
-10 -4 -10 -10z"/>
<path d="M630 415 c0 -8 2 -15 4 -15 2 0 6 7 10 15 3 8 1 15 -4 15 -6 0 -10
-7 -10 -15z"/>
<path d="M2410 420 c-13 -8 -13 -10 2 -10 9 0 20 5 23 10 8 13 -5 13 -25 0z"/>
<path d="M601 404 c0 -11 3 -14 6 -6 3 7 2 16 -1 19 -3 4 -6 -2 -5 -13z"/>
<path d="M782 390 c-47 -25 -52 -33 -17 -24 16 4 35 7 42 7 7 0 10 4 7 9 -3 4
2 8 11 8 9 0 13 5 10 10 -8 13 -12 12 -53 -10z"/>
<path d="M571 384 c0 -11 3 -14 6 -6 3 7 2 16 -1 19 -3 4 -6 -2 -5 -13z"/>
<path d="M833 360 c-24 -21 -43 -42 -43 -46 0 -4 10 2 23 13 12 11 29 18 37
16 13 -4 13 -3 0 6 -12 9 -10 11 10 12 14 0 19 3 12 6 -10 4 -10 8 -1 19 21
25 5 15 -38 -26z"/>
<path d="M2380 381 c-6 -12 -7 -21 -1 -21 10 0 24 30 17 37 -2 3 -9 -5 -16
-16z"/>
<path d="M106 365 c10 -8 24 -14 29 -14 6 0 1 6 -9 14 -11 8 -24 15 -30 15 -5
0 -1 -7 10 -15z"/>
<path d="M953 340 c0 -25 2 -35 4 -22 2 12 2 32 0 45 -2 12 -4 2 -4 -23z"/>
<path d="M1176 353 c-11 -11 -6 -23 9 -23 8 0 15 4 15 9 0 13 -16 22 -24 14z"/>
<path d="M690 315 c-18 -10 -20 -14 -8 -15 9 0 19 4 23 10 3 5 13 6 22 3 11
-4 14 -3 9 5 -9 15 -15 15 -46 -3z"/>
<path d="M1181 315 c0 -18 28 -61 29 -44 0 8 -7 24 -15 35 -8 10 -14 15 -14 9z"/>
<path d="M585 270 c-3 -5 -1 -10 4 -10 6 0 11 5 11 10 0 6 -2 10 -4 10 -3 0
-8 -4 -11 -10z"/>
<path d="M695 270 c-3 -6 1 -7 9 -4 18 7 21 14 7 14 -6 0 -13 -4 -16 -10z"/>
<path d="M36 258 c3 -4 9 -8 15 -8 5 0 9 4 9 8 0 5 -7 9 -15 9 -8 0 -12 -4 -9
-9z"/>
<path d="M1160 261 c0 -5 7 -14 15 -21 16 -14 18 -10 9 14 -6 17 -24 22 -24 7z"/>
<path d="M1213 248 c-5 -7 -21 -37 -35 -66 l-26 -52 -34 27 c-18 15 -39 36
-46 45 -21 28 -32 21 -30 -19 1 -21 3 -32 6 -25 2 8 17 0 43 -23 21 -19 44
-35 51 -35 7 0 -5 -17 -26 -39 -25 -25 -34 -41 -26 -46 12 -8 59 38 61 61 2
22 4 26 27 74 l21 45 -2 -63 c-1 -34 0 -62 3 -62 4 0 12 -16 19 -35 7 -19 16
-33 21 -30 4 3 0 29 -11 57 -21 58 -25 165 -5 149 8 -7 16 -3 25 11 11 18 11
20 -3 15 -8 -3 -18 -2 -21 3 -3 4 1 11 7 13 8 4 9 6 2 6 -6 1 -16 -5 -21 -11z"/>
<path d="M2015 250 c3 -4 -2 -10 -10 -14 -8 -3 -15 -14 -15 -25 0 -11 -4 -22
-10 -26 -5 -3 -6 -13 -3 -22 4 -11 3 -14 -5 -9 -8 5 -12 -1 -12 -18 0 -14 -8
-30 -17 -35 -10 -6 -13 -11 -8 -11 6 0 6 -3 0 -8 -13 -8 -55 -67 -55 -76 0 -3
6 -6 13 -6 28 0 93 113 132 227 3 9 17 5 47 -12 24 -14 57 -25 73 -25 54 0
155 -63 155 -95 0 -24 -28 -73 -47 -85 -15 -9 -13 -10 12 -8 17 2 29 8 28 15
-2 8 4 10 14 6 10 -4 14 -2 10 4 -4 6 -2 24 3 39 6 15 8 35 4 43 -4 9 -8 21
-9 26 0 6 -6 9 -13 8 -6 -2 -9 3 -6 11 3 8 0 17 -7 22 -8 5 -10 3 -4 -5 8 -14
-46 18 -56 33 -4 5 -11 6 -17 2 -5 -3 -12 1 -16 9 -3 8 -11 15 -18 15 -9 0 -8
-3 2 -10 12 -8 9 -10 -13 -10 -19 0 -26 4 -21 12 4 7 3 8 -4 4 -7 -4 -26 0
-44 8 -39 18 -91 28 -83 16z"/>
<path d="M1306 235 c-3 -9 -6 -22 -5 -28 0 -7 5 -1 10 12 5 13 8 26 5 28 -2 2
-6 -3 -10 -12z"/>
<path d="M581 233 c-1 -6 -4 -20 -7 -30 -5 -17 -5 -17 6 0 6 10 9 23 6 30 -3
9 -5 9 -5 0z"/>
<path d="M1266 222 c-7 -12 4 -52 15 -52 12 0 12 47 0 55 -5 3 -12 2 -15 -3z"/>
<path d="M1332 175 c0 -80 14 -194 18 -145 2 33 3 33 10 10 6 -19 7 -14 6 22
-1 31 -5 48 -13 48 -15 0 -17 17 -3 22 5 2 4 23 -4 53 l-14 50 0 -60z"/>
<path d="M118 213 c7 -3 16 -2 19 1 4 3 -2 6 -13 5 -11 0 -14 -3 -6 -6z"/>
<path d="M942 158 c-7 -7 -12 -18 -12 -26 0 -8 -8 -21 -17 -29 -14 -12 -15
-14 -2 -10 12 4 15 -2 12 -30 -3 -46 -8 -50 -33 -28 -16 15 -20 15 -15 3 9
-22 52 -41 59 -25 3 9 5 9 5 0 1 -7 13 -13 29 -13 l27 0 -25 13 c-14 7 -26 23
-28 37 -3 20 -1 23 9 13 18 -18 39 -16 39 3 0 8 -4 13 -9 10 -5 -4 -16 -3 -25
0 -16 6 -17 31 -1 67 9 22 2 30 -13 15z"/>
<path d="M178 142 c7 -5 10 -17 7 -28 -6 -17 -6 -18 5 -1 12 19 6 37 -13 37
-9 0 -8 -3 1 -8z"/>
<path d="M628 95 c-14 -75 -11 -93 17 -91 29 1 30 4 11 32 -8 11 -16 38 -18
60 l-3 39 -7 -40z"/>
<path d="M1030 101 c0 -16 -4 -41 -10 -55 -7 -19 -6 -26 3 -26 6 0 13 14 14
32 1 17 8 35 15 40 10 6 10 8 -1 8 -7 0 -11 6 -7 15 3 8 1 15 -4 15 -6 0 -10
-13 -10 -29z"/>
<path d="M562 70 c0 -19 2 -27 5 -17 2 9 2 25 0 35 -3 9 -5 1 -5 -18z"/>
<path d="M590 52 c0 -29 4 -52 9 -52 8 0 3 90 -5 99 -2 2 -4 -19 -4 -47z"/>
<path d="M875 90 c-3 -5 -1 -10 4 -10 6 0 11 5 11 10 0 6 -2 10 -4 10 -3 0 -8
-4 -11 -10z"/>
<path d="M690 77 c0 -12 11 -23 30 -30 17 -6 30 -15 30 -19 0 -4 5 -8 10 -8 7
0 7 7 0 21 -6 11 -17 18 -23 16 -6 -2 -19 6 -29 17 -16 19 -17 20 -18 3z"/>
<path d="M4 39 c-8 -13 -8 -13 44 -26 42 -10 48 -8 34 13 -10 15 -70 25 -78
13z"/>
<path d="M2448 23 c6 -2 18 -2 25 0 6 3 1 5 -13 5 -14 0 -19 -2 -12 -5z"/>
</g>
</svg>
