<?xml version="1.0" standalone="no"?>
<!DOCTYPE svg PUBLIC "-//W3C//DTD SVG 20010904//EN"
 "http://www.w3.org/TR/2001/REC-SVG-20010904/DTD/svg10.dtd">
<svg version="1.0" xmlns="http://www.w3.org/2000/svg"
 width="375.000000pt" height="375.000000pt" viewBox="0 0 375.000000 375.000000"
 preserveAspectRatio="xMidYMid meet">
<g transform="translate(0.000000,375.000000) scale(0.100000,-0.100000)"
fill="#000000" stroke="none">
<path d="M1490 3561 c-106 -23 -221 -70 -300 -124 -133 -89 -272 -245 -347
-389 -46 -89 -83 -211 -76 -253 4 -23 0 -43 -11 -60 -14 -21 -16 -56 -14 -247
2 -250 5 -265 92 -453 47 -99 53 -106 135 -150 40 -21 62 -41 78 -70 12 -22
22 -45 22 -51 1 -12 -89 -49 -234 -95 -55 -17 -117 -40 -137 -50 -43 -22 -222
-145 -287 -198 -62 -50 -128 -144 -147 -207 l-15 -53 -53 0 c-77 1 -149 -40
-182 -103 -19 -36 -18 -53 2 -33 12 12 19 13 30 4 8 -6 15 -9 15 -5 1 3 3 11
4 16 1 6 3 15 4 20 0 6 8 10 16 10 8 0 15 9 15 19 0 26 19 37 33 21 7 -7 8
-10 2 -7 -5 3 -11 -7 -12 -21 -1 -25 0 -26 13 -8 7 10 15 23 16 28 5 14 73 26
90 17 12 -7 21 3 39 44 12 28 22 56 20 61 -1 5 2 12 6 15 4 3 15 20 24 36 9
17 21 29 27 28 6 -2 9 4 6 12 -5 11 -2 13 12 8 13 -5 16 -3 11 10 -4 11 -2 14
8 11 14 -6 27 -34 30 -66 3 -32 15 -32 15 0 0 17 -5 34 -10 37 -6 3 -10 15
-10 26 0 11 -4 18 -9 15 -8 -5 -8 2 -2 33 1 2 7 -1 14 -7 9 -8 20 -7 40 3 40
21 73 45 61 45 -6 0 -23 -9 -37 -20 -27 -21 -41 -26 -35 -11 6 16 107 91 123
91 8 0 15 5 15 11 0 5 5 7 11 3 6 -3 24 10 41 30 22 27 37 36 59 36 17 0 28 4
24 10 -9 15 83 49 190 69 40 7 84 28 96 45 4 5 12 5 18 2 6 -4 22 4 35 17 14
14 27 23 30 20 17 -17 103 47 90 68 -4 8 -3 9 4 5 8 -5 12 4 12 28 0 34 -1 35
-20 24 -11 -7 -20 -16 -20 -21 0 -4 -4 -6 -8 -3 -5 3 -7 -7 -4 -23 3 -22 -2
-29 -23 -39 -33 -15 -35 -15 -35 3 0 8 5 15 11 15 7 0 8 14 4 41 -5 31 -4 40
7 38 7 -2 28 1 46 5 31 7 32 9 15 22 -21 16 -37 18 -28 4 3 -5 2 -10 -4 -10
-5 0 -12 4 -16 10 -3 5 -12 7 -20 4 -8 -4 -13 -9 -10 -13 2 -4 -9 -8 -25 -8
-17 0 -30 4 -30 9 0 5 -5 6 -10 3 -5 -3 -10 -2 -10 3 0 6 -17 17 -37 25 -39
16 -50 26 -93 86 -38 54 -58 99 -90 198 -49 156 -17 219 48 92 38 -74 37 -67
-9 56 -19 50 -39 96 -46 103 -7 7 -13 19 -13 25 0 7 4 6 10 -3 7 -10 10 -11
11 -2 2 17 4 23 16 62 23 70 25 117 8 154 -20 43 -16 71 10 71 16 0 21 -8 23
-35 1 -19 12 -63 24 -96 l21 -62 -34 -31 c-19 -17 -39 -31 -45 -31 -7 0 -7
-13 0 -45 10 -42 11 -43 28 -28 10 9 20 14 22 12 3 -3 29 -65 60 -139 30 -74
61 -151 70 -170 28 -63 17 -15 -20 86 -31 86 -52 155 -71 230 -3 14 5 32 26
55 35 37 47 33 68 -24 8 -23 12 -26 12 -12 1 11 -8 37 -19 58 -12 22 -18 47
-15 58 9 27 25 14 25 -20 0 -15 6 -35 13 -46 13 -17 14 -17 20 4 3 11 2 23 -3
26 -4 3 -11 17 -14 31 -4 15 -14 33 -21 41 -8 8 -15 26 -16 41 l0 27 -10 -24
c-7 -17 -6 -27 2 -32 9 -5 6 -19 -9 -50 -20 -41 -62 -81 -62 -60 0 6 5 13 11
16 6 4 8 13 5 21 -3 8 -1 14 5 14 6 0 7 4 4 10 -3 6 1 7 9 4 9 -3 16 -1 16 5
0 6 -4 11 -9 11 -5 0 -16 17 -25 38 -9 20 -22 45 -27 56 -8 14 -8 16 2 10 9
-5 10 -2 6 10 -4 10 -7 22 -7 27 0 5 -6 9 -13 9 -8 0 -19 11 -25 25 -10 23
-23 30 -44 26 -12 -2 -10 27 3 52 9 15 9 22 1 25 -6 2 -8 10 -5 18 5 13 7 13
14 2 6 -9 9 -4 9 15 0 15 4 27 8 27 9 0 12 15 13 57 1 15 6 20 17 16 11 -5 14
-2 9 9 -7 21 48 108 68 108 9 0 13 5 9 11 -7 11 30 68 53 82 7 4 13 12 13 17
0 6 9 19 20 30 11 11 20 17 20 14 0 -3 12 8 26 25 14 17 32 31 40 31 9 0 12 5
8 12 -5 8 -2 9 10 5 9 -4 15 -3 12 2 -3 4 3 16 14 26 11 10 20 14 20 9 0 -5 4
-4 8 3 13 20 126 84 140 78 7 -2 11 -1 7 4 -3 5 25 19 62 31 84 28 270 38 356
20 31 -6 58 -11 59 -10 9 3 128 -44 178 -71 64 -34 143 -98 123 -99 -7 0 -13
4 -13 8 0 5 -11 14 -25 20 -20 9 -23 9 -19 -3 3 -8 9 -14 12 -12 15 4 63 -37
58 -49 -7 -19 -1 -17 20 4 16 15 17 15 12 0 -4 -9 -2 -18 4 -20 13 -5 2 -28
-13 -28 -5 0 -24 15 -41 33 -18 17 -35 32 -38 32 -4 0 -14 8 -24 18 -10 9 -22
17 -27 17 -5 0 -9 5 -9 11 0 6 6 9 14 6 8 -3 17 1 20 9 3 9 1 12 -4 9 -6 -3
-10 -1 -10 4 0 6 -5 11 -12 11 -6 0 -34 11 -62 24 -123 58 -307 71 -449 32
-162 -44 -347 -171 -470 -322 -61 -74 -67 -83 -125 -193 -27 -52 -29 -60 -12
-49 11 7 20 18 20 25 0 6 6 18 13 25 7 7 19 33 27 57 10 30 34 64 73 103 58
58 77 69 77 46 -1 -21 -49 -70 -62 -62 -7 4 -8 3 -4 -5 4 -7 13 -10 19 -8 6 2
20 -5 31 -15 23 -21 35 -16 13 6 -12 13 -13 20 -4 40 7 13 15 22 19 20 11 -7
10 4 -2 27 -9 16 -7 19 15 19 14 0 25 5 25 11 0 14 25 39 39 39 6 0 11 6 11
13 0 17 67 77 85 77 8 0 22 -11 33 -25 11 -14 23 -25 28 -25 4 0 -5 13 -21 30
-16 16 -27 31 -24 33 2 1 12 9 23 17 16 13 21 11 46 -20 16 -19 31 -32 35 -28
4 4 -8 20 -27 37 l-33 29 45 20 c25 11 65 23 88 27 23 4 44 11 48 16 3 5 13 5
24 -1 12 -6 28 -7 44 0 14 5 28 6 30 1 3 -4 33 -11 67 -15 35 -3 72 -12 83
-19 17 -11 25 -11 46 0 46 23 75 16 124 -32 26 -25 59 -51 74 -59 15 -8 42
-30 60 -50 20 -22 42 -36 56 -36 13 0 30 -7 37 -16 11 -14 10 -18 -10 -33
l-22 -17 20 -18 c11 -10 37 -44 58 -74 21 -31 49 -68 63 -82 14 -14 32 -36 39
-50 7 -14 24 -38 38 -55 22 -26 23 -27 13 -5 -7 14 -22 35 -33 48 -20 21 -20
22 -1 22 28 -1 55 -25 48 -43 -3 -8 6 -38 20 -66 15 -28 36 -76 47 -106 12
-31 23 -55 24 -53 5 5 -14 87 -26 113 -46 103 -27 95 22 -9 42 -90 54 -160 22
-135 -15 12 -16 12 -10 -4 4 -10 7 -23 7 -29 0 -6 7 -8 15 -4 19 7 19 8 -5
-42 -11 -22 -20 -53 -20 -67 0 -14 -4 -25 -9 -25 -5 0 -11 -9 -14 -20 -3 -12
-1 -18 5 -14 5 4 5 -3 -2 -16 -11 -21 -72 -63 -87 -60 -4 1 -11 -9 -16 -22
-14 -37 -24 -5 -31 96 -4 49 -10 94 -15 100 -5 6 -8 62 -7 124 1 80 -2 112
-11 112 -6 0 -13 8 -16 18 -2 9 -2 -31 1 -89 l5 -105 -38 -32 c-50 -41 -163
-82 -225 -82 -46 0 -51 3 -87 45 -46 55 -83 122 -83 150 1 21 42 75 58 75 5 0
21 9 36 21 14 11 65 34 114 51 98 34 125 50 66 41 -61 -9 -209 -71 -256 -107
-10 -7 -22 -36 -27 -67 l-9 -54 -1 48 c0 26 -3 47 -4 47 -2 0 -18 -7 -35 -16
-28 -13 -31 -18 -21 -36 17 -32 -11 -44 -31 -12 -9 13 -19 21 -23 18 -3 -3 1
-17 10 -30 9 -14 14 -26 12 -29 -8 -7 -24 9 -36 37 -11 24 -15 26 -55 21 -24
-3 -54 -11 -68 -18 -14 -7 -41 -16 -60 -20 -82 -17 -220 -83 -220 -105 0 -12
-2 -12 -9 -2 -7 11 -10 10 -15 -3 -9 -25 -7 -78 4 -95 7 -11 9 -7 5 15 -6 34
2 46 65 96 43 35 142 74 205 81 17 1 33 7 36 11 3 5 23 4 43 -2 21 -5 43 -8
51 -5 19 8 35 -49 35 -124 0 -93 -17 -139 -59 -168 -50 -33 -145 -64 -216 -71
-54 -5 -62 -3 -81 18 -12 13 -30 40 -41 60 -10 19 -24 34 -31 31 -7 -2 -12 1
-12 6 0 6 -16 28 -36 49 -20 21 -42 49 -49 63 l-13 25 -11 -28 c-21 -54 -15
-67 29 -67 35 0 42 -4 60 -37 58 -105 76 -128 116 -141 33 -11 49 -11 109 3
102 25 195 64 221 94 28 32 44 100 44 189 0 73 10 92 47 92 16 0 37 -20 77
-75 58 -78 95 -105 145 -105 63 0 224 72 252 113 15 21 31 -107 31 -236 0
-111 -22 -177 -98 -297 -22 -36 -51 -82 -63 -102 -24 -41 -62 -71 -101 -82
-14 -4 -41 -15 -60 -24 -91 -41 -307 -17 -493 55 -76 30 -103 56 -148 144 -34
68 -129 297 -129 311 0 15 -37 58 -44 51 -16 -16 9 -93 30 -93 13 0 34 -65 34
-104 0 -14 4 -26 10 -26 5 0 12 -11 16 -25 3 -14 11 -25 16 -25 6 0 4 -8 -3
-17 -12 -15 -12 -16 3 -10 11 4 15 2 12 -6 -5 -15 19 -65 64 -129 41 -60 100
-101 177 -123 33 -9 74 -20 90 -25 17 -5 71 -16 120 -26 119 -22 200 -15 288
25 38 17 70 31 72 31 2 0 -3 -12 -11 -27 -7 -16 -14 -35 -14 -44 0 -8 -5 -20
-11 -26 -5 -5 -11 -26 -12 -46 -1 -19 -5 -33 -8 -31 -5 3 -88 -164 -124 -250
l-15 -36 -84 0 c-74 0 -149 9 -211 26 -20 5 -20 5 -1 -10 11 -9 28 -16 38 -16
10 0 18 -4 18 -9 0 -7 83 -14 175 -14 54 0 85 16 85 44 0 11 7 19 16 19 10 0
14 5 10 16 -3 8 -2 12 4 9 6 -3 10 1 10 11 0 9 9 35 19 58 11 23 28 62 38 88
23 62 35 62 17 1 -8 -25 -12 -49 -9 -51 3 -3 5 1 5 9 0 11 2 11 8 2 5 -8 8 1
9 21 1 19 5 40 9 47 4 7 9 22 10 33 6 46 25 142 31 156 3 8 6 18 5 21 -1 3 15
21 33 39 19 19 35 40 35 48 0 7 5 10 10 7 6 -3 10 3 10 14 0 11 5 23 10 26 6
4 18 24 26 46 9 21 20 36 25 33 5 -3 9 -2 8 3 -4 21 2 34 13 27 7 -5 9 -2 5 8
-3 9 -2 19 3 24 8 9 45 130 53 174 3 18 5 15 6 -12 0 -20 6 -40 12 -44 8 -5 8
-8 0 -13 -8 -5 -7 -16 4 -39 18 -36 23 -56 30 -132 6 -59 22 -117 38 -137 6
-9 6 -13 -2 -13 -7 0 -8 -6 -2 -17 33 -66 61 -152 54 -169 -3 -8 -1 -14 5 -14
6 0 13 6 15 13 3 6 6 -2 6 -18 1 -17 10 -38 20 -47 36 -30 68 -48 74 -41 4 3
7 2 7 -4 0 -6 12 -14 28 -18 32 -8 407 -192 425 -209 20 -19 118 -76 130 -76
8 0 8 -3 0 -11 -8 -8 -17 -8 -31 0 -24 13 -42 14 -42 3 0 -4 8 -9 18 -10 68
-7 84 -11 104 -28 12 -10 31 -27 42 -37 11 -9 28 -17 38 -17 10 0 18 -4 18
-10 0 -5 7 -10 15 -10 8 0 15 -6 15 -14 0 -8 18 -27 40 -43 37 -26 97 -122 92
-146 -2 -5 2 -6 8 -2 5 3 18 1 27 -4 10 -6 14 -11 9 -11 -6 0 -1 -6 10 -14 13
-10 23 -11 32 -4 15 13 12 17 52 -60 18 -34 39 -62 46 -62 8 0 14 -5 14 -10 0
-6 6 -5 14 2 12 11 11 19 -11 58 -31 57 -98 120 -136 127 -24 5 -34 16 -52 57
-24 55 -119 152 -178 183 -18 9 -52 33 -77 53 -89 74 -384 238 -530 296 -36
14 -89 37 -119 52 -52 26 -55 30 -88 112 -19 47 -39 110 -44 140 -6 30 -14 59
-18 65 -5 5 -12 30 -16 55 -7 45 -48 223 -61 262 -4 14 -2 18 5 14 6 -4 11 -2
11 3 0 6 -7 11 -15 11 -8 0 -15 7 -15 15 0 8 7 15 15 15 26 0 94 39 109 63 26
38 69 237 63 287 -8 62 -39 131 -82 178 -19 22 -55 82 -78 134 -65 142 -86
178 -122 212 -18 17 -35 43 -39 57 -14 63 -162 188 -288 243 -132 58 -336 79
-478 47z m353 -95 c5 -12 -3 -14 -36 -10 -23 3 -58 9 -77 13 -30 8 -25 9 36
10 54 1 73 -3 77 -13z m447 -331 c0 -5 11 -23 25 -39 13 -16 22 -33 18 -39 -3
-5 2 -16 12 -24 11 -7 15 -13 11 -13 -16 0 -66 42 -66 56 0 8 -5 14 -11 14 -6
0 -9 5 -7 12 3 7 -7 22 -20 33 -33 28 -21 52 13 28 14 -10 25 -22 25 -28z
m-1060 -644 c0 -5 -6 -14 -14 -20 -12 -10 -13 -8 -9 8 5 21 23 30 23 12z"/>
<path d="M1859 3382 c14 -27 31 -37 31 -20 1 7 6 4 13 -8 7 -12 17 -19 23 -17
6 2 15 -4 18 -14 4 -10 2 -19 -3 -21 -6 -2 -11 -8 -11 -13 0 -6 10 -3 22 5 30
21 52 21 44 0 -5 -13 -2 -15 14 -11 11 3 23 0 27 -5 4 -7 1 -8 -8 -3 -8 4 3
-8 25 -28 21 -20 42 -34 47 -31 5 3 6 -2 3 -10 -4 -10 5 -20 25 -31 17 -8 31
-11 31 -6 0 17 -115 125 -166 156 -16 10 -45 28 -64 41 -19 12 -46 25 -58 29
-21 6 -23 5 -13 -13z"/>
<path d="M1456 3375 c4 -8 15 -15 27 -15 23 0 22 2 -10 19 -19 10 -22 9 -17
-4z"/>
<path d="M1700 3371 c15 -30 30 -35 17 -6 -7 14 -16 25 -20 25 -4 0 -3 -9 3
-19z"/>
<path d="M1559 3360 l-24 -19 32 11 c38 14 52 6 32 -19 -13 -17 -13 -17 5 -3
15 12 20 12 24 2 2 -7 11 -19 19 -27 8 -9 12 -22 9 -30 -3 -8 3 -16 14 -20 11
-4 23 -17 26 -31 3 -13 11 -24 16 -24 6 0 4 -8 -3 -17 -8 -10 -9 -14 -2 -10 6
4 14 3 18 -3 3 -5 0 -10 -7 -10 -8 0 -6 -5 5 -11 10 -6 21 -8 24 -5 4 3 1 6
-5 6 -6 0 -9 7 -6 15 4 8 2 15 -3 15 -5 0 -9 9 -10 19 -2 28 -33 72 -46 64 -6
-3 -7 -1 -3 6 11 17 -61 109 -85 111 -4 0 -17 -9 -30 -20z"/>
<path d="M1510 3339 c0 -8 7 -24 15 -35 18 -24 19 -7 0 26 -9 16 -14 19 -15 9z"/>
<path d="M1830 3330 c0 -17 17 -47 23 -40 2 3 -2 16 -10 30 -7 14 -13 18 -13
10z"/>
<path d="M1456 3322 c-3 -5 4 -18 16 -28 21 -19 21 -19 8 6 -17 33 -17 33 -24
22z"/>
<path d="M1280 3294 c1 -16 29 -46 40 -42 6 2 0 14 -14 27 -14 14 -26 20 -26
15z"/>
<path d="M1395 3290 c-7 -12 -8 -11 27 -14 21 -1 24 1 16 11 -13 15 -34 17
-43 3z"/>
<path d="M1802 3291 c-11 -7 -11 -9 1 -14 9 -3 18 1 21 9 6 16 -2 18 -22 5z"/>
<path d="M1540 3272 c0 -5 7 -16 16 -23 14 -12 16 -11 13 5 -4 20 -29 35 -29
18z"/>
<path d="M1504 3243 c21 -40 45 -70 46 -57 0 6 -6 17 -14 23 -8 7 -17 23 -20
36 -4 14 -11 25 -16 25 -6 0 -4 -12 4 -27z"/>
<path d="M1246 3225 c3 -7 12 -16 19 -19 9 -3 12 0 9 9 -3 7 -12 16 -19 19 -9
3 -12 0 -9 -9z"/>
<path d="M1318 3225 c-5 -5 64 -119 90 -150 4 -5 11 -18 15 -27 3 -10 11 -18
17 -18 13 0 7 12 -31 61 -16 20 -33 47 -39 60 -25 55 -44 82 -52 74z"/>
<path d="M1580 3211 c11 -22 30 -37 30 -24 -1 11 -26 43 -34 43 -4 0 -2 -9 4
-19z"/>
<path d="M1851 3186 c-7 -9 -1 -11 24 -8 41 5 44 8 10 14 -14 3 -29 0 -34 -6z"/>
<path d="M1270 3183 c0 -10 31 -54 56 -80 7 -7 14 -18 17 -25 2 -7 7 -11 10
-8 3 3 -14 32 -39 64 -24 33 -44 55 -44 49z"/>
<path d="M1221 3158 c14 -12 14 -15 -3 -32 -10 -11 -16 -22 -13 -24 3 -3 11 2
18 12 16 23 39 13 62 -27 10 -18 24 -38 31 -44 7 -7 14 -18 17 -25 2 -7 8 -10
12 -6 5 5 1 16 -8 26 -10 10 -17 22 -17 26 0 4 -15 26 -32 49 -18 23 -33 43
-33 43 0 1 -11 5 -25 8 -22 6 -23 5 -9 -6z"/>
<path d="M1548 3152 c-4 -12 1 -18 13 -18 14 0 15 4 8 18 -5 10 -11 18 -13 18
-2 0 -6 -8 -8 -18z"/>
<path d="M1680 3162 c0 -7 -7 -12 -16 -12 -8 0 -12 -5 -8 -11 4 -7 11 -6 22 5
9 8 13 19 9 22 -4 4 -7 2 -7 -4z"/>
<path d="M1675 3118 l-20 -21 22 12 c23 12 40 31 26 30 -4 0 -17 -10 -28 -21z"/>
<path d="M1436 3121 c-10 -15 35 -56 62 -57 15 -1 21 0 14 3 -6 3 -10 9 -6 14
3 5 1 9 -5 9 -5 0 -12 -6 -15 -12 -5 -10 -7 -10 -12 0 -3 7 -12 18 -19 26 -8
7 -11 16 -8 20 4 3 4 6 0 6 -3 0 -8 -4 -11 -9z"/>
<path d="M1886 3122 c-9 -15 9 -31 24 -22 13 8 12 10 -3 10 -10 0 -15 5 -12
10 3 6 4 10 1 10 -3 0 -7 -4 -10 -8z"/>
<path d="M1526 3104 c-3 -8 -2 -12 3 -9 6 3 18 -8 27 -25 18 -30 34 -39 34
-20 0 6 -4 10 -9 10 -5 0 -14 14 -21 30 -14 33 -25 38 -34 14z"/>
<path d="M2010 3110 c-21 -7 -21 -8 -5 -9 11 0 27 4 35 9 18 11 5 11 -30 0z"/>
<path d="M2037 3093 c-2 -5 -2 -18 -1 -30 2 -28 -12 -30 -21 -4 -4 15 -16 19
-68 20 -34 1 -70 4 -80 7 -10 3 -19 -1 -23 -9 -3 -9 -17 -18 -30 -21 -17 -5
-31 -19 -40 -42 -8 -20 -13 -38 -10 -41 2 -2 7 5 11 16 10 34 24 24 15 -10
-11 -37 -29 -61 -41 -53 -5 3 -6 -2 -3 -10 4 -11 0 -16 -14 -16 -11 0 -25 -7
-32 -15 -15 -18 1 -20 19 -2 11 10 11 8 2 -10 -6 -13 -15 -22 -19 -22 -21 3
-43 -2 -38 -9 6 -10 -47 -52 -64 -52 -5 0 -10 -5 -10 -11 0 -6 -9 -8 -22 -4
-22 7 -22 6 -4 -7 18 -14 18 -15 -8 -22 -15 -4 -32 -4 -38 0 -6 4 -8 3 -5 -3
4 -6 0 -13 -8 -17 -8 -3 -15 -1 -15 4 0 18 -18 10 -23 -10 -3 -11 -12 -20 -20
-20 -9 0 -37 -11 -64 -24 -48 -25 -72 -18 -37 10 18 14 18 15 -1 12 -11 -2
-24 -13 -30 -26 -5 -12 -17 -25 -27 -27 -9 -3 -28 -22 -43 -41 -21 -27 -30
-33 -36 -23 -6 10 -9 10 -9 2 0 -7 -7 -10 -17 -7 -15 5 -16 4 -3 -5 10 -7 11
-11 3 -11 -7 0 -13 -5 -13 -12 0 -6 9 -3 20 7 12 11 20 13 20 6 0 -13 74 21
105 50 11 10 59 34 105 53 47 19 99 41 115 50 17 9 35 16 41 16 17 0 136 93
172 135 30 33 82 130 96 178 6 20 72 25 78 6 2 -6 22 -13 43 -15 52 -3 102
-26 145 -65 32 -29 33 -31 10 -25 -68 20 -175 -4 -226 -51 -27 -24 -27 -26 -9
-39 16 -12 21 -12 36 1 23 22 115 56 174 65 38 6 54 4 67 -7 10 -9 25 -12 39
-8 21 7 21 8 -10 21 -23 10 -31 19 -27 29 3 9 2 14 -3 10 -15 -9 -43 7 -37 21
3 7 -4 23 -14 36 -11 13 -19 17 -20 11 0 -7 5 -13 11 -13 5 0 8 -4 4 -9 -10
-18 -53 37 -51 64 3 23 -8 35 -17 18z"/>
<path d="M1083 3076 c4 -11 1 -13 -11 -8 -16 6 -16 4 -1 -18 9 -13 22 -26 30
-28 8 -2 5 3 -6 12 -17 13 -17 15 -3 16 11 0 15 6 11 20 -3 11 -10 20 -15 20
-6 0 -8 -7 -5 -14z"/>
<path d="M2138 3050 c-4 -24 -2 -27 9 -19 15 13 18 49 4 49 -5 0 -11 -13 -13
-30z"/>
<path d="M1220 3047 c0 -19 37 -51 44 -39 3 6 16 8 28 4 20 -5 20 -4 7 10 -8
10 -18 13 -23 7 -17 -16 -36 -10 -36 11 0 11 -4 20 -10 20 -5 0 -10 -6 -10
-13z"/>
<path d="M1703 3044 c-7 -7 -13 -17 -13 -23 0 -5 -6 -11 -12 -14 -7 -3 -3 -4
10 -4 12 1 25 9 28 20 4 13 11 16 27 11 25 -7 21 -2 -8 14 -15 7 -23 6 -32 -4z"/>
<path d="M1045 3030 c-3 -5 -3 -21 1 -36 6 -23 4 -26 -11 -20 -15 5 -16 4 -5
-9 10 -13 10 -18 -3 -33 -9 -9 -14 -30 -13 -45 2 -15 -3 -35 -10 -44 -17 -22
-18 -37 -2 -27 8 5 9 2 5 -10 -4 -10 -7 -20 -7 -22 0 -3 -4 -3 -9 0 -5 4 -7
-4 -3 -16 3 -13 1 -19 -5 -15 -6 4 -8 -3 -5 -18 6 -36 17 -39 20 -5 1 15 9 46
16 68 8 22 12 43 9 46 -3 3 0 12 7 21 7 8 10 21 7 30 -4 8 -2 17 3 20 6 4 10
18 10 32 0 18 4 24 15 19 20 -7 19 8 -1 25 -8 7 -13 21 -11 31 6 20 2 24 -8 8z"/>
<path d="M1180 3034 c0 -17 37 -60 45 -53 3 4 -5 20 -19 35 -14 16 -26 24 -26
18z"/>
<path d="M1112 2976 c-15 -34 -15 -36 2 -36 7 0 24 -20 37 -44 15 -28 29 -44
41 -43 16 1 15 4 -4 37 -12 19 -25 37 -29 40 -4 3 -13 20 -21 39 l-14 34 -12
-27z"/>
<path d="M1351 2983 c8 -10 22 -24 32 -32 10 -7 16 -19 13 -26 -3 -9 2 -11 15
-8 19 5 19 6 1 22 -11 9 -24 26 -31 39 -6 12 -19 22 -28 22 -13 0 -14 -2 -2
-17z"/>
<path d="M1196 2929 c19 -28 34 -56 34 -62 0 -6 3 -8 6 -5 9 10 -53 118 -69
118 -3 0 10 -23 29 -51z"/>
<path d="M1230 2955 c0 -8 4 -15 9 -15 5 0 13 -9 16 -21 4 -11 9 -18 12 -16 5
6 -25 67 -32 67 -3 0 -5 -7 -5 -15z"/>
<path d="M1321 2965 c0 -5 6 -18 14 -28 10 -15 18 -17 32 -8 17 10 17 10 -1
11 -10 0 -25 8 -32 18 -7 9 -13 13 -13 7z"/>
<path d="M1455 2960 c-8 -13 21 -48 31 -38 3 4 -1 16 -9 28 -10 15 -17 18 -22
10z"/>
<path d="M1570 2950 c-12 -8 -11 -10 7 -10 12 0 25 5 28 10 8 13 -15 13 -35 0z"/>
<path d="M1616 2945 c-3 -8 -17 -20 -31 -25 -14 -5 -25 -17 -25 -26 0 -14 2
-15 18 -3 22 18 62 59 62 65 0 11 -18 2 -24 -11z"/>
<path d="M2239 2958 c-10 -33 1 -52 16 -28 3 6 1 10 -5 10 -6 0 -8 5 -5 10 3
6 4 10 1 10 -3 0 -6 -1 -7 -2z"/>
<path d="M1648 2915 c-10 -13 -18 -27 -18 -30 0 -12 49 30 50 43 0 19 -13 14
-32 -13z"/>
<path d="M1516 2915 c-3 -8 -2 -15 3 -15 5 0 14 7 21 15 10 12 10 15 -3 15 -8
0 -17 -7 -21 -15z"/>
<path d="M1085 2900 c4 -14 7 -31 7 -37 1 -7 5 -13 10 -13 11 0 10 2 -8 41
-10 23 -13 26 -9 9z"/>
<path d="M2297 2900 c10 -12 21 -16 26 -11 13 13 -1 31 -23 31 -19 0 -19 -1
-3 -20z"/>
<path d="M1356 2894 c-5 -13 -9 -14 -21 -4 -28 23 -23 6 6 -22 16 -15 31 -23
34 -17 4 5 1 9 -5 9 -6 0 -8 10 -4 25 7 28 0 34 -10 9z"/>
<path d="M2321 2872 c-7 -13 -7 -19 2 -19 7 0 19 -3 27 -5 8 -3 12 -3 8 -1 -5
3 -8 11 -8 18 0 23 -18 27 -29 7z"/>
<path d="M1290 2870 c0 -6 -4 -8 -10 -5 -16 10 -11 -1 7 -16 9 -8 14 -9 10 -2
-4 6 -2 13 5 15 9 3 9 6 0 12 -7 4 -12 2 -12 -4z"/>
<path d="M2174 2823 c8 -21 30 -73 50 -117 20 -43 36 -85 36 -93 0 -13 3 -13
15 -3 9 8 15 30 15 56 0 37 -3 44 -20 44 -16 0 -19 5 -14 29 4 16 1 32 -5 35
-6 4 -9 1 -8 -6 2 -7 2 -10 0 -5 -3 4 -9 5 -14 2 -5 -4 -6 2 -2 11 4 12 3 15
-5 10 -8 -5 -10 -2 -6 8 3 9 1 16 -5 16 -6 0 -8 7 -5 15 4 8 15 15 26 15 17 0
18 -2 8 -15 -10 -13 -11 -18 -1 -28 10 -9 11 -8 6 6 -4 9 -3 17 3 17 6 0 12
-6 15 -12 2 -7 2 -2 0 12 -6 32 -19 40 -65 40 l-37 0 13 -37z"/>
<path d="M1316 2834 c-8 -22 -8 -22 14 -34 14 -7 20 -7 20 0 0 5 -7 10 -16 10
-11 0 -14 6 -9 20 7 24 0 27 -9 4z"/>
<path d="M1216 2824 c-4 -10 -4 -15 0 -12 3 4 15 -3 24 -15 10 -12 21 -20 23
-17 3 3 -5 18 -17 33 -21 26 -24 27 -30 11z"/>
<path d="M1583 2818 c-13 -6 -23 -15 -23 -20 0 -10 36 7 45 22 7 12 7 12 -22
-2z"/>
<path d="M1037 2800 c-3 -11 -2 -20 2 -20 4 0 13 -12 20 -27 10 -21 9 -28 -1
-34 -9 -6 -6 -9 10 -9 27 0 27 12 5 67 -20 48 -28 53 -36 23z"/>
<path d="M1996 2766 c-50 -34 -77 -66 -56 -66 6 0 13 7 17 16 5 14 8 13 23 -6
15 -19 21 -21 46 -13 25 9 29 15 28 47 -1 41 15 47 46 16 24 -24 50 -26 50 -4
0 25 -30 43 -70 43 -23 0 -51 -11 -84 -33z"/>
<path d="M1395 2753 l-17 -28 23 22 c12 12 20 25 17 28 -3 3 -13 -7 -23 -22z"/>
<path d="M1180 2755 c0 -12 53 -54 61 -49 5 3 9 7 9 10 0 3 -4 2 -10 -1 -5 -3
-10 1 -10 9 0 9 -6 15 -12 14 -7 -2 -12 3 -10 10 1 6 -5 12 -13 12 -8 0 -15
-2 -15 -5z"/>
<path d="M2079 2678 c-16 -14 -18 -19 -6 -15 23 9 44 15 35 10 -15 -8 -8 -22
7 -17 19 8 20 44 2 44 -8 0 -25 -10 -38 -22z"/>
<path d="M1930 2674 c0 -8 3 -14 8 -14 9 0 39 19 32 21 -3 0 -13 2 -22 4 -10
2 -18 -3 -18 -11z"/>
<path d="M1212 2661 c-10 -6 -9 -10 7 -14 14 -3 21 0 21 9 0 16 -9 18 -28 5z"/>
<path d="M1106 2653 c-12 -12 -6 -18 19 -18 14 0 25 1 25 2 0 7 -38 21 -44 16z"/>
<path d="M1974 2645 c-18 -14 -18 -16 9 -19 12 -1 37 17 37 28 0 11 -26 6 -46
-9z"/>
<path d="M1556 2613 c-24 -3 -46 -13 -57 -26 -16 -20 -18 -20 -24 -5 -7 17 -9
17 -32 -1 -13 -11 -34 -32 -46 -47 -19 -25 -19 -27 -3 -21 18 7 18 6 1 -19
l-18 -27 32 22 c17 12 31 28 31 34 0 7 5 19 10 27 8 13 12 11 26 -8 13 -19 22
-22 43 -17 32 8 43 23 36 53 -6 25 -1 26 45 11 32 -12 32 -12 10 -24 -21 -11
-21 -12 9 -12 17 0 31 6 31 12 0 12 -43 56 -51 53 -2 -1 -22 -3 -43 -5z"/>
<path d="M1840 2570 c10 -6 11 -10 3 -10 -7 0 -13 -4 -13 -10 0 -5 7 -10 15
-10 8 0 23 -8 33 -18 33 -33 89 -72 103 -72 10 1 8 5 -6 16 -11 8 -43 37 -72
64 -29 28 -58 50 -65 50 -9 0 -9 -3 2 -10z"/>
<path d="M1095 2550 c10 -11 20 -18 23 -16 5 6 -23 36 -34 36 -4 0 1 -9 11
-20z"/>
<path d="M1723 2563 c-15 -5 -17 -39 -4 -48 5 -3 12 -1 16 5 3 5 0 10 -7 10
-10 0 -10 2 1 9 16 10 11 30 -6 24z"/>
<path d="M1580 2512 c0 -15 5 -19 20 -15 12 3 19 6 18 7 -2 1 -11 8 -20 15
-16 12 -18 11 -18 -7z"/>
<path d="M957 2496 c-6 -14 24 -92 52 -136 5 -8 12 -24 16 -34 3 -10 8 -16 11
-13 5 4 -8 62 -23 105 -4 12 2 10 22 -8 27 -25 28 -25 16 -2 -7 13 -23 27 -37
32 -13 5 -24 16 -24 23 0 7 -6 21 -13 31 -13 17 -14 17 -20 2z"/>
<path d="M1041 2484 c-1 -12 6 -28 16 -35 15 -13 15 -12 6 6 -6 11 -13 27 -16
35 -4 10 -6 8 -6 -6z"/>
<path d="M2008 2380 c-24 -3 -44 -14 -59 -33 -14 -19 -28 -27 -40 -24 -11 3
-17 1 -13 -4 8 -13 -13 -11 -36 3 -17 11 -27 9 -63 -11 -44 -24 -67 -22 -67 5
0 8 -5 12 -10 9 -12 -8 -3 -46 14 -57 15 -10 49 1 59 18 6 11 27 14 76 12 66
-3 69 -2 96 31 24 28 30 31 35 16 5 -15 8 -15 29 2 32 26 24 39 -21 33z"/>
<path d="M878 2323 c23 -42 62 -91 62 -78 0 15 -44 111 -53 117 -30 19 -34 5
-9 -39z"/>
<path d="M788 2302 c5 -9 12 -24 15 -32 3 -9 6 -4 6 11 1 15 -6 29 -14 33 -12
4 -13 2 -7 -12z"/>
<path d="M997 2285 c6 -32 11 -41 17 -34 2 2 -2 18 -10 34 l-13 30 6 -30z"/>
<path d="M2110 2245 c-7 -9 -21 -13 -30 -10 -9 3 -23 -1 -30 -10 -7 -8 -20
-15 -29 -14 -12 0 -11 2 4 9 19 8 19 9 -3 9 -13 1 -38 -10 -55 -22 -36 -27
-113 -67 -127 -67 -5 0 -7 7 -4 15 5 11 -8 9 -53 -9 -32 -13 -73 -27 -91 -31
-18 -4 -36 -13 -39 -21 -9 -23 5 -29 25 -11 23 21 36 21 109 2 78 -21 125 -19
197 7 68 24 112 53 121 77 4 12 1 11 -9 -3 -8 -10 -19 -15 -25 -12 -5 4 -12 2
-16 -4 -3 -5 -15 -10 -26 -10 -10 0 -19 -4 -19 -8 0 -15 -47 -31 -71 -25 -19
4 -21 3 -9 -6 12 -9 11 -11 -7 -11 -13 0 -23 5 -23 10 0 7 -8 6 -22 -1 -25
-14 -78 -13 -91 0 -8 8 48 26 67 22 5 -1 12 2 15 8 4 5 18 12 33 15 14 2 41
12 59 22 19 9 56 18 84 20 37 2 54 8 67 24 10 12 21 19 26 16 4 -2 14 0 22 5
13 8 13 10 0 19 -21 14 -36 12 -50 -5z"/>
<path d="M881 2209 c7 -13 12 -29 11 -35 -1 -6 4 -11 12 -11 12 0 13 5 2 30
-6 17 -18 33 -25 35 -11 4 -11 0 0 -19z"/>
<path d="M946 2210 c3 -14 10 -29 15 -34 14 -16 10 6 -7 34 l-15 25 7 -25z"/>
<path d="M1480 1675 c0 -8 4 -15 8 -15 9 0 45 -58 48 -77 1 -7 9 -20 18 -29
18 -17 19 -25 20 -104 1 -42 5 -55 17 -58 14 -3 16 6 14 60 -2 35 -8 76 -14
91 -6 16 -9 32 -6 36 5 8 -86 111 -98 111 -4 0 -7 -7 -7 -15z"/>
<path d="M2035 1503 c-9 -67 -20 -98 -34 -95 -7 1 -9 -2 -6 -8 5 -8 13 -6 26
6 11 9 17 19 15 22 -3 2 -1 15 5 29 15 40 20 81 10 88 -5 3 -13 -16 -16 -42z"/>
<path d="M2690 1542 c0 -4 27 -19 60 -34 33 -14 60 -23 60 -19 0 4 -27 19 -60
34 -33 14 -60 22 -60 19z"/>
<path d="M2670 1475 c0 -8 31 -57 47 -73 7 -7 13 -18 13 -23 0 -5 5 -9 10 -9
6 0 -2 19 -16 42 -28 43 -54 74 -54 63z"/>
<path d="M2864 1458 c-5 -8 -2 -9 9 -5 9 3 19 2 22 -3 4 -6 11 -10 18 -10 11
0 -23 29 -35 30 -4 0 -10 -5 -14 -12z"/>
<path d="M610 1426 c0 -2 17 -21 38 -43 20 -22 52 -59 71 -82 18 -23 36 -40
39 -37 3 3 -7 17 -21 30 -14 13 -29 36 -33 50 -3 14 -10 26 -14 26 -4 0 -10 8
-13 19 -3 14 -67 49 -67 37z"/>
<path d="M2956 1416 c4 -12 74 -51 119 -68 15 -6 16 -5 5 3 -58 38 -128 75
-124 65z"/>
<path d="M567 1354 c-13 -13 -7 -24 14 -24 11 0 19 5 17 12 -5 14 -22 21 -31
12z"/>
<path d="M656 1269 c10 -12 63 -83 139 -185 11 -14 27 -38 35 -52 9 -14 21
-27 28 -28 7 -1 8 0 2 3 -5 2 -7 10 -4 15 5 7 2 8 -5 4 -8 -5 -12 -3 -10 5 3
26 -1 40 -10 35 -5 -4 -19 10 -31 29 -12 20 -27 41 -34 48 -7 6 -31 38 -54 69
-23 31 -47 60 -54 64 -10 6 -10 4 -2 -7z"/>
<path d="M1951 1238 c0 -9 -4 -25 -7 -35 -5 -17 -5 -17 6 0 6 10 9 25 7 35 -4
15 -5 15 -6 0z"/>
<path d="M1540 1174 c0 -22 3 -44 7 -48 4 -4 7 -21 8 -39 1 -29 8 -65 21 -106
2 -8 7 -12 10 -9 7 7 -26 209 -37 228 -6 10 -8 2 -9 -26z"/>
<path d="M670 1185 c0 -8 5 -15 10 -15 6 0 10 -8 10 -18 0 -10 9 -25 20 -35
12 -10 18 -22 15 -28 -4 -5 -1 -8 7 -7 7 2 12 -5 12 -14 -1 -10 3 -16 10 -15
6 1 10 -4 8 -11 -1 -8 1 -11 6 -8 8 5 37 -41 35 -54 -1 -5 26 -33 28 -28 4 13
5 47 1 44 -7 -7 -31 18 -25 27 2 4 -1 7 -7 7 -6 0 -8 5 -5 10 3 6 1 10 -5 10
-6 0 -15 11 -22 25 -6 13 -15 22 -21 18 -5 -3 -8 0 -5 7 2 7 -11 29 -28 49
-18 19 -31 39 -28 43 3 4 0 8 -5 8 -6 0 -11 -7 -11 -15z"/>
<path d="M96 1033 c9 -38 14 -42 14 -10 0 14 -5 29 -10 32 -7 4 -8 -3 -4 -22z"/>
<path d="M1845 980 c4 -14 4 -22 0 -18 -12 11 -41 -79 -54 -161 -16 -100 -13
-98 15 9 14 52 33 112 44 132 17 33 17 38 3 50 -14 11 -15 10 -8 -12z"/>
<path d="M183 976 c5 -16 24 -18 30 -4 3 9 -3 14 -14 14 -11 0 -18 -5 -16 -10z"/>
<path d="M400 984 c0 -3 7 -12 15 -20 16 -17 18 -14 9 10 -6 15 -24 23 -24 10z"/>
<path d="M101 970 c-1 -23 15 -45 23 -31 4 6 3 11 -3 11 -5 0 -12 8 -14 18 -3
12 -5 13 -6 2z"/>
<path d="M838 945 c-3 -4 3 -22 14 -41 24 -41 34 -45 15 -6 -8 15 -16 33 -18
40 -3 7 -7 10 -11 7z"/>
<path d="M2336 905 c-9 -14 -13 -25 -9 -25 10 0 36 40 30 46 -2 3 -12 -7 -21
-21z"/>
<path d="M2203 903 c-23 -9 -14 -23 10 -14 12 5 25 8 29 7 3 0 10 2 14 7 8 8
-34 8 -53 0z"/>
<path d="M2237 869 c-9 -5 -22 -7 -27 -4 -6 3 -10 2 -10 -3 0 -17 -46 -32 -59
-19 -10 9 -12 9 -9 -3 2 -8 -3 -14 -9 -12 -7 1 -13 -3 -13 -9 0 -5 -6 -7 -12
-4 -7 4 -4 -1 7 -10 12 -9 21 -12 23 -5 2 6 13 15 25 22 20 10 21 10 8 -5 -7
-10 -9 -17 -3 -17 5 0 12 6 15 14 3 7 26 22 51 32 25 11 46 22 46 27 0 10 -11
8 -33 -4z"/>
<path d="M2710 789 c0 -5 6 -9 14 -9 8 0 23 -3 33 -6 13 -5 15 -4 7 5 -14 15
-54 23 -54 10z"/>
<path d="M2670 766 c28 -17 50 -21 35 -7 -6 5 -21 12 -35 15 l-25 7 25 -15z"/>
<path d="M2265 739 c-16 -10 -25 -19 -19 -19 7 0 22 9 35 20 30 24 23 24 -16
-1z"/>
<path d="M1770 665 c0 -19 2 -35 4 -35 2 0 6 16 8 35 2 19 0 35 -4 35 -4 0 -8
-16 -8 -35z"/>
<path d="M552 658 c-8 -8 -12 -44 -12 -99 0 -85 -1 -88 -32 -119 -30 -30 -34
-32 -84 -25 -42 5 -60 2 -94 -15 -22 -11 -43 -27 -47 -35 -3 -8 -9 -12 -14 -9
-5 3 -9 3 -9 0 0 -13 53 -121 61 -124 5 -2 9 -12 9 -22 0 -10 7 -20 15 -24 8
-3 15 -16 15 -28 0 -13 18 -42 40 -67 22 -24 40 -48 40 -52 0 -5 11 -7 25 -3
23 6 29 0 27 -27 0 -3 16 -6 36 -7 l37 -3 -40 41 c-22 22 -50 43 -63 47 -15 3
-32 23 -48 54 -13 27 -45 83 -69 125 -25 42 -44 78 -43 79 2 1 21 12 43 23 36
18 42 18 71 4 28 -13 37 -13 65 -2 88 37 114 88 100 200 -5 41 -8 76 -6 78 2
2 18 -4 35 -13 l33 -17 -7 -61 c-3 -34 -11 -105 -16 -157 -14 -120 -6 -213 28
-317 20 -63 30 -83 44 -83 15 0 16 4 8 25 -5 14 -9 29 -8 33 1 4 -6 32 -15 62
-23 79 -28 200 -11 321 18 135 18 158 -8 195 -16 23 -29 31 -57 32 -20 2 -42
-3 -49 -10z"/>
<path d="M1561 618 c0 -9 -9 -21 -18 -27 -16 -9 -15 -13 11 -38 l29 -28 -16
27 c-11 17 -13 28 -6 30 6 2 9 15 6 28 -2 14 -5 17 -6 8z"/>
<path d="M1205 590 c-10 -11 -14 -20 -8 -20 5 0 18 9 28 20 10 11 14 20 8 20
-5 0 -18 -9 -28 -20z"/>
<path d="M1480 585 c-3 -22 -7 -37 -9 -45 -7 -19 -7 -90 0 -90 14 0 20 42 16
101 -2 29 -5 45 -7 34z"/>
<path d="M1595 560 c-6 -10 25 -50 40 -50 11 0 4 22 -14 41 -13 14 -21 17 -26
9z"/>
<path d="M1241 529 c-13 -11 -22 -21 -20 -23 2 -3 17 7 32 20 15 13 24 24 20
24 -4 -1 -19 -10 -32 -21z"/>
<path d="M1630 485 c0 -14 126 -125 142 -125 4 0 8 5 8 10 0 6 -6 10 -13 10
-7 0 -38 27 -68 60 -56 62 -69 70 -69 45z"/>
<path d="M1540 434 c0 -14 4 -23 9 -20 5 3 7 15 4 26 -7 28 -13 25 -13 -6z"/>
<path d="M1468 405 c-3 -14 -1 -25 3 -25 5 0 9 11 9 25 0 14 -2 25 -4 25 -2 0
-6 -11 -8 -25z"/>
<path d="M3025 366 c-14 -13 -25 -28 -25 -35 0 -6 -4 -11 -9 -11 -5 0 -11 -13
-14 -29 -8 -40 -57 -141 -69 -141 -5 0 -7 -4 -3 -9 3 -6 -1 -13 -8 -18 -16 -9
-52 -73 -49 -86 1 -4 -3 -7 -8 -7 -5 0 -10 -7 -10 -15 0 -25 36 -17 48 10 7
14 30 49 51 78 22 29 55 94 74 145 20 52 37 96 40 98 2 3 37 -11 78 -31 45
-21 88 -35 112 -35 82 0 217 -89 217 -142 0 -28 -45 -103 -72 -123 -22 -15
-22 -15 12 -15 40 1 62 24 85 91 22 61 7 105 -51 152 -26 20 -55 37 -64 37
-10 0 -23 7 -30 15 -7 9 -19 14 -27 11 -7 -3 -13 -2 -13 3 0 4 -23 11 -51 14
-29 4 -70 16 -93 28 -72 38 -93 41 -121 15z"/>
<path d="M1796 363 c-3 -4 -1 -12 4 -18 7 -8 2 -21 -15 -41 -14 -16 -30 -46
-36 -66 -5 -21 -16 -38 -24 -38 -8 0 -45 29 -82 65 -37 36 -69 65 -70 65 -2 0
-3 -15 -3 -33 0 -24 9 -41 33 -64 44 -41 102 -83 114 -83 6 0 23 27 39 60 15
32 31 57 36 54 4 -3 8 -34 8 -70 0 -36 6 -77 14 -92 7 -15 16 -44 20 -65 4
-23 12 -37 22 -37 10 0 13 6 10 18 -3 9 -15 49 -27 87 -21 69 -33 225 -17 225
5 0 8 6 8 14 0 15 -24 28 -34 19z"/>
<path d="M1901 325 c-1 -33 10 -65 24 -65 7 0 12 11 11 25 0 14 -6 25 -13 25
-6 0 -14 8 -16 18 -4 14 -5 14 -6 -3z"/>
<path d="M1430 304 c0 -8 9 -32 20 -52 11 -20 30 -59 42 -87 19 -44 22 -47 26
-25 2 13 -1 26 -7 28 -6 2 -11 8 -11 13 0 6 5 7 10 4 6 -3 10 1 10 9 0 8 -9
20 -20 26 -11 6 -20 17 -20 24 0 8 -7 19 -15 26 -8 7 -15 21 -15 31 0 11 -4
19 -10 19 -5 0 -10 -7 -10 -16z"/>
<path d="M1998 273 c-2 -10 -1 -43 2 -73 l7 -55 2 73 c1 71 -2 89 -11 55z"/>
<path d="M1540 140 c0 -11 4 -20 9 -20 11 0 22 26 14 34 -12 12 -23 5 -23 -14z"/>
<path d="M942 75 c1 -41 5 -75 10 -75 4 0 8 9 8 21 0 21 0 21 20 -2 17 -21 19
-21 14 -4 -4 11 -13 25 -20 31 -7 6 -14 30 -15 53 -5 74 -18 55 -17 -24z"/>
<path d="M1410 109 c0 -5 -6 -6 -12 -4 -9 4 -14 -8 -16 -35 -2 -32 0 -38 13
-34 10 4 15 0 15 -15 0 -17 6 -21 33 -20 17 0 25 3 17 6 -25 10 -50 45 -50 70
0 24 14 31 25 13 3 -5 18 -10 32 -10 15 0 23 3 19 7 -12 12 -76 31 -76 22z"/>
<path d="M1689 90 c-17 -16 -27 -35 -24 -40 9 -15 30 4 49 41 18 37 12 37 -25
-1z"/>
<path d="M1539 108 c0 -2 -2 -12 -4 -23 -2 -11 -7 -35 -10 -53 -3 -17 -2 -32
3 -32 12 0 25 47 17 60 -4 6 -1 10 6 10 8 0 9 3 0 13 -6 8 -8 17 -4 20 3 4 3
7 0 7 -4 0 -7 -1 -8 -2z"/>
<path d="M0 48 c0 -13 8 -18 28 -18 15 -1 44 -7 64 -14 23 -8 35 -9 31 -3 -4
7 1 8 13 4 18 -7 18 -6 -1 9 -31 24 -59 38 -51 25 5 -7 1 -9 -8 -5 -9 3 -14 9
-12 13 2 3 -11 6 -30 6 -26 0 -34 -4 -34 -17z"/>
<path d="M2011 37 c-1 -24 3 -36 9 -32 6 4 8 10 5 15 -3 5 5 11 17 13 23 4 23
4 1 6 -12 0 -24 9 -26 19 -3 9 -5 0 -6 -21z"/>
</g>
</svg>
