<?xml version="1.0" standalone="no"?>
<!DOCTYPE svg PUBLIC "-//W3C//DTD SVG 20010904//EN"
 "http://www.w3.org/TR/2001/REC-SVG-20010904/DTD/svg10.dtd">
<svg version="1.0" xmlns="http://www.w3.org/2000/svg"
 width="375.000000pt" height="375.000000pt" viewBox="0 0 375.000000 375.000000"
 preserveAspectRatio="xMidYMid meet">
<g transform="translate(0.000000,375.000000) scale(0.100000,-0.100000)"
fill="#000000" stroke="none">
<path d="M1527 3570 c-244 -44 -433 -166 -599 -387 -96 -128 -173 -314 -161
-387 4 -24 0 -44 -11 -61 -14 -21 -16 -56 -15 -247 l2 -223 35 -95 c41 -113
94 -221 118 -241 9 -8 42 -27 73 -44 40 -21 62 -41 78 -70 12 -22 22 -45 22
-50 1 -11 -117 -59 -249 -101 -47 -14 -102 -35 -122 -45 -43 -22 -222 -145
-287 -198 -62 -50 -128 -144 -147 -206 l-15 -53 -52 0 c-77 1 -150 -41 -183
-104 -16 -31 -19 -63 -3 -36 14 24 28 22 39 -5 7 -17 9 -18 9 -4 1 23 -2 33
-11 29 -20 -6 6 43 26 51 9 4 15 0 15 -11 0 -61 12 -136 32 -195 12 -37 24
-65 27 -63 2 3 -3 28 -12 57 -18 55 -15 74 9 43 23 -31 17 -5 -7 29 -13 17
-23 36 -23 42 0 5 -4 34 -9 62 -6 42 -5 56 8 69 9 8 16 14 17 12 6 -26 6 -37
-2 -32 -5 3 -9 -9 -9 -26 0 -39 17 -30 25 14 4 18 12 33 18 33 7 0 32 3 57 7
26 3 39 2 31 -3 -7 -5 -9 -11 -4 -14 6 -4 15 5 22 19 6 14 7 23 2 20 -4 -3 -1
10 7 29 9 19 19 32 23 29 4 -2 5 5 2 16 -3 11 0 20 6 20 6 0 11 5 11 12 0 6 7
19 16 29 16 17 17 17 34 -3 13 -16 19 -18 25 -8 6 9 4 11 -5 5 -10 -6 -12 -4
-6 11 4 10 4 15 0 11 -4 -4 -13 -2 -21 4 -14 12 -18 30 -5 27 4 -1 17 3 30 10
12 7 21 9 20 5 -2 -4 0 -9 5 -10 18 -7 19 -2 2 17 -18 20 -18 21 3 36 11 8 28
21 37 30 8 8 15 12 15 7 0 -4 8 2 18 14 9 12 24 23 32 25 8 2 21 9 29 16 7 7
20 11 27 8 9 -3 11 0 7 12 -6 15 -4 15 10 4 17 -15 37 -9 37 11 0 7 -4 6 -10
-3 -5 -8 -12 -11 -17 -7 -9 9 17 28 29 21 4 -2 12 5 18 16 6 11 20 20 31 20
11 0 17 5 14 10 -5 8 4 13 18 9 1 0 22 9 47 20 25 11 55 21 67 21 12 0 28 6
35 13 15 15 85 37 117 37 13 0 19 4 16 10 -9 14 57 9 68 -5 5 -6 7 -3 3 8 -3
10 0 17 7 17 9 0 9 2 1 8 -9 5 -8 11 2 20 8 7 14 9 14 4 0 -14 29 -10 34 4 3
8 12 11 22 7 13 -5 15 -3 9 8 -7 11 -5 11 10 -1 17 -14 18 -13 12 3 -3 9 -3
17 2 17 4 0 6 12 3 26 -3 19 -1 25 7 20 7 -5 11 4 11 28 0 38 -18 49 -57 35
-14 -5 -25 -4 -29 3 -5 7 -2 8 7 3 8 -5 10 -4 6 0 -14 16 -39 15 -33 -1 3 -8
-1 -17 -8 -20 -9 -3 -13 -15 -10 -30 2 -13 0 -24 -6 -24 -5 0 -9 3 -9 8 3 18
-3 31 -26 56 -14 15 -25 21 -25 14 0 -8 -3 -9 -8 -3 -4 6 -14 11 -22 13 -8 2
-20 12 -28 23 -7 11 -21 18 -29 17 -9 -2 -18 2 -20 8 -4 11 25 12 43 1 6 -3
11 0 11 7 0 7 -12 12 -31 11 -29 -2 -33 3 -70 79 -22 45 -43 97 -48 116 -12
51 -15 60 -31 113 -8 26 -11 47 -6 47 6 0 8 52 5 128 -3 70 -5 127 -6 127 -1
0 -3 8 -5 18 -4 21 15 22 41 1 18 -15 18 -15 -10 -9 -25 5 -28 4 -17 -8 7 -9
9 -26 5 -40 -3 -14 -2 -32 2 -39 5 -7 9 -31 10 -53 1 -44 3 -52 46 -144 16
-35 27 -66 24 -69 -3 -2 3 -17 13 -31 10 -14 16 -32 13 -40 -3 -8 0 -11 7 -7
11 7 15 -5 12 -31 -1 -7 3 -13 9 -13 13 0 13 4 -7 61 -10 28 -24 49 -33 50 -8
0 -10 3 -4 5 8 3 1 29 -18 77 -49 118 -62 176 -46 203 4 6 13 43 19 82 10 62
10 74 -5 96 -18 28 -20 45 -8 64 16 25 42 2 42 -38 0 -21 10 -64 22 -95 21
-54 21 -58 4 -67 -10 -6 -25 -19 -34 -29 -9 -10 -22 -19 -28 -19 -7 0 -9 -10
-6 -25 4 -23 22 -36 22 -16 0 4 11 20 25 35 14 15 25 24 25 21 0 -3 9 3 20 13
17 15 18 23 10 53 -12 41 -12 39 1 39 5 0 8 -4 4 -9 -6 -10 29 -34 37 -26 2 2
4 -11 4 -30 0 -18 -4 -31 -9 -28 -12 7 -45 -26 -64 -64 -15 -32 -14 -36 10
-91 25 -57 109 -270 121 -306 4 -10 9 -16 12 -14 3 3 -4 32 -15 64 -37 108
-63 179 -71 194 -8 15 -14 45 -26 125 -5 33 -2 45 16 65 l23 25 -6 -33 c-4
-18 -3 -41 2 -50 5 -9 12 -25 15 -35 3 -10 10 -16 15 -13 5 3 7 -3 4 -14 -3
-12 1 -22 11 -26 9 -3 16 -14 16 -23 1 -15 28 -71 30 -61 7 32 7 39 -2 33 -7
-4 -9 2 -6 15 4 12 2 20 -3 16 -5 -3 -9 4 -9 15 0 11 -5 23 -10 26 -6 4 -8 10
-5 15 3 5 -1 15 -9 23 -8 8 -13 17 -10 20 3 3 -2 22 -11 42 -10 19 -15 39 -11
42 12 12 27 -14 33 -53 5 -35 63 -125 63 -97 0 6 -11 25 -25 41 -14 17 -25 40
-25 53 -1 13 -9 41 -19 63 -18 38 -18 81 1 70 5 -3 7 -11 5 -17 -5 -15 29
-113 49 -144 8 -13 20 -23 27 -23 8 0 8 3 -2 9 -8 5 -11 16 -8 26 4 9 3 13 -2
10 -14 -8 -23 12 -23 51 0 21 -4 32 -11 27 -5 -3 -7 -1 -3 5 7 11 -12 63 -28
74 -15 10 -13 86 2 148 8 30 16 63 18 74 2 10 9 24 15 32 15 18 7 27 -15 18
-9 -4 -15 -12 -13 -18 3 -6 -5 -27 -16 -46 -17 -28 -18 -32 -4 -21 21 17 21
12 1 -30 -9 -20 -13 -24 -10 -11 2 12 0 19 -6 16 -5 -3 -6 -20 -2 -37 l6 -32
-21 19 c-11 11 -21 14 -21 8 0 -7 3 -12 8 -12 4 0 15 -7 25 -14 14 -11 16 -18
7 -41 -8 -21 -8 -30 1 -36 7 -4 9 -14 6 -22 -8 -22 -42 -10 -56 19 -6 13 -16
35 -23 49 -6 13 -16 22 -21 18 -6 -3 -7 -1 -3 6 4 6 12 9 17 6 11 -7 11 3 -1
30 -5 11 -9 14 -9 8 -1 -7 -6 -13 -13 -13 -6 0 -8 3 -5 7 4 3 1 13 -7 22 -8 9
-15 19 -15 24 -1 6 -6 9 -13 6 -32 -9 -38 -6 -32 19 4 15 11 35 15 44 16 30 9
34 -7 5 -9 -16 -18 -26 -21 -24 -5 6 16 76 30 94 5 7 6 17 2 23 -3 5 -2 10 3
10 4 0 15 17 23 37 8 21 29 57 47 80 17 24 32 49 32 57 0 8 11 21 24 30 14 8
27 25 31 36 3 11 13 20 21 20 8 0 14 4 14 9 0 13 47 60 54 54 5 -6 10 20 7 39
0 4 5 5 13 2 7 -3 19 2 26 10 7 9 17 13 23 9 6 -3 7 -1 3 5 -4 6 5 18 19 28
13 9 22 21 18 27 -3 6 -1 7 5 3 6 -4 31 6 54 21 87 55 219 109 244 99 9 -3 12
-1 9 4 -10 15 156 20 250 6 33 -4 68 -8 78 -8 9 1 15 -4 11 -9 -3 -5 -2 -9 3
-7 30 8 180 -54 240 -98 17 -13 37 -24 44 -24 9 0 10 -3 2 -11 -8 -8 -17 -8
-31 0 -18 9 -19 8 -15 -10 3 -11 9 -16 12 -11 4 6 16 2 30 -9 13 -10 18 -19
11 -19 -10 0 -10 -3 0 -14 6 -8 18 -12 26 -9 8 3 14 -1 14 -8 0 -7 2 -10 5 -7
3 3 3 13 -1 22 -5 14 -9 14 -22 4 -13 -11 -15 -10 -9 4 4 11 0 21 -11 27 -9 5
-14 12 -10 16 9 9 56 -23 69 -47 8 -14 7 -24 -3 -36 -11 -13 -11 -14 2 -7 27
16 37 13 36 -11 -1 -13 -5 -26 -9 -30 -3 -4 -5 3 -2 15 3 18 0 20 -20 15 -31
-8 -65 4 -65 22 0 8 -20 24 -45 36 -24 12 -42 25 -39 29 2 4 0 10 -6 14 -5 3
-10 1 -10 -5 0 -7 -5 -6 -14 2 -8 7 -12 16 -9 21 2 4 0 7 -5 7 -6 0 -12 6 -15
14 -4 9 0 13 11 12 9 -2 18 -8 20 -14 2 -7 10 -12 17 -12 7 0 15 -6 17 -12 3
-7 7 -3 10 9 5 17 1 24 -16 29 -11 3 -43 16 -71 29 -87 40 -196 58 -304 52
-53 -3 -121 -13 -151 -22 -83 -26 -222 -99 -292 -154 -82 -64 -209 -199 -233
-248 -11 -21 -24 -41 -28 -44 -7 -5 -67 -126 -67 -135 0 -11 39 37 45 55 3 12
10 21 13 21 4 0 14 20 21 45 9 31 31 63 69 103 31 31 56 60 56 64 1 4 8 13 16
20 12 11 12 11 1 -4 -9 -12 -10 -18 -2 -18 18 0 12 -28 -9 -43 -23 -16 -19
-38 13 -70 25 -25 32 -16 9 14 -15 20 -16 28 -6 47 l11 23 21 -28 c15 -20 21
-23 22 -12 0 9 -7 20 -16 23 -10 4 -14 14 -11 26 3 11 1 18 -3 15 -5 -3 -11
-1 -15 5 -3 5 -1 10 5 10 6 0 8 6 4 13 -6 10 -4 10 7 0 16 -16 29 -17 29 -2 0
16 26 39 45 39 9 0 13 5 10 10 -3 6 1 18 11 27 16 16 18 15 40 -11 14 -15 29
-26 34 -24 5 2 -4 18 -21 35 l-30 33 25 11 c28 13 56 -1 56 -27 0 -8 7 -14 16
-14 17 0 12 11 -25 50 -12 12 -12 15 0 19 8 2 21 12 29 21 25 29 55 33 75 10
10 -11 15 -23 10 -28 -4 -4 -10 -1 -12 6 -3 6 -9 12 -15 12 -7 0 -6 -5 1 -14
11 -13 54 -16 65 -5 3 3 -8 13 -25 24 -38 26 -37 40 4 44 61 6 65 7 79 19 11
8 17 9 25 1 8 -8 20 -8 42 -1 17 6 31 7 31 3 0 -4 30 -11 67 -14 44 -4 77 -14
95 -27 15 -11 30 -20 33 -20 4 0 16 -10 27 -22 11 -13 17 -17 13 -10 -3 6 -2
12 3 12 15 0 33 -26 24 -35 -4 -5 -1 -5 6 -1 6 4 19 0 28 -8 14 -15 14 -17 0
-22 -9 -3 -16 -11 -16 -17 0 -6 11 0 24 12 25 23 52 20 42 -4 -3 -9 2 -11 16
-7 16 4 19 2 13 -8 -5 -8 -4 -11 3 -6 6 3 13 -3 17 -14 3 -11 13 -20 22 -20
10 0 13 -6 9 -16 -3 -8 -2 -12 4 -9 5 3 14 -4 20 -16 7 -11 14 -18 17 -15 7 7
32 -17 26 -26 -2 -4 2 -18 9 -30 7 -13 12 -27 13 -32 0 -12 25 -20 25 -8 0 5
-9 21 -20 35 -12 15 -17 32 -14 42 5 12 -14 36 -67 85 -41 38 -85 75 -99 82
-14 7 -42 23 -62 37 -21 13 -52 27 -70 31 l-33 7 28 12 c46 18 73 13 104 -19
15 -17 51 -46 78 -64 28 -19 62 -48 78 -65 16 -19 37 -31 52 -31 34 0 52 -35
25 -50 -19 -10 -18 -13 25 -65 25 -31 51 -69 60 -85 8 -16 23 -35 32 -42 20
-14 93 -122 93 -137 0 -5 7 -15 16 -22 23 -19 -20 67 -49 99 -24 26 -8 30 35
10 25 -12 106 -134 100 -150 -1 -5 3 -8 8 -8 6 0 10 -11 10 -24 0 -14 5 -28
11 -32 6 -3 9 -17 6 -30 -2 -13 0 -21 4 -18 11 7 11 -17 0 -34 -9 -15 -22 12
-42 88 -19 73 -67 180 -80 180 -15 0 -10 -18 21 -80 17 -33 30 -64 30 -70 0
-6 9 -30 19 -53 11 -24 23 -55 26 -70 6 -21 12 -26 26 -22 14 5 17 2 13 -10
-4 -9 -13 -14 -22 -10 -11 4 -12 2 -4 -7 12 -15 4 -68 -10 -68 -5 0 -7 -8 -4
-17 3 -10 1 -25 -4 -33 -8 -12 -10 -12 -11 5 0 11 -3 14 -6 7 -3 -7 1 -20 9
-29 11 -15 11 -16 -5 -10 -15 6 -16 4 -6 -14 7 -13 7 -19 1 -15 -6 3 -13 -2
-17 -13 -3 -11 -26 -29 -51 -40 -54 -26 -58 -35 -44 -92 6 -24 13 -55 15 -69
2 -14 7 -41 11 -60 4 -19 8 -37 8 -40 1 -3 5 -10 9 -17 4 -6 2 -13 -4 -15 -7
-2 -9 -13 -5 -26 4 -12 12 -20 17 -17 9 6 12 -16 10 -70 -2 -24 0 -27 9 -15 9
12 10 6 6 -25 -3 -23 -2 -34 3 -26 8 12 16 -13 23 -66 1 -7 5 -10 10 -7 4 3 6
-9 4 -25 -2 -21 1 -31 10 -31 10 0 11 -6 4 -26 -12 -31 -12 -34 -1 -34 5 0 12
8 14 18 3 9 5 0 6 -20 0 -20 5 -40 11 -43 6 -3 7 1 4 12 -4 15 -3 14 7 -2 21
-33 34 -42 68 -50 26 -5 30 -10 20 -17 -10 -7 -8 -7 9 -3 12 3 22 2 22 -3 0
-12 59 -36 79 -33 7 1 10 -2 7 -7 -4 -6 3 -8 16 -5 19 4 20 3 8 -7 -12 -10
-11 -11 8 -7 20 5 21 3 10 -10 -11 -14 -11 -15 8 -5 16 9 26 8 45 -5 13 -9 27
-22 31 -27 5 -7 8 -5 8 4 0 13 2 13 9 1 5 -8 17 -16 27 -17 23 -4 36 -26 21
-37 -8 -6 -7 -7 3 -4 8 2 14 9 13 15 -2 6 4 9 12 6 8 -4 12 -11 8 -17 -4 -6 0
-8 9 -5 9 4 27 -4 42 -18 14 -14 30 -23 34 -21 8 6 33 -19 26 -26 -3 -2 2 -7
11 -11 11 -4 14 -2 10 7 -4 6 1 3 9 -7 9 -11 16 -16 16 -12 0 4 12 -2 26 -13
15 -11 31 -18 37 -14 5 3 7 1 4 -4 -4 -6 7 -16 23 -23 17 -7 30 -17 30 -23 0
-6 3 -7 7 -3 4 3 13 -6 20 -21 7 -16 11 -20 8 -10 -3 12 -1 17 7 14 7 -2 12
-10 10 -16 -1 -6 5 -11 14 -11 9 0 12 -5 8 -12 -4 -7 -3 -8 4 -4 20 12 34 -4
20 -22 -10 -14 -10 -15 2 -5 10 10 19 8 42 -8 15 -11 28 -27 28 -34 0 -8 5
-17 12 -21 7 -5 8 -3 3 7 -5 8 7 -1 27 -20 20 -19 34 -41 31 -50 -2 -9 8 -29
21 -45 14 -16 23 -34 19 -40 -4 -6 2 -4 12 4 17 14 18 13 12 -2 -7 -19 3 -24
19 -9 6 6 10 -1 11 -20 4 -54 7 -66 20 -78 17 -15 16 -2 -1 41 -10 24 -12 38
-5 49 8 11 12 11 16 1 2 -6 10 -9 15 -6 7 4 8 2 4 -4 -4 -7 -4 -18 1 -24 4 -7
9 -21 10 -32 2 -10 8 -26 13 -35 8 -12 9 -8 4 14 -4 17 -3 27 2 22 9 -9 11
-14 13 -47 0 -11 5 -20 11 -20 5 0 6 7 3 17 -5 11 -3 14 6 9 7 -5 11 -16 8
-25 -2 -9 3 -23 11 -30 12 -12 13 -11 7 9 -5 16 -4 20 5 15 19 -12 2 33 -31
81 -37 54 -84 94 -122 101 -24 5 -34 16 -52 57 -25 56 -117 151 -175 181 -19
10 -55 35 -80 55 -38 32 -204 140 -215 140 -2 0 -34 18 -73 39 -62 35 -122 64
-312 147 -100 44 -100 44 -137 134 -19 47 -39 110 -44 140 -6 30 -14 59 -18
65 -5 5 -11 28 -15 50 -12 75 -48 230 -57 247 -14 28 -12 43 5 29 11 -9 15 -7
19 8 4 16 0 18 -19 15 -17 -3 -24 0 -24 11 0 8 7 15 15 15 26 0 94 39 109 63
27 41 68 228 63 282 -7 66 -37 134 -82 184 -20 22 -57 86 -81 141 -51 116 -85
174 -126 212 -15 14 -28 35 -28 45 0 52 -167 192 -295 248 -109 48 -326 76
-438 55z m346 -99 c9 -1 17 -6 17 -12 0 -5 -4 -8 -9 -5 -5 4 -21 2 -34 -3 -17
-7 -39 -6 -64 1 -21 6 -49 12 -63 13 -59 5 -62 9 -10 14 30 3 75 3 100 -1 25
-4 53 -7 63 -7z m-648 -181 c-3 -5 -14 -10 -23 -10 -15 0 -15 2 -2 10 20 13
33 13 25 0z m1068 -103 c4 3 7 -1 7 -10 0 -9 -5 -17 -11 -17 -13 0 -40 26 -33
33 3 3 1 8 -4 11 -15 9 -9 -16 9 -42 9 -12 19 -19 22 -15 4 3 7 -1 7 -10 0 -9
5 -19 11 -23 8 -4 9 0 4 15 -4 13 -2 21 5 21 8 0 11 -11 8 -29 -3 -20 1 -32
15 -40 16 -11 17 -10 7 9 -6 12 -10 25 -8 30 2 4 11 -8 21 -27 9 -19 12 -31 6
-27 -7 4 -9 0 -5 -15 3 -11 8 -29 11 -40 7 -25 -23 -37 -32 -13 -4 9 -11 20
-16 23 -5 3 -1 9 8 12 9 4 14 3 11 -1 -2 -4 -1 -14 3 -21 6 -9 9 -5 9 13 0 14
-7 31 -14 37 -12 10 -13 9 -8 -5 3 -9 1 -16 -6 -16 -18 0 -37 23 -32 39 3 9 0
11 -8 6 -10 -6 -12 -2 -8 13 4 14 2 22 -7 22 -7 0 -15 7 -19 15 -3 8 -13 15
-21 15 -12 0 -15 6 -9 23 4 12 8 31 9 42 1 11 3 21 4 22 0 2 14 -11 29 -27 16
-16 32 -27 35 -23z m-182 26 c13 -16 12 -17 -3 -4 -17 13 -22 21 -14 21 2 0
10 -8 17 -17z m298 -238 c11 -26 11 -28 -2 -15 -8 8 -18 26 -22 40 -9 32 7 15
24 -25z m-1599 -288 c0 -5 -9 -5 -20 -2 -13 4 -20 2 -20 -6 0 -7 -3 -10 -6 -6
-3 3 -3 15 1 26 5 17 9 19 26 8 10 -6 19 -16 19 -20z m95 -17 c3 -5 1 -10 -4
-10 -6 0 -11 5 -11 10 0 6 2 10 4 10 3 0 8 -4 11 -10z m-103 -42 c-13 -13 -26
8 -17 30 6 16 7 16 17 -1 7 -13 7 -22 0 -29z m381 -769 c4 -16 3 -18 -9 -8
-11 9 -14 8 -14 -7 0 -16 -2 -17 -10 -4 -6 10 -7 2 -3 -25 3 -22 2 -37 -2 -32
-5 4 -17 0 -27 -10 -21 -19 -37 -10 -19 11 8 9 10 28 6 49 -6 32 -5 34 19 32
14 -2 28 1 32 6 9 15 21 10 27 -12z"/>
<path d="M1341 3476 c-10 -12 -8 -13 8 -9 12 3 18 9 15 14 -7 12 -10 11 -23
-5z"/>
<path d="M1565 3410 c10 -11 23 -16 29 -12 7 4 5 8 -6 10 -10 2 -18 8 -18 13
0 5 -5 9 -12 9 -6 0 -3 -8 7 -20z"/>
<path d="M1626 3415 c4 -8 13 -15 21 -15 12 0 12 2 -1 15 -8 8 -17 15 -20 15
-3 0 -3 -7 0 -15z"/>
<path d="M1490 3408 c0 -6 3 -9 6 -5 4 3 14 -3 23 -14 17 -21 17 -21 17 -1 0
11 -4 19 -7 16 -4 -2 -10 0 -14 6 -8 14 -25 13 -25 -2z"/>
<path d="M1684 3396 c-9 -10 -7 -16 8 -25 10 -6 23 -23 28 -36 5 -14 14 -25
19 -25 5 0 12 -10 16 -22 3 -13 9 -18 11 -11 4 10 -26 63 -46 83 -3 3 -10 15
-15 27 -8 17 -12 19 -21 9z"/>
<path d="M1750 3383 c0 -12 3 -13 14 -4 11 9 19 5 40 -19 32 -39 33 -56 4 -64
-19 -5 -21 -8 -8 -16 8 -5 11 -10 5 -10 -5 0 -1 -7 9 -15 14 -11 16 -15 5 -15
-8 -1 -3 -7 11 -15 14 -8 19 -14 11 -15 -8 0 -12 -3 -8 -6 3 -3 11 -3 18 2 9
5 8 10 -5 20 -19 14 -20 22 -3 44 9 12 9 13 -3 3 -21 -19 -32 -16 -20 7 6 11
16 17 25 14 8 -4 15 -1 15 5 0 6 -4 11 -10 11 -5 0 -9 4 -7 8 1 4 -10 23 -25
41 -31 36 -68 49 -68 24z"/>
<path d="M1630 3380 c0 -5 4 -10 9 -10 10 0 81 -105 81 -120 0 -5 5 -10 10
-10 15 0 12 9 -11 41 -11 16 -17 34 -13 40 4 7 3 9 -3 6 -6 -4 -20 9 -32 28
-19 33 -41 46 -41 25z"/>
<path d="M1380 3375 c0 -12 50 -59 55 -53 4 3 -6 18 -20 32 -26 26 -35 31 -35
21z"/>
<path d="M1563 3368 c-34 -16 -28 -28 7 -15 40 15 45 6 19 -39 -19 -36 -11
-31 19 13 9 13 14 15 18 5 3 -7 12 -19 21 -27 8 -8 13 -20 11 -27 -6 -16 -50
-21 -61 -6 -6 10 -7 9 -4 -2 2 -8 14 -15 26 -14 11 0 21 -4 21 -9 0 -5 11 -6
25 -3 20 5 26 2 31 -19 3 -14 11 -25 16 -25 6 0 4 -8 -3 -17 -8 -10 -9 -14 -2
-10 6 4 14 3 18 -3 3 -5 0 -10 -7 -10 -18 0 -40 15 -38 26 4 27 -10 46 -29 41
-12 -3 -21 -1 -21 4 0 5 -4 9 -10 9 -5 0 -7 -7 -4 -15 3 -8 16 -13 27 -12 13
1 21 -3 20 -10 -2 -7 2 -13 8 -13 8 0 7 -6 -2 -17 -10 -11 -10 -14 -1 -9 6 4
12 2 12 -3 0 -6 11 -11 24 -11 14 0 28 -5 32 -11 5 -8 -1 -10 -18 -6 -18 5
-30 1 -44 -14 -16 -17 -16 -19 -1 -13 24 9 21 -5 -5 -27 -11 -11 -16 -19 -10
-19 6 0 18 7 27 16 8 9 22 13 30 10 8 -3 15 -1 15 4 0 5 -9 12 -20 15 -11 4
-18 11 -15 16 4 5 15 4 28 -2 29 -16 39 -32 24 -41 -15 -9 7 -11 38 -2 17 4
20 12 17 39 -3 24 -8 32 -18 28 -9 -3 -11 -9 -5 -17 4 -6 5 -20 1 -31 -7 -19
-7 -19 -18 2 -19 34 -15 63 8 63 11 0 20 4 20 10 0 6 -9 6 -24 0 -22 -8 -26
-5 -35 23 -11 32 -68 121 -105 164 -22 25 -30 27 -63 11z m112 -108 c-3 -5
-12 -10 -18 -10 -7 0 -6 4 3 10 19 12 23 12 15 0z"/>
<path d="M1165 3360 c3 -5 8 -10 11 -10 2 0 4 5 4 10 0 6 -5 10 -11 10 -5 0
-7 -4 -4 -10z"/>
<path d="M1515 3330 c3 -19 10 -36 15 -38 6 -2 10 -8 10 -14 0 -5 14 -29 30
-53 24 -34 29 -51 24 -71 -6 -23 -4 -26 10 -21 10 4 22 7 28 7 7 0 5 7 -3 18
-8 9 -21 29 -29 45 -7 15 -17 27 -22 27 -4 0 -8 8 -8 18 0 10 -5 23 -11 29 -7
7 -20 29 -31 50 l-18 38 5 -35z"/>
<path d="M1370 3342 c0 -5 7 -15 15 -22 8 -7 15 -9 15 -6 0 4 -7 14 -15 22 -8
9 -15 11 -15 6z"/>
<path d="M1764 3339 c-9 -15 -2 -18 20 -9 17 6 18 7 3 13 -9 3 -19 2 -23 -4z"/>
<path d="M1561 3331 c-8 -6 -9 -11 -3 -15 6 -3 14 -1 17 5 9 14 2 20 -14 10z"/>
<path d="M1870 3335 c0 -5 5 -17 10 -25 5 -8 10 -10 10 -5 0 6 -5 17 -10 25
-5 8 -10 11 -10 5z"/>
<path d="M1454 3319 c-4 -7 -1 -17 8 -23 20 -15 88 -123 88 -140 0 -7 -10 -21
-22 -30 -13 -9 -17 -14 -9 -10 11 5 13 3 8 -9 -4 -12 -1 -17 10 -17 13 0 14
-2 2 -17 -12 -16 -12 -17 2 -6 13 11 18 9 27 -13 7 -14 12 -31 12 -39 0 -11 5
-10 20 5 12 12 25 18 30 15 6 -4 10 1 10 11 0 15 -2 15 -25 0 -14 -9 -25 -12
-25 -7 0 6 -11 27 -25 47 -18 27 -22 41 -15 48 8 8 14 6 21 -4 9 -12 9 -11 3
5 -4 11 -8 30 -8 42 -1 11 -4 19 -7 17 -9 -5 -36 27 -44 55 -5 18 -4 22 5 16
8 -5 11 -4 6 3 -4 6 -13 9 -21 5 -9 -3 -15 1 -15 8 -1 24 -27 52 -36 38z"/>
<path d="M1115 3310 c-4 -6 -11 -7 -17 -4 -7 4 -8 2 -4 -4 7 -12 36 -5 36 9 0
12 -7 11 -15 -1z"/>
<path d="M1785 3310 c-3 -5 -2 -10 4 -10 5 0 13 5 16 10 3 6 2 10 -4 10 -5 0
-13 -4 -16 -10z"/>
<path d="M1320 3296 c0 -8 5 -18 10 -21 6 -3 10 1 10 9 0 8 -4 18 -10 21 -5 3
-10 -1 -10 -9z"/>
<path d="M1612 3290 c0 -14 2 -19 5 -12 2 6 2 18 0 25 -3 6 -5 1 -5 -13z"/>
<path d="M1397 3294 c-12 -12 5 -25 18 -14 9 8 15 8 20 0 3 -5 3 -10 0 -10 -4
0 0 -7 9 -15 17 -17 36 -20 36 -5 0 6 -6 10 -14 10 -7 0 -16 9 -19 20 -5 19
-36 28 -50 14z"/>
<path d="M1080 3276 c0 -2 7 -7 16 -10 8 -3 12 -2 9 4 -6 10 -25 14 -25 6z"/>
<path d="M1865 3270 c3 -5 8 -10 11 -10 2 0 4 5 4 10 0 6 -5 10 -11 10 -5 0
-7 -4 -4 -10z"/>
<path d="M1260 3261 c0 -5 7 -15 17 -22 15 -13 15 -12 4 9 -12 23 -21 28 -21
13z"/>
<path d="M1361 3261 c-7 -5 -12 -14 -10 -20 3 -7 11 -3 21 9 18 21 13 26 -11
11z"/>
<path d="M1978 3263 c6 -2 18 -2 25 0 6 3 1 5 -13 5 -14 0 -19 -2 -12 -5z"/>
<path d="M1403 3235 c0 -9 6 -14 13 -11 8 3 16 1 19 -4 4 -6 1 -10 -5 -10 -7
0 -10 -6 -7 -12 2 -7 10 -12 17 -10 7 1 19 -5 26 -15 9 -11 13 -13 12 -4 -2 7
3 16 11 19 8 3 11 0 7 -7 -4 -6 -1 -11 8 -11 10 0 13 6 9 15 -3 9 -13 15 -22
14 -30 -3 -54 1 -48 8 7 7 -21 43 -33 43 -4 0 -7 -7 -7 -15z"/>
<path d="M1766 3234 c-3 -8 -10 -12 -16 -9 -5 3 -10 1 -10 -5 0 -7 6 -10 13
-7 6 2 18 -3 25 -12 11 -14 12 -13 3 5 -7 15 -7 24 1 32 8 8 9 12 1 12 -6 0
-14 -7 -17 -16z"/>
<path d="M1865 3241 c-6 -11 13 -26 22 -17 4 3 0 6 -8 6 -11 0 -11 2 1 10 9 6
10 10 3 10 -6 0 -14 -4 -18 -9z"/>
<path d="M1920 3235 c0 -8 4 -15 10 -15 5 0 7 7 4 15 -4 8 -8 15 -10 15 -2 0
-4 -7 -4 -15z"/>
<path d="M1988 3243 c6 -2 9 -10 6 -15 -4 -6 -2 -8 4 -4 6 3 18 -4 28 -16 12
-17 15 -18 10 -5 -3 10 -6 23 -6 28 0 6 -4 8 -9 4 -5 -3 -12 -1 -16 5 -3 5
-12 10 -18 9 -9 0 -8 -2 1 -6z"/>
<path d="M1240 3232 c0 -11 22 -32 32 -32 5 0 4 9 -2 20 -11 20 -30 28 -30 12z"/>
<path d="M1317 3224 c-7 -7 23 -64 33 -64 3 0 16 -20 30 -45 14 -25 28 -45 32
-45 5 0 8 -6 8 -14 0 -16 24 -38 33 -30 3 4 -9 25 -27 48 -18 22 -42 56 -52
75 -45 80 -48 84 -57 75z"/>
<path d="M1372 3220 c-1 -21 16 -60 17 -40 1 13 2 13 11 0 7 -12 9 -10 8 7 -1
12 -7 19 -14 16 -7 -2 -14 4 -17 14 -3 11 -5 12 -5 3z"/>
<path d="M1470 3220 c0 -5 7 -10 16 -10 8 0 12 5 9 10 -3 6 -10 10 -16 10 -5
0 -9 -4 -9 -10z"/>
<path d="M1790 3222 c0 -12 19 -26 26 -19 2 2 -2 10 -11 17 -9 8 -15 8 -15 2z"/>
<path d="M1217 3204 c6 -15 23 -19 23 -5 0 5 -7 11 -14 14 -10 4 -13 1 -9 -9z"/>
<path d="M1891 3210 c-11 -6 -10 -9 5 -14 11 -3 7 -4 -8 -2 -16 2 -32 -2 -37
-8 -7 -9 -1 -11 25 -8 37 5 46 12 36 29 -5 7 -13 9 -21 3z"/>
<path d="M1937 3199 c7 -7 15 -10 18 -7 3 3 -2 9 -12 12 -14 6 -15 5 -6 -5z"/>
<path d="M2004 3198 c3 -10 -1 -18 -12 -21 -16 -4 -16 -5 0 -6 22 -1 29 11 16
29 -8 12 -9 12 -4 -2z"/>
<path d="M995 3190 c-3 -5 -1 -10 4 -10 6 0 11 5 11 10 0 6 -2 10 -4 10 -3 0
-8 -4 -11 -10z"/>
<path d="M1190 3189 c0 -14 25 -39 39 -39 6 0 2 -9 -9 -20 -11 -11 -20 -26
-20 -32 0 -7 8 -3 18 10 22 28 42 22 67 -21 10 -18 23 -35 28 -38 11 -8 1 -29
-14 -29 -6 0 -8 4 -5 9 3 5 -1 12 -10 15 -8 3 -13 2 -10 -3 3 -5 -1 -12 -10
-15 -23 -9 -24 -8 -24 14 0 11 -7 20 -16 20 -13 0 -13 -4 3 -30 18 -31 28 -37
38 -20 3 5 12 7 20 4 8 -4 12 -10 9 -15 -3 -5 -3 -9 0 -9 2 0 13 -3 23 -6 14
-5 15 -4 4 4 -8 6 -11 17 -8 26 6 14 9 15 21 4 7 -7 12 -21 10 -30 -1 -10 2
-18 7 -18 6 0 7 -4 4 -10 -3 -6 1 -7 9 -4 9 3 16 1 16 -5 0 -6 -9 -11 -20 -11
-11 0 -20 -4 -20 -10 0 -13 6 -13 30 0 13 7 21 7 25 0 3 -6 -2 -13 -12 -17
-10 -4 -23 -14 -30 -22 -7 -9 -13 -14 -13 -11 -1 3 -3 13 -5 23 -5 25 -8 27
-25 17 -12 -8 -11 -10 5 -10 17 0 17 -2 5 -10 -12 -8 -12 -10 -1 -10 8 0 11
-3 8 -6 -10 -11 33 -43 49 -37 10 4 12 0 8 -13 -6 -15 -4 -16 6 -7 15 13 5 33
-17 33 -10 0 -13 6 -9 16 3 9 6 18 6 20 0 2 7 4 15 4 8 0 15 5 15 10 0 6 8 10
18 11 10 0 12 3 5 6 -7 2 -13 11 -13 19 0 9 -4 12 -10 9 -5 -3 -10 -1 -10 5 0
11 -13 29 -60 87 -6 7 -10 15 -10 18 0 11 -71 100 -81 101 -5 1 -13 2 -19 3
-5 0 -10 8 -10 16 0 8 -4 15 -10 15 -5 0 -10 -5 -10 -11z"/>
<path d="M1281 3191 c-12 -8 -10 -16 12 -48 79 -113 98 -140 109 -155 7 -10
17 -18 22 -18 5 0 2 8 -7 18 -10 10 -17 23 -17 29 0 6 -7 13 -15 17 -8 3 -15
10 -15 16 0 7 -20 38 -45 69 -41 55 -51 86 -17 58 12 -10 14 -9 11 2 -7 19
-20 23 -38 12z"/>
<path d="M1575 3180 c-3 -5 -1 -10 4 -10 6 0 11 5 11 10 0 6 -2 10 -4 10 -3 0
-8 -4 -11 -10z"/>
<path d="M2081 3174 c0 -11 3 -14 6 -6 3 7 2 16 -1 19 -3 4 -6 -2 -5 -13z"/>
<path d="M1855 3160 c-3 -5 -1 -10 4 -10 6 0 11 5 11 10 0 6 -2 10 -4 10 -3 0
-8 -4 -11 -10z"/>
<path d="M1881 3149 c-35 -28 -22 -32 14 -3 17 13 26 24 20 24 -5 -1 -21 -10
-34 -21z"/>
<path d="M2015 3160 c-25 -11 1 -11 35 0 20 6 21 8 5 8 -11 0 -29 -3 -40 -8z"/>
<path d="M1320 3155 c0 -3 10 -16 21 -28 l21 -22 -11 22 c-11 22 -31 40 -31
28z"/>
<path d="M1405 3150 c-3 -5 1 -10 9 -10 9 0 16 5 16 10 0 6 -4 10 -9 10 -6 0
-13 -4 -16 -10z"/>
<path d="M1510 3150 c0 -6 -12 -8 -27 -5 -23 4 -25 4 -8 -4 12 -6 15 -10 6
-10 -8 -1 -11 -4 -8 -8 8 -8 57 17 57 29 0 4 -4 8 -10 8 -5 0 -10 -5 -10 -10z"/>
<path d="M1650 3140 c0 -5 4 -10 9 -10 6 0 13 5 16 10 3 6 -1 10 -9 10 -9 0
-16 -4 -16 -10z"/>
<path d="M1829 3136 c9 -11 9 -15 -1 -18 -8 -3 -7 -6 4 -10 11 -5 15 -2 13 10
-2 9 -4 20 -4 25 -1 4 -6 7 -12 7 -8 0 -8 -4 0 -14z"/>
<path d="M1967 3138 c-16 -12 -15 -13 7 -13 15 0 22 5 19 13 -3 6 -6 12 -7 12
-1 0 -10 -6 -19 -12z"/>
<path d="M2040 3140 c0 -5 7 -10 15 -10 8 0 15 5 15 10 0 6 -7 10 -15 10 -8 0
-15 -4 -15 -10z"/>
<path d="M2090 3135 c-9 -10 -9 -15 -1 -15 6 0 11 5 11 11 0 6 7 8 16 5 8 -3
12 -2 9 4 -9 14 -21 12 -35 -5z"/>
<path d="M1427 3124 c-4 -4 3 -15 15 -26 12 -10 19 -21 15 -24 -7 -7 24 -44
36 -44 5 0 4 6 -2 14 -7 9 -8 17 -2 20 5 3 11 1 13 -6 3 -9 6 -9 12 0 4 7 3
12 -3 12 -6 0 -8 8 -5 18 5 14 3 14 -11 -3 -13 -17 -17 -18 -25 -5 -6 9 -5 17
3 22 8 5 3 8 -11 8 -13 0 -20 4 -17 10 7 11 -8 14 -18 4z"/>
<path d="M1630 3123 c0 -4 5 -15 10 -23 8 -13 10 -13 10 2 0 9 -4 20 -10 23
-5 3 -10 3 -10 -2z"/>
<path d="M1886 3122 c-9 -15 9 -31 24 -22 13 8 12 10 -3 10 -10 0 -15 5 -12
10 3 6 4 10 1 10 -3 0 -7 -4 -10 -8z"/>
<path d="M1065 3110 c3 -5 11 -10 16 -10 6 0 7 5 4 10 -3 6 -11 10 -16 10 -6
0 -7 -4 -4 -10z"/>
<path d="M1140 3111 c0 -5 5 -13 10 -16 6 -3 10 -2 10 4 0 5 -4 13 -10 16 -5
3 -10 2 -10 -4z"/>
<path d="M1936 3107 c3 -10 9 -15 12 -12 3 3 0 11 -7 18 -10 9 -11 8 -5 -6z"/>
<path d="M2010 3110 c-20 -6 -21 -8 -5 -8 11 0 29 3 40 8 25 11 -1 11 -35 0z"/>
<path d="M2102 3105 c-14 -7 -19 -15 -13 -19 6 -4 19 2 31 14 22 22 16 24 -18
5z"/>
<path d="M1580 3100 c0 -5 5 -10 10 -10 6 0 10 5 10 10 0 6 -4 10 -10 10 -5 0
-10 -4 -10 -10z"/>
<path d="M2039 3093 c-1 -5 0 -18 1 -30 2 -28 -16 -30 -23 -3 -3 11 -10 20
-17 20 -6 0 -8 -4 -5 -10 3 -5 4 -10 1 -10 -2 0 -11 -3 -20 -6 -10 -4 -16 -1
-16 9 0 20 -110 29 -117 10 -3 -7 -11 -13 -18 -13 -8 0 -29 -14 -47 -31 -18
-16 -26 -29 -18 -27 8 2 23 12 33 23 15 16 18 17 13 3 -3 -9 -10 -34 -15 -55
-6 -21 -15 -45 -20 -53 -8 -12 -11 -12 -17 4 -6 17 -10 15 -36 -15 -19 -21
-31 -29 -34 -22 -4 9 -12 7 -27 -7 -11 -11 -26 -20 -31 -20 -6 0 3 13 20 29
18 16 35 40 39 52 6 19 0 16 -29 -16 -20 -22 -37 -43 -37 -47 -8 -46 -4 -51
25 -25 13 12 35 22 48 22 14 0 27 9 33 23 10 22 25 30 25 14 0 -18 -50 -66
-70 -67 -11 0 -20 -4 -21 -10 0 -5 -7 -14 -15 -18 -8 -5 -11 -14 -7 -20 4 -7
-2 -5 -12 3 -11 9 -16 10 -11 3 4 -8 1 -13 -8 -13 -9 0 -16 -7 -16 -15 0 -19
-37 -38 -61 -32 -10 3 -17 0 -16 -5 1 -6 -23 -20 -53 -30 -30 -11 -57 -23 -60
-27 -3 -4 -18 -11 -33 -15 -15 -4 -42 -20 -59 -36 -30 -29 -40 -34 -64 -31 -7
1 -15 -6 -18 -15 -6 -16 -8 -15 -21 2 -13 16 -14 17 -9 1 5 -13 2 -16 -12 -11
-13 4 -15 3 -7 -3 9 -7 8 -12 -7 -23 -11 -8 -20 -18 -20 -23 0 -4 -11 -20 -25
-35 -16 -18 -24 -37 -24 -57 l2 -30 4 29 c3 15 15 39 29 51 13 12 24 25 24 29
0 4 11 18 25 32 14 14 25 20 25 15 0 -14 67 16 100 44 14 12 63 38 110 58 47
19 99 43 115 51 17 9 35 16 41 16 17 0 136 93 172 135 30 33 82 130 96 178 4
11 15 17 35 17 16 0 38 3 48 6 15 5 15 4 3 -5 -20 -14 -7 -24 33 -26 40 -3
114 -35 144 -64 13 -12 33 -20 48 -19 28 3 31 8 13 26 -9 9 -9 12 0 12 7 0 12
4 12 10 0 5 -7 7 -15 4 -10 -4 -13 -13 -10 -25 7 -21 -2 -24 -25 -9 -13 9 -13
11 0 20 10 6 11 10 3 10 -7 0 -13 4 -13 9 0 5 6 9 13 8 34 -1 57 4 57 13 0 6
-9 6 -25 0 -23 -9 -24 -8 -13 9 7 11 18 17 27 14 10 -4 9 0 -4 10 -26 21 -35
21 -35 -2 0 -24 -25 -47 -35 -31 -5 8 -11 6 -18 -4 -9 -11 -16 -13 -27 -6 -13
9 -13 10 0 10 13 0 13 1 0 10 -12 8 -13 11 -1 19 11 7 11 9 0 14 -12 4 -11 7
1 16 13 9 13 11 -2 11 -10 0 -18 -3 -19 -7z m75 -89 c4 -10 1 -14 -6 -12 -15
5 -23 28 -10 28 5 0 13 -7 16 -16z m-424 -168 c0 -11 -19 -15 -25 -6 -3 5 1
10 9 10 9 0 16 -2 16 -4z"/>
<path d="M1033 3083 c-9 -3 -9 -11 3 -29 10 -14 12 -24 5 -24 -7 0 -7 -7 1
-25 12 -28 2 -48 -12 -25 -8 13 -10 12 -10 -2 0 -10 4 -18 10 -18 5 0 9 -8 7
-17 -1 -10 3 -19 8 -20 6 -1 9 5 7 14 -2 10 1 12 10 7 9 -5 8 -2 -2 11 -14 17
-13 18 3 12 21 -8 23 6 3 22 -15 13 -19 71 -4 71 4 0 8 -3 8 -8 0 -4 12 -20
26 -35 19 -21 23 -32 15 -40 -6 -6 -11 -20 -11 -30 0 -16 3 -17 15 -7 13 10
15 9 15 -9 0 -11 4 -21 9 -21 10 0 27 -39 23 -54 -2 -5 6 -6 18 -3 22 6 38 -9
18 -16 -7 -2 -5 -3 5 -2 9 2 17 1 17 -2 0 -3 -8 -12 -17 -20 -16 -13 -16 -13
4 -4 19 9 23 7 34 -18 9 -20 18 -27 31 -23 17 4 17 6 -4 26 -33 32 -68 75 -68
84 0 4 -11 19 -24 34 -14 14 -31 42 -40 61 -8 19 -24 45 -35 56 l-21 21 23 1
c12 0 16 3 10 6 -7 2 -13 11 -13 19 0 8 -5 14 -11 14 -6 0 -9 -7 -5 -15 3 -8
1 -15 -3 -15 -5 0 -11 7 -15 15 -6 15 -12 17 -33 8z m151 -209 c3 -8 2 -12 -4
-9 -6 3 -10 10 -10 16 0 14 7 11 14 -7z"/>
<path d="M1166 3075 c-3 -9 0 -15 9 -15 16 0 20 16 6 24 -5 3 -11 -1 -15 -9z"/>
<path d="M1620 3080 c0 -5 5 -10 11 -10 5 0 7 5 4 10 -3 6 -8 10 -11 10 -2 0
-4 -4 -4 -10z"/>
<path d="M1250 3065 c0 -9 6 -12 15 -9 8 4 15 7 15 9 0 2 -7 5 -15 9 -9 3 -15
0 -15 -9z"/>
<path d="M2085 3060 c3 -5 8 -10 11 -10 2 0 4 5 4 10 0 6 -5 10 -11 10 -5 0
-7 -4 -4 -10z"/>
<path d="M936 3044 c-9 -24 -2 -26 12 -4 7 11 8 20 3 20 -5 0 -12 -7 -15 -16z"/>
<path d="M1705 3050 c3 -5 1 -10 -4 -10 -6 0 -11 -6 -11 -14 0 -8 -3 -16 -7
-19 -5 -2 -2 -2 5 0 9 2 12 -4 8 -20 -3 -12 2 -5 11 16 8 20 20 37 25 37 5 0
6 -4 3 -10 -3 -5 -2 -10 4 -10 20 0 21 19 2 29 -25 14 -44 14 -36 1z"/>
<path d="M1180 3037 c0 -9 11 -29 25 -45 14 -17 25 -33 25 -37 0 -3 6 -13 13
-20 25 -29 35 -42 47 -66 l13 -24 -23 20 c-24 21 -20 5 8 -27 7 -9 11 -21 7
-27 -4 -7 0 -8 11 -4 11 4 15 2 11 -4 -4 -6 6 -9 28 -7 60 4 93 15 99 31 6 14
4 14 -16 1 -27 -18 -78 -29 -78 -17 0 5 -8 5 -17 2 -12 -5 -15 -2 -10 10 4 11
-7 35 -33 70 -22 28 -40 58 -40 65 0 6 -4 12 -10 12 -5 0 -10 5 -10 11 0 6
-11 24 -25 41 -16 18 -25 24 -25 15z m140 -197 c0 -5 -4 -10 -10 -10 -5 0 -10
5 -10 10 0 6 5 10 10 10 6 0 10 -4 10 -10z"/>
<path d="M1504 3029 c-15 -16 -15 -19 -2 -19 9 0 19 7 22 16 3 8 10 13 15 9 5
-3 12 -2 15 3 10 17 -33 10 -50 -9z"/>
<path d="M880 3030 c-9 -6 -10 -10 -3 -10 6 0 15 5 18 10 8 12 4 12 -15 0z"/>
<path d="M1138 3034 c-4 -5 0 -18 8 -29 15 -20 17 -12 5 19 -4 11 -10 15 -13
10z"/>
<path d="M2213 3034 c-8 -4 -6 -14 8 -37 18 -30 26 -57 13 -44 -4 3 -16 0 -26
-8 -20 -14 -83 -10 -103 6 -24 18 -131 -5 -189 -41 -38 -23 -48 -40 -36 -60 6
-10 9 -8 13 6 5 18 5 18 6 0 1 -19 2 -19 24 1 12 11 41 25 64 32 23 6 48 17
55 24 18 17 110 16 124 -1 8 -12 18 -12 52 -1 23 7 42 16 42 21 0 11 -17 10
-25 -2 -3 -5 -16 -10 -28 -9 -18 0 -15 4 13 17 19 8 39 15 43 14 5 -2 5 3 1 9
-3 6 0 15 7 20 12 7 12 10 0 21 -8 7 -11 9 -9 3 3 -5 0 -15 -7 -22 -11 -10
-15 -6 -23 17 -6 15 -8 31 -5 34 7 7 3 7 -14 0z m-186 -110 c-3 -3 -12 -4 -19
-1 -8 3 -5 6 6 6 11 1 17 -2 13 -5z"/>
<path d="M1420 3011 c5 -11 15 -23 21 -27 6 -3 3 5 -6 20 -20 30 -30 35 -15 7z"/>
<path d="M1548 3022 c-10 -2 -18 -8 -18 -13 0 -6 4 -8 9 -5 5 4 11 0 14 -6 6
-17 20 -4 15 14 -1 7 -11 12 -20 10z"/>
<path d="M1005 3010 c3 -5 8 -10 11 -10 2 0 4 5 4 10 0 6 -5 10 -11 10 -5 0
-7 -4 -4 -10z"/>
<path d="M1060 3016 c0 -2 8 -10 18 -17 15 -13 16 -12 3 4 -13 16 -21 21 -21
13z"/>
<path d="M1611 2988 c0 -13 3 -17 6 -10 5 12 33 17 33 6 0 -11 -55 -64 -67
-64 -7 0 -17 -9 -23 -20 -12 -22 -1 -27 18 -8 9 9 12 8 12 -5 0 -11 -16 -25
-42 -37 -50 -22 -44 -27 7 -6 23 10 39 26 49 50 8 20 22 39 30 42 9 3 13 10
10 16 -3 5 4 12 15 15 l21 5 -21 19 c-30 26 -49 24 -48 -3z"/>
<path d="M1865 2999 c-11 -16 -2 -17 25 -2 24 12 24 13 3 13 -12 0 -25 -5 -28
-11z"/>
<path d="M1260 2985 c0 -8 10 -19 23 -25 19 -9 20 -9 6 2 -9 7 -14 19 -12 26
3 6 0 12 -6 12 -6 0 -11 -7 -11 -15z"/>
<path d="M1509 2980 c27 -23 37 -25 47 -9 4 7 1 10 -7 7 -8 -3 -20 1 -27 9 -7
7 -19 13 -25 13 -7 -1 -1 -10 12 -20z"/>
<path d="M1716 2985 c-3 -8 -1 -15 4 -15 6 0 10 7 10 15 0 8 -2 15 -4 15 -2 0
-6 -7 -10 -15z"/>
<path d="M1756 2973 c-6 -14 -5 -15 5 -6 7 7 10 15 7 18 -3 3 -9 -2 -12 -12z"/>
<path d="M1184 2946 c14 -19 26 -38 26 -43 0 -4 11 -21 25 -37 14 -16 25 -36
25 -45 0 -12 3 -12 12 -3 9 9 9 15 3 20 -6 4 -31 37 -55 74 -25 38 -49 68 -54
68 -4 0 3 -15 18 -34z"/>
<path d="M2195 2970 c-3 -5 -2 -10 4 -10 5 0 13 5 16 10 3 6 2 10 -4 10 -5 0
-13 -4 -16 -10z"/>
<path d="M1316 2956 c3 -9 11 -16 16 -16 13 0 5 23 -10 28 -7 2 -10 -2 -6 -12z"/>
<path d="M1454 2959 c-7 -13 22 -46 32 -36 4 4 1 14 -7 24 -12 14 -12 16 0 8
10 -5 12 -4 7 3 -9 15 -23 15 -32 1z"/>
<path d="M1570 2950 c-8 -5 -25 -10 -38 -10 -15 0 -21 -4 -16 -12 4 -6 -5 -21
-22 -35 l-29 -23 27 2 c15 1 25 5 23 9 -6 9 41 51 73 65 15 7 20 13 12 13 -8
0 -22 -4 -30 -9z"/>
<path d="M1701 2944 c0 -11 3 -14 6 -6 3 7 2 16 -1 19 -3 4 -6 -2 -5 -13z"/>
<path d="M2291 2947 c-8 -10 -7 -14 4 -14 8 0 15 6 15 14 0 7 -2 13 -4 13 -2
0 -9 -6 -15 -13z"/>
<path d="M970 2910 c-14 -11 -20 -20 -13 -20 6 0 19 7 28 17 14 13 18 14 25 2
5 -7 12 -10 17 -6 4 5 1 12 -7 17 -20 13 -21 13 -50 -10z"/>
<path d="M2330 2921 c0 -4 -12 -6 -26 -3 l-27 5 22 -22 c13 -13 20 -29 17 -37
-3 -7 -2 -13 2 -13 21 4 31 -3 25 -17 -5 -13 -7 -13 -14 -2 -7 10 -9 10 -9 1
0 -21 -17 -15 -25 10 -4 12 -7 26 -6 30 1 5 -3 6 -9 2 -5 -3 -10 3 -10 14 0
25 -18 27 -46 6 -15 -11 -16 -15 -4 -16 8 -1 18 -1 21 -1 11 2 43 -38 45 -56
1 -9 7 -35 13 -57 6 -22 11 -66 11 -97 0 -53 -2 -58 -37 -87 -50 -42 -134 -73
-209 -79 l-61 -4 -39 46 c-47 56 -84 123 -84 151 0 25 38 70 68 79 12 4 22 11
22 16 0 9 152 70 174 70 7 0 21 7 32 15 50 39 -119 -13 -228 -70 -65 -34 -71
-42 -72 -117 -1 -31 -4 -42 -9 -32 -5 9 -7 35 -5 58 l3 43 -37 -19 c-32 -17
-36 -23 -27 -39 10 -20 5 -39 -12 -39 -5 0 -9 7 -9 15 0 8 -5 15 -11 15 -5 0
-7 5 -4 10 3 6 2 10 -3 10 -19 0 -20 -13 -1 -44 16 -28 17 -33 4 -33 -9 0 -18
11 -21 24 -4 12 -10 20 -15 18 -4 -3 -5 -13 -2 -23 6 -14 4 -15 -8 -5 -8 7
-26 17 -40 23 -22 9 -22 10 7 5 23 -4 33 -2 37 9 9 22 -2 25 -58 15 -27 -5
-56 -10 -62 -11 -7 -1 -13 -5 -13 -9 0 -4 -19 -10 -42 -14 -58 -10 -194 -70
-190 -85 1 -6 -2 -9 -8 -5 -5 3 -19 1 -30 -5 -15 -8 -20 -20 -19 -53 0 -23 4
-51 9 -62 7 -15 8 -10 4 16 -5 31 -1 40 32 72 21 20 46 40 56 43 10 3 18 9 18
14 0 5 16 12 35 16 19 3 35 10 35 16 0 5 4 7 9 4 5 -3 25 1 45 9 20 9 41 13
46 10 5 -3 11 -1 15 5 3 5 16 10 28 9 20 -1 20 -2 -3 -9 -19 -6 -14 -8 24 -7
37 1 51 -3 62 -18 10 -14 14 -15 15 -4 1 37 21 -42 22 -91 2 -88 -19 -147 -64
-177 -53 -35 -172 -73 -229 -73 -41 0 -52 4 -72 29 -14 15 -30 43 -38 60 -9
22 -15 28 -21 20 -5 -8 -14 -2 -28 22 -20 35 -28 44 -56 67 -10 9 -14 22 -10
35 5 17 4 19 -4 7 -9 -13 -11 -13 -11 -1 0 12 -2 13 -13 2 -10 -10 -9 -15 4
-24 18 -14 21 -44 4 -44 -7 0 -10 8 -7 19 2 10 0 18 -6 18 -16 0 -12 -148 4
-161 11 -9 14 -7 15 7 0 11 11 -15 24 -56 13 -41 22 -86 19 -100 -4 -21 -3
-22 4 -5 8 17 10 15 16 -17 3 -20 14 -39 22 -42 12 -4 14 -13 10 -32 -5 -17
-3 -23 4 -19 6 3 10 -3 10 -14 0 -12 5 -21 10 -21 6 0 10 -7 10 -15 0 -20 72
-114 88 -114 6 -1 12 -5 12 -9 0 -10 70 -50 96 -55 10 -2 27 -7 37 -12 9 -4
28 -5 42 -3 13 3 22 2 20 -2 -8 -13 152 -44 240 -46 82 -2 121 6 135 27 3 4
19 10 35 12 17 2 29 9 28 15 -2 7 4 9 14 5 12 -5 14 -3 8 7 -5 9 -4 11 3 6 7
-4 12 -2 12 5 0 7 3 10 6 6 8 -7 21 6 54 55 17 25 27 33 33 25 5 -7 6 -3 2 11
-7 23 10 32 18 10 3 -7 4 -3 4 9 -1 12 -6 19 -12 17 -5 -3 -3 1 5 8 29 26 91
147 111 213 20 70 17 252 -5 335 -10 35 -14 66 -9 67 13 5 6 145 -9 154 -10 7
-9 9 4 9 9 0 20 5 24 11 4 8 -1 9 -16 4 -17 -5 -21 -4 -17 6 2 8 10 13 16 11
6 -1 14 5 17 13 3 8 10 13 14 10 5 -3 11 -1 15 5 3 5 0 10 -8 10 -8 0 -17 9
-20 21 -3 12 -10 18 -16 14 -7 -3 -8 0 -5 9 3 9 10 13 15 10 5 -3 6 2 3 10 -7
17 -14 21 -14 7z m-70 -25 c0 -2 -7 -7 -16 -10 -8 -3 -12 -2 -9 4 6 10 25 14
25 6z m-410 -200 c0 -3 -4 -8 -10 -11 -5 -3 -10 -1 -10 4 0 6 5 11 10 11 6 0
10 -2 10 -4z m41 -103 c55 -76 93 -109 131 -117 58 -11 211 42 265 93 26 25
28 21 38 -74 12 -115 8 -221 -11 -282 -20 -66 -29 -82 -109 -211 -59 -95 -90
-125 -141 -138 -16 -4 -39 -14 -51 -22 -48 -31 -233 -26 -348 8 -110 34 -151
44 -157 42 -5 -1 -8 2 -8 8 0 5 -6 10 -14 10 -25 0 -71 46 -101 102 -15 29
-31 55 -34 58 -3 3 -7 11 -9 19 -1 7 -19 52 -38 100 -20 47 -45 112 -56 143
-11 32 -24 56 -28 53 -4 -2 -7 1 -8 8 0 7 -2 21 -4 32 -2 14 3 21 20 23 12 2
22 9 22 15 0 6 11 -4 24 -23 13 -19 22 -38 19 -42 -2 -5 0 -8 5 -8 5 0 17 -16
28 -35 10 -19 23 -35 28 -35 5 0 7 -3 3 -6 -18 -19 48 -48 103 -46 71 3 243
64 269 96 7 8 18 13 24 9 5 -3 8 -2 4 3 -3 5 1 34 9 64 8 30 14 81 14 113 0
70 12 97 45 97 18 0 35 -15 66 -57z"/>
<path d="M1844 2604 c4 -11 -1 -18 -14 -21 -20 -5 -28 -23 -11 -23 17 0 40 30
35 45 -4 8 -8 15 -11 15 -3 0 -2 -7 1 -16z"/>
<path d="M1848 2566 c-21 -16 -23 -26 -5 -26 7 0 30 -16 52 -36 38 -34 114
-74 138 -74 7 0 -7 11 -31 23 -46 24 -112 82 -112 99 0 6 -7 8 -14 5 -10 -4
-13 -1 -9 9 6 17 3 17 -19 0z"/>
<path d="M1801 2505 c0 -12 -5 -26 -11 -33 -5 -7 -3 -6 6 2 9 7 14 22 11 32
-4 17 -5 17 -6 -1z"/>
<path d="M2041 2386 c-6 -7 -22 -11 -34 -9 -18 4 -31 -4 -51 -27 -18 -23 -33
-31 -46 -27 -11 3 -18 1 -14 -4 3 -5 -14 -6 -40 -3 -36 5 -50 2 -74 -15 -26
-18 -31 -19 -42 -6 -6 8 -9 19 -5 25 3 5 -1 10 -10 10 -14 0 -16 -6 -10 -27 9
-36 8 -35 49 -38 29 -3 33 0 29 16 -5 18 0 19 71 17 65 -3 79 0 87 15 14 23
51 58 57 52 3 -3 -3 -15 -14 -26 l-19 -22 33 17 c18 9 36 25 39 34 4 9 11 20
17 24 8 5 8 8 0 8 -6 0 -17 -6 -23 -14z"/>
<path d="M2070 2321 c0 -5 7 -12 16 -15 14 -5 15 -4 4 9 -14 17 -20 19 -20 6z"/>
<path d="M2006 2299 c-11 -11 -18 -21 -15 -23 7 -7 41 22 38 32 -2 5 -13 1
-23 -9z"/>
<path d="M2111 2270 c3 -34 -1 -41 -21 -35 -10 3 -48 0 -82 -7 -57 -11 -60
-13 -33 -19 21 -5 24 -7 9 -8 -12 0 -51 -17 -87 -36 -36 -19 -74 -35 -84 -34
-16 0 -15 1 2 9 23 9 52 40 38 40 -5 0 -14 -5 -20 -11 -6 -6 -48 -23 -94 -39
-77 -27 -123 -60 -84 -60 9 0 18 7 21 15 4 10 20 15 43 15 21 0 58 6 83 14 29
8 51 10 62 4 10 -6 16 -5 16 1 0 5 -6 12 -12 15 -7 3 0 4 15 1 18 -4 33 0 43
10 18 18 117 48 142 43 9 -2 27 6 39 19 12 13 26 23 30 22 20 -3 33 2 33 14 0
7 -10 13 -22 14 -11 1 -25 8 -30 15 -7 10 -8 10 -7 -2z m-61 -50 c0 -5 -10
-10 -22 -9 -22 0 -22 1 -3 9 11 5 21 9 23 9 1 1 2 -3 2 -9z"/>
<path d="M1960 2248 c-12 -22 -12 -22 6 -6 10 10 15 20 12 24 -4 3 -12 -5 -18
-18z"/>
<path d="M1885 2220 c-3 -5 -1 -10 4 -10 6 0 11 5 11 10 0 6 -2 10 -4 10 -3 0
-8 -4 -11 -10z"/>
<path d="M2096 2169 c-8 -12 -19 -18 -25 -15 -5 4 -12 2 -16 -4 -3 -5 -18 -10
-33 -10 -21 0 -24 -2 -12 -10 13 -8 12 -10 -5 -11 -11 -1 -26 -2 -32 -2 -7 1
-10 -3 -7 -9 3 -5 -6 -6 -23 -3 -21 5 -24 4 -13 -4 13 -9 13 -11 -2 -11 -9 0
-20 5 -23 10 -4 7 -12 7 -24 0 -10 -5 -21 -6 -25 -3 -3 3 -6 2 -6 -4 0 -7 -12
-8 -37 -2 -35 7 -52 5 -42 -6 3 -2 37 -7 75 -11 59 -5 81 -3 135 16 35 13 69
28 74 35 6 6 18 14 27 18 9 3 22 15 28 26 14 27 5 27 -14 0z"/>
<path d="M2140 2173 c0 -6 8 -17 18 -24 16 -13 16 -13 2 6 -8 11 -16 22 -17
24 -2 2 -3 0 -3 -6z"/>
<path d="M1616 2154 c-4 -10 -1 -14 6 -12 15 5 23 28 10 28 -5 0 -13 -7 -16
-16z"/>
<path d="M2071 2084 c0 -11 3 -14 6 -6 3 7 2 16 -1 19 -3 4 -6 -2 -5 -13z"/>
<path d="M2045 2059 c-4 -6 -17 -14 -29 -19 -14 -6 -16 -9 -5 -9 9 -1 24 8 34
19 10 11 15 20 12 20 -3 0 -9 -5 -12 -11z"/>
<path d="M2201 2054 c0 -11 3 -14 6 -6 3 7 2 16 -1 19 -3 4 -6 -2 -5 -13z"/>
<path d="M2005 1960 c3 -5 13 -10 21 -10 8 0 14 5 14 10 0 6 -9 10 -21 10 -11
0 -17 -4 -14 -10z"/>
<path d="M2060 1960 c-9 -6 -10 -10 -3 -10 6 0 15 5 18 10 8 12 4 12 -15 0z"/>
<path d="M1077 2903 c3 -10 10 -23 15 -30 5 -7 4 -13 -4 -16 -8 -3 -6 -6 6 -6
13 -1 16 3 11 17 -4 9 -10 25 -12 35 -3 9 -9 17 -14 17 -5 0 -6 -8 -2 -17z"/>
<path d="M865 2899 c-4 -6 -5 -12 -2 -15 2 -3 7 2 10 11 7 17 1 20 -8 4z"/>
<path d="M1408 2896 c-16 -5 -28 -13 -28 -17 0 -8 75 12 85 23 10 10 -24 6
-57 -6z"/>
<path d="M890 2881 c0 -5 5 -13 10 -16 6 -3 10 -2 10 4 0 5 -4 13 -10 16 -5 3
-10 2 -10 -4z"/>
<path d="M1126 2882 c-3 -5 1 -15 9 -22 16 -14 20 -3 6 19 -5 8 -11 9 -15 3z"/>
<path d="M979 2878 c-3 -16 -7 -59 -5 -57 16 18 25 49 16 54 -5 3 -10 5 -11 3z"/>
<path d="M856 2855 c-3 -9 -6 -22 -5 -28 0 -7 5 -1 10 12 5 13 8 26 5 28 -2 2
-6 -3 -10 -12z"/>
<path d="M1076 2823 c34 -60 33 -59 31 -34 -1 11 -5 21 -9 21 -4 0 -8 7 -8 15
0 8 -4 15 -10 15 -5 0 -10 7 -10 15 0 8 -5 15 -11 15 -6 0 1 -21 17 -47z"/>
<path d="M1440 2866 c0 -2 7 -7 16 -10 8 -3 12 -2 9 4 -6 10 -25 14 -25 6z"/>
<path d="M1415 2850 c3 -5 8 -10 11 -10 2 0 4 5 4 10 0 6 -5 10 -11 10 -5 0
-7 -4 -4 -10z"/>
<path d="M2160 2855 c0 -3 23 -56 50 -117 28 -61 50 -118 50 -125 0 -18 17
-16 24 3 3 9 6 39 5 67 l-1 52 -11 -33 -12 -33 -12 31 c-6 16 -7 30 -2 30 5 0
9 10 10 23 0 21 1 21 10 2 13 -28 5 40 -10 78 -9 24 -16 27 -56 27 -25 0 -45
-2 -45 -5z m80 -30 c-10 -13 -11 -18 -1 -28 10 -9 11 -8 6 6 -5 10 -2 17 5 17
9 0 11 -11 7 -36 -8 -47 -15 -54 -33 -30 -17 24 -18 39 -1 31 6 -4 4 0 -7 9
-23 19 -14 46 15 46 18 0 20 -2 9 -15z"/>
<path d="M890 2825 c0 -8 2 -15 4 -15 2 0 6 7 10 15 3 8 1 15 -4 15 -6 0 -10
-7 -10 -15z"/>
<path d="M1038 2815 c-2 -19 3 -36 15 -47 9 -10 16 -26 16 -35 -1 -17 -2 -17
-6 0 -2 9 -8 17 -13 17 -5 0 -7 -8 -4 -17 11 -34 35 -83 40 -83 9 0 -8 45 -20
52 -8 5 -7 8 2 8 15 0 35 -48 29 -72 -4 -14 -2 -15 13 -6 22 14 50 -4 50 -31
0 -14 2 -14 10 -1 15 23 13 26 -20 40 -33 14 -60 54 -60 92 -1 13 -12 43 -24
68 l-24 45 -4 -30z"/>
<path d="M1110 2831 c0 -5 5 -13 10 -16 6 -3 10 -2 10 4 0 5 -4 13 -10 16 -5
3 -10 2 -10 -4z"/>
<path d="M1154 2819 c4 -13 8 -31 10 -39 2 -8 6 -14 9 -12 4 1 9 2 12 2 3 0
-1 10 -10 23 -8 13 -13 26 -9 29 3 3 0 9 -7 14 -9 5 -10 1 -5 -17z"/>
<path d="M925 2819 c-4 -6 -5 -12 -2 -15 2 -3 7 2 10 11 7 17 1 20 -8 4z"/>
<path d="M1575 2821 c3 -2 -3 -10 -13 -17 -9 -7 -12 -14 -6 -14 7 0 22 8 34
18 21 17 21 18 1 18 -11 0 -18 -2 -16 -5z"/>
<path d="M2376 2821 c-8 -13 5 -101 15 -101 5 0 5 7 2 17 -5 12 -3 14 8 8 12
-8 12 -6 1 8 -8 9 -11 21 -8 26 4 5 2 12 -3 16 -6 3 -8 12 -4 20 6 16 -2 21
-11 6z"/>
<path d="M1460 2810 c0 -5 7 -7 15 -4 8 4 15 8 15 10 0 2 -7 4 -15 4 -8 0 -15
-4 -15 -10z"/>
<path d="M1522 2803 c7 -9 7 -13 -1 -13 -6 0 -11 -5 -11 -11 0 -14 18 -2 29
19 7 14 5 18 -9 18 -14 0 -16 -3 -8 -13z"/>
<path d="M1875 2809 c-4 -6 -5 -12 -2 -15 2 -3 7 2 10 11 7 17 1 20 -8 4z"/>
<path d="M2035 2789 c-22 -12 -47 -27 -56 -35 -8 -8 -20 -14 -26 -14 -6 0 -13
-10 -16 -21 -4 -16 -11 -20 -27 -16 -17 4 -19 3 -9 -9 6 -7 15 -11 20 -8 5 3
9 -2 9 -10 0 -20 11 -20 36 -1 19 15 19 16 -1 14 -33 -2 -36 0 -17 19 16 17
18 17 33 -2 13 -15 21 -17 45 -9 32 11 44 44 23 69 -10 12 -7 14 20 12 20 -1
33 -9 37 -20 6 -21 40 -24 47 -4 6 15 -22 38 -58 50 -12 3 -36 -2 -60 -15z
m-10 -60 c-10 -15 -25 -10 -19 6 4 8 10 12 15 9 5 -3 7 -10 4 -15z"/>
<path d="M886 2791 c-4 -7 -5 -15 -2 -18 9 -9 19 4 14 18 -4 11 -6 11 -12 0z"/>
<path d="M936 2792 c-3 -5 1 -9 9 -9 8 0 12 4 9 9 -3 4 -7 8 -9 8 -2 0 -6 -4
-9 -8z"/>
<path d="M1210 2790 c-12 -8 -10 -10 8 -10 13 0 20 4 17 10 -7 12 -6 12 -25 0z"/>
<path d="M1435 2781 c-8 -7 -6 -21 3 -21 5 0 16 6 26 13 16 12 16 13 -4 13
-11 0 -23 -2 -25 -5z"/>
<path d="M1300 2765 c-16 -19 -1 -19 24 0 16 12 17 15 4 15 -8 0 -21 -7 -28
-15z"/>
<path d="M1346 2764 c-4 -10 -1 -14 6 -12 15 5 23 28 10 28 -5 0 -13 -7 -16
-16z"/>
<path d="M1392 2755 c-27 -33 -28 -55 -4 -55 13 0 14 2 3 9 -11 7 -9 13 8 30
12 12 21 27 19 33 -2 6 -14 -1 -26 -17z"/>
<path d="M1555 2770 c3 -5 11 -10 16 -10 6 0 7 5 4 10 -3 6 -11 10 -16 10 -6
0 -7 -4 -4 -10z"/>
<path d="M1130 2756 c0 -8 7 -21 15 -30 19 -18 19 -21 0 -39 -13 -13 -11 -17
13 -33 l27 -17 -19 21 c-20 23 -10 30 14 10 8 -7 6 -2 -5 11 l-20 24 25 -6 25
-6 -27 24 c-16 13 -28 28 -28 34 0 5 -4 13 -10 16 -5 3 -10 -1 -10 -9z"/>
<path d="M1480 2760 c-9 -6 -10 -10 -3 -10 6 0 15 5 18 10 8 12 4 12 -15 0z"/>
<path d="M1177 2754 c-7 -7 11 -25 52 -54 26 -18 27 -30 2 -30 -11 0 -23 -4
-26 -10 -3 -5 -2 -10 4 -10 5 0 17 -3 27 -7 12 -4 15 -3 10 5 -4 7 -1 15 8 18
21 8 21 34 0 34 -9 0 -12 5 -8 12 5 7 3 8 -6 3 -10 -6 -12 -4 -7 9 5 12 2 16
-11 14 -9 -2 -16 3 -14 10 2 13 -20 17 -31 6z"/>
<path d="M1299 2719 c-23 -19 -23 -20 -2 -10 12 6 25 16 28 21 10 16 -1 12
-26 -11z"/>
<path d="M1428 2733 c-10 -2 -18 -9 -18 -13 0 -6 11 -5 26 0 14 6 29 8 34 5 5
-3 11 -1 15 5 6 10 -24 12 -57 3z"/>
<path d="M2191 2724 c0 -11 3 -14 6 -6 3 7 2 16 -1 19 -3 4 -6 -2 -5 -13z"/>
<path d="M927 2714 c-3 -4 1 -13 11 -20 21 -16 32 -17 32 -4 0 6 -6 10 -14 10
-8 0 -16 5 -18 11 -2 5 -7 7 -11 3z"/>
<path d="M1116 2698 c3 -5 10 -6 15 -3 13 9 11 12 -6 12 -8 0 -12 -4 -9 -9z"/>
<path d="M1291 2655 c-24 -25 -41 -48 -38 -52 4 -3 7 -1 7 5 0 7 7 12 16 12 8
0 12 5 9 10 -3 6 -3 10 2 10 4 0 24 14 43 30 21 18 29 30 20 30 -8 0 -35 -20
-59 -45z"/>
<path d="M2052 2684 c-20 -10 -21 -12 -7 -18 25 -9 43 -8 27 2 -8 6 -2 9 17 9
27 0 28 -2 13 -13 -24 -17 -9 -28 17 -12 50 31 -11 60 -67 32z"/>
<path d="M1995 2659 c-4 -6 -14 -8 -22 -5 -8 3 -11 1 -8 -4 3 -6 0 -10 -7 -10
-7 0 0 -11 16 -25 16 -13 33 -22 39 -18 6 4 4 9 -7 13 -10 3 -18 10 -18 14 0
13 30 28 42 21 6 -3 10 -2 10 3 0 6 -7 13 -16 16 -21 8 -22 8 -29 -5z"/>
<path d="M1021 2654 c-1 -13 28 -74 35 -74 7 0 -7 44 -16 50 -4 3 -10 12 -13
20 -3 8 -6 10 -6 4z"/>
<path d="M2383 2625 c-3 -9 -3 -18 -1 -21 3 -3 8 4 11 16 6 23 -1 27 -10 5z"/>
<path d="M1654 2609 c0 -9 5 -15 11 -12 7 2 12 10 12 17 0 7 -5 13 -12 13 -6
0 -11 -8 -11 -18z"/>
<path d="M2060 2620 c-13 -8 -13 -10 2 -10 9 0 20 5 23 10 8 13 -5 13 -25 0z"/>
<path d="M1118 2613 c-10 -2 -18 -9 -18 -14 0 -14 16 -11 30 6 7 8 11 14 9 14
-2 -1 -12 -3 -21 -6z"/>
<path d="M1547 2613 c-26 -2 -45 -8 -42 -12 2 -5 -2 -14 -11 -22 -13 -10 -16
-9 -20 9 -6 20 -7 20 -32 -6 -15 -15 -36 -38 -47 -51 -18 -21 -18 -24 -2 -18
9 4 17 3 17 0 0 -4 -8 -15 -17 -26 -18 -20 -18 -20 11 -1 16 10 43 18 60 17
l31 -2 -30 7 c-31 7 -32 11 -16 40 9 16 11 15 27 -6 13 -19 22 -22 43 -17 32
8 43 23 36 53 -5 20 -3 23 15 18 11 -3 29 -9 40 -12 11 -3 20 -12 20 -20 0 -8
5 -14 10 -14 18 0 11 26 -13 48 -13 12 -25 21 -28 20 -2 -1 -25 -3 -52 -5z
m-17 -54 c0 -5 -7 -9 -15 -9 -15 0 -20 12 -9 23 8 8 24 -1 24 -14z"/>
<path d="M2185 2590 c-3 -5 -2 -10 4 -10 5 0 13 5 16 10 3 6 2 10 -4 10 -5 0
-13 -4 -16 -10z"/>
<path d="M1120 2580 c-13 -8 -13 -10 2 -10 9 0 20 5 23 10 8 13 -5 13 -25 0z"/>
<path d="M1730 2575 c0 -8 -4 -15 -10 -15 -5 0 -10 -11 -10 -25 0 -25 14 -33
25 -15 3 6 1 10 -4 10 -6 0 -11 5 -11 11 0 5 5 7 10 4 6 -4 10 5 10 19 0 14
-2 26 -5 26 -3 0 -5 -7 -5 -15z"/>
<path d="M2209 2573 c-13 -15 -12 -15 9 -4 23 12 28 21 13 21 -5 0 -15 -7 -22
-17z"/>
<path d="M1080 2568 c0 -10 9 -22 20 -28 14 -8 20 -8 20 0 0 6 5 8 12 4 7 -4
8 -3 4 5 -4 6 -12 9 -17 5 -6 -3 -17 2 -24 12 -13 17 -14 17 -15 2z"/>
<path d="M1594 2554 c-18 -14 -18 -15 4 -4 12 6 22 13 22 15 0 8 -5 6 -26 -11z"/>
<path d="M1071 2514 c6 -8 18 -14 26 -14 20 0 8 16 -17 23 -17 4 -19 3 -9 -9z"/>
<path d="M1580 2521 c0 -9 24 -21 41 -21 5 0 9 4 9 10 0 5 -7 7 -15 4 -8 -4
-15 -1 -15 5 0 6 -4 11 -10 11 -5 0 -10 -4 -10 -9z"/>
<path d="M859 2483 c-1 -5 -1 -12 0 -16 1 -4 -6 -10 -14 -13 -8 -4 -15 -14
-15 -24 0 -23 78 -176 88 -173 5 1 23 -39 42 -89 32 -87 33 -91 15 -104 -16
-12 -16 -14 -3 -14 31 0 29 37 -6 131 -56 153 -68 178 -86 184 -9 3 -22 17
-29 32 -10 22 -9 29 10 49 13 14 17 24 10 24 -7 0 -9 5 -6 10 3 6 4 10 1 10
-3 0 -7 -3 -7 -7z"/>
<path d="M1480 2479 c0 -5 5 -7 10 -4 6 3 10 8 10 11 0 2 -4 4 -10 4 -5 0 -10
-5 -10 -11z"/>
<path d="M1550 2480 c0 -5 5 -10 10 -10 6 0 10 5 10 10 0 6 -4 10 -10 10 -5 0
-10 -4 -10 -10z"/>
<path d="M1340 2451 c0 -6 4 -13 10 -16 6 -3 7 1 4 9 -7 18 -14 21 -14 7z"/>
<path d="M1115 2367 c-4 -18 -5 -49 -3 -68 2 -27 5 -20 13 34 10 67 1 96 -10
34z"/>
<path d="M1375 2379 c-4 -6 -5 -12 -2 -15 2 -3 7 2 10 11 7 17 1 20 -8 4z"/>
<path d="M805 2320 c-4 -6 -11 -8 -16 -5 -5 4 -9 2 -9 -4 0 -5 4 -12 8 -15 4
-3 14 -28 22 -56 8 -28 18 -53 22 -56 11 -7 10 1 -8 57 -9 27 -14 58 -11 69 6
22 2 26 -8 10z"/>
<path d="M993 2275 c6 -19 14 -35 19 -35 5 0 6 -5 2 -12 -5 -7 -3 -8 6 -3 9 5
10 1 6 -16 -5 -18 -4 -20 3 -9 7 11 3 29 -12 63 -26 55 -40 62 -24 12z"/>
<path d="M1221 2234 c0 -11 3 -14 6 -6 3 7 2 16 -1 19 -3 4 -6 -2 -5 -13z"/>
<path d="M1121 2224 c0 -11 3 -14 6 -6 3 7 2 16 -1 19 -3 4 -6 -2 -5 -13z"/>
<path d="M2370 2220 c0 -5 5 -10 10 -10 6 0 10 5 10 10 0 6 -4 10 -10 10 -5 0
-10 -4 -10 -10z"/>
<path d="M851 2194 c0 -11 3 -14 6 -6 3 7 2 16 -1 19 -3 4 -6 -2 -5 -13z"/>
<path d="M1217 2171 c-4 -17 -3 -21 5 -13 5 5 8 16 6 23 -3 8 -7 3 -11 -10z"/>
<path d="M2371 2164 c0 -11 3 -14 6 -6 3 7 2 16 -1 19 -3 4 -6 -2 -5 -13z"/>
<path d="M840 2165 c0 -16 31 -77 37 -72 3 4 0 13 -6 21 -7 8 -11 19 -8 23 3
4 -1 14 -9 21 -8 7 -14 10 -14 7z"/>
<path d="M2346 2133 c-6 -14 -5 -15 5 -6 7 7 10 15 7 18 -3 3 -9 -2 -12 -12z"/>
<path d="M2381 2124 c0 -11 3 -14 6 -6 3 7 2 16 -1 19 -3 4 -6 -2 -5 -13z"/>
<path d="M1290 2110 c0 -5 5 -10 11 -10 5 0 7 5 4 10 -3 6 -8 10 -11 10 -2 0
-4 -4 -4 -10z"/>
<path d="M2301 2094 c0 -11 3 -14 6 -6 3 7 2 16 -1 19 -3 4 -6 -2 -5 -13z"/>
<path d="M876 2063 c-6 -14 -5 -15 5 -6 7 7 10 15 7 18 -3 3 -9 -2 -12 -12z"/>
<path d="M2417 2001 c-4 -17 -3 -21 5 -13 5 5 8 16 6 23 -3 8 -7 3 -11 -10z"/>
<path d="M2291 1984 c0 -11 3 -14 6 -6 3 7 2 16 -1 19 -3 4 -6 -2 -5 -13z"/>
<path d="M2421 1924 c0 -11 3 -14 6 -6 3 7 2 16 -1 19 -3 4 -6 -2 -5 -13z"/>
<path d="M2250 1838 c0 -36 12 -31 16 7 1 14 -2 25 -7 25 -5 0 -9 -14 -9 -32z"/>
<path d="M2362 1850 c0 -14 2 -19 5 -12 2 6 2 18 0 25 -3 6 -5 1 -5 -13z"/>
<path d="M1451 1834 c0 -11 3 -14 6 -6 3 7 2 16 -1 19 -3 4 -6 -2 -5 -13z"/>
<path d="M2121 1837 c-16 -21 -52 -139 -46 -155 7 -20 -16 -105 -27 -94 -5 5
-2 24 7 46 9 21 14 40 11 43 -8 8 -27 -8 -21 -17 3 -5 1 -17 -4 -27 -21 -38
-101 -213 -101 -222 0 -5 -7 -12 -16 -15 -24 -9 -164 -7 -214 4 -101 22 -97
22 -76 5 11 -8 30 -15 43 -15 13 0 23 -4 23 -8 0 -4 36 -7 80 -7 59 1 80 -2
80 -12 0 -7 5 -13 10 -13 6 0 10 4 10 9 0 5 9 11 20 14 14 4 20 0 21 -11 0
-11 4 -8 11 8 l11 25 8 -25 c6 -18 7 -13 3 16 -4 27 -1 45 7 49 9 6 10 1 5
-19 -3 -14 -3 -26 2 -26 4 0 13 28 19 62 7 35 17 64 22 66 6 2 13 19 17 38 4
20 10 32 15 27 16 -16 -24 -188 -41 -178 -5 3 -6 -4 -3 -15 3 -11 -1 -28 -8
-37 -8 -9 -9 -14 -2 -10 6 4 14 1 16 -5 3 -7 6 2 6 20 1 18 8 40 16 48 8 9 15
25 15 37 0 12 6 34 14 48 7 15 10 32 6 39 -4 7 -5 21 -2 32 3 13 7 16 12 8 5
-8 9 -7 13 5 4 10 3 14 -4 10 -11 -8 -2 44 12 59 4 5 5 15 2 22 -3 8 -1 20 4
27 5 6 10 28 12 47 3 47 20 100 32 100 6 0 7 -5 3 -12 -4 -7 -3 -8 5 -4 12 8
6 26 -8 26 -5 0 -14 -6 -20 -13z"/>
<path d="M2295 1840 c-3 -5 -1 -10 4 -10 6 0 11 5 11 10 0 6 -2 10 -4 10 -3 0
-8 -4 -11 -10z"/>
<path d="M2405 1820 c3 -5 8 -10 11 -10 2 0 4 5 4 10 0 6 -5 10 -11 10 -5 0
-7 -4 -4 -10z"/>
<path d="M1455 1800 c3 -5 8 -10 11 -10 2 0 4 5 4 10 0 6 -5 10 -11 10 -5 0
-7 -4 -4 -10z"/>
<path d="M2131 1784 c0 -11 3 -14 6 -6 3 7 2 16 -1 19 -3 4 -6 -2 -5 -13z"/>
<path d="M2198 1770 c-3 -17 -1 -33 4 -36 4 -3 8 11 8 30 0 44 -6 47 -12 6z"/>
<path d="M2242 1780 c0 -14 2 -19 5 -12 2 6 2 18 0 25 -3 6 -5 1 -5 -13z"/>
<path d="M2281 1784 c0 -11 3 -14 6 -6 3 7 2 16 -1 19 -3 4 -6 -2 -5 -13z"/>
<path d="M1460 1754 c0 -10 5 -26 10 -34 8 -12 10 -9 7 12 -4 32 -17 50 -17
22z"/>
<path d="M2220 1705 c0 -27 2 -46 5 -44 7 8 9 78 2 85 -4 4 -7 -14 -7 -41z"/>
<path d="M1570 1736 c0 -2 7 -6 15 -10 8 -3 15 -1 15 4 0 6 -7 10 -15 10 -8 0
-15 -2 -15 -4z"/>
<path d="M1477 1683 c4 -10 20 -28 35 -42 16 -13 26 -26 24 -29 -3 -3 0 -12 7
-20 10 -13 9 -14 -2 -8 -9 6 -12 4 -9 -5 3 -8 11 -14 19 -14 8 0 14 -7 15 -15
0 -8 4 -26 8 -39 5 -13 9 -36 10 -51 2 -21 -2 -26 -15 -23 -9 3 -20 -1 -24 -8
-5 -8 -4 -10 4 -5 14 9 43 -12 35 -25 -3 -5 1 -9 8 -9 19 0 21 78 3 136 -8 26
-12 51 -9 55 5 8 -95 119 -108 119 -4 0 -4 -8 -1 -17z"/>
<path d="M1030 1665 c0 -8 2 -15 4 -15 2 0 6 7 10 15 3 8 1 15 -4 15 -6 0 -10
-7 -10 -15z"/>
<path d="M1092 1660 c0 -14 2 -19 5 -12 2 6 2 18 0 25 -3 6 -5 1 -5 -13z"/>
<path d="M2512 1620 c0 -14 2 -19 5 -12 2 6 2 18 0 25 -3 6 -5 1 -5 -13z"/>
<path d="M2556 1608 c3 -5 10 -6 15 -3 13 9 11 12 -6 12 -8 0 -12 -4 -9 -9z"/>
<path d="M2600 1610 c-13 -9 -13 -10 0 -10 13 0 13 -1 0 -11 -12 -8 -12 -10
-1 -7 8 2 15 12 17 21 3 20 3 19 -16 7z"/>
<path d="M793 1579 c-2 -23 3 -25 10 -4 4 8 3 16 -1 19 -4 3 -9 -4 -9 -15z"/>
<path d="M713 1575 c0 -8 4 -12 9 -9 5 3 6 10 3 15 -9 13 -12 11 -12 -6z"/>
<path d="M1062 1570 c0 -14 2 -19 5 -12 2 6 2 18 0 25 -3 6 -5 1 -5 -13z"/>
<path d="M1506 1562 c-3 -5 1 -15 9 -22 8 -7 12 -17 8 -23 -3 -6 -1 -7 5 -3 8
4 12 0 12 -11 0 -15 2 -16 10 -3 5 8 6 17 1 20 -4 3 -14 15 -23 28 -9 13 -19
19 -22 14z"/>
<path d="M2642 1545 c0 -16 2 -22 5 -12 2 9 2 23 0 30 -3 6 -5 -1 -5 -18z"/>
<path d="M2665 1550 c-4 -6 0 -10 8 -10 8 0 20 -7 27 -15 7 -8 21 -15 31 -15
11 0 36 -9 56 -20 42 -22 59 -25 68 -10 3 5 0 7 -9 4 -8 -3 -33 6 -55 20 -23
15 -41 23 -41 20 0 -3 -10 0 -22 8 -35 22 -57 28 -63 18z"/>
<path d="M658 1531 c-21 -21 -23 -31 -6 -31 6 0 9 3 5 6 -3 4 4 15 16 25 12
10 18 18 12 18 -5 0 -18 -8 -27 -18z"/>
<path d="M704 1529 c-8 -13 13 -36 23 -24 5 4 2 10 -5 12 -6 3 -10 9 -6 14 3
5 3 9 0 9 -3 0 -8 -5 -12 -11z"/>
<path d="M2590 1511 c0 -25 6 -27 13 -6 4 8 2 17 -3 20 -6 4 -10 -3 -10 -14z"/>
<path d="M771 1494 c0 -11 3 -14 6 -6 3 7 2 16 -1 19 -3 4 -6 -2 -5 -13z"/>
<path d="M2645 1480 c3 -5 8 -10 11 -10 2 0 4 5 4 10 0 6 -5 10 -11 10 -5 0
-7 -4 -4 -10z"/>
<path d="M2671 1478 c-1 -19 35 -84 61 -110 17 -17 18 -17 18 2 0 11 -4 20
-10 20 -5 0 -10 6 -10 13 0 7 -11 24 -23 38 -13 13 -27 31 -30 39 -4 12 -6 11
-6 -2z"/>
<path d="M666 1465 c-3 -8 -1 -15 4 -15 6 0 10 7 10 15 0 8 -2 15 -4 15 -2 0
-6 -7 -10 -15z"/>
<path d="M2735 1460 c-3 -5 -1 -10 4 -10 6 0 11 5 11 10 0 6 -2 10 -4 10 -3 0
-8 -4 -11 -10z"/>
<path d="M2859 1453 c-13 -15 -12 -15 9 -4 12 6 22 8 22 3 0 -6 9 -12 21 -15
20 -5 20 -5 3 14 -21 23 -37 24 -55 2z"/>
<path d="M500 1456 c0 -2 7 -7 16 -10 8 -3 12 -2 9 4 -6 10 -25 14 -25 6z"/>
<path d="M560 1451 c0 -5 -15 -15 -34 -21 -19 -6 -40 -18 -47 -26 -7 -8 -19
-12 -27 -9 -7 3 -18 3 -22 0 -11 -7 -2 -35 11 -35 4 0 5 8 2 18 -6 14 -4 15 9
4 9 -7 18 -9 20 -4 3 8 71 52 81 52 3 0 3 -9 0 -20 -3 -11 0 -26 6 -34 6 -7 9
-20 5 -29 -4 -12 0 -15 20 -13 17 2 27 -3 31 -14 3 -10 26 -40 50 -66 25 -27
47 -57 51 -66 3 -10 10 -18 15 -18 5 0 9 -6 9 -14 0 -7 7 -19 15 -26 19 -16
19 -30 -1 -30 -8 0 -13 4 -10 9 3 5 -1 12 -10 15 -9 4 -14 13 -10 22 3 8 2 13
-3 10 -4 -3 -14 6 -21 19 -15 28 -30 33 -30 10 0 -8 6 -15 13 -15 8 0 7 -4 -3
-10 -13 -8 -12 -10 3 -10 10 0 16 -4 13 -8 -3 -5 4 -16 15 -25 11 -10 17 -22
14 -28 -4 -5 -1 -8 6 -7 6 2 14 -3 17 -11 3 -9 0 -11 -9 -6 -8 5 -11 4 -6 -1
5 -5 14 -9 20 -9 7 -1 11 -7 9 -14 -1 -7 1 -10 6 -7 5 3 19 -8 31 -24 14 -20
17 -30 9 -30 -10 0 -10 -2 1 -9 8 -5 10 -14 6 -22 -5 -8 1 -5 13 5 23 20 30
32 12 21 -5 -3 -10 -2 -10 4 0 16 24 19 38 4 7 -7 10 -18 6 -24 -4 -8 -3 -9 4
-5 17 10 15 19 -8 44 -11 12 -20 25 -20 29 0 20 -12 42 -22 40 -6 -1 -13 4
-16 12 -3 9 0 11 9 6 8 -5 11 -4 6 1 -5 5 -12 9 -17 9 -16 0 -120 146 -113
158 2 4 0 6 -5 5 -5 -2 -25 16 -45 40 -20 24 -47 52 -59 62 -23 18 -33 70 -15
81 5 4 5 9 -2 13 -6 4 -11 3 -11 -3z m249 -391 c15 -21 32 -36 36 -32 3 4 5 0
3 -8 -1 -8 -7 -18 -12 -22 -11 -7 -36 14 -29 25 2 4 -1 7 -8 7 -7 0 -10 3 -6
6 3 3 -3 14 -14 25 -11 11 -17 24 -14 29 9 15 13 13 44 -30z"/>
<path d="M635 1440 c-3 -5 -1 -10 4 -10 6 0 11 5 11 10 0 6 -2 10 -4 10 -3 0
-8 -4 -11 -10z"/>
<path d="M610 1422 c0 -5 16 -21 35 -36 19 -16 35 -34 35 -41 0 -7 3 -15 8
-17 4 -1 20 -20 35 -41 16 -21 33 -34 39 -31 7 5 5 11 -5 19 -10 7 -17 17 -17
24 0 6 -7 11 -16 11 -11 0 -15 6 -11 20 3 11 1 18 -4 14 -5 -3 -9 1 -9 9 0 8
-7 18 -16 21 -8 3 -13 10 -9 16 3 5 -8 16 -24 25 -34 17 -41 18 -41 7z"/>
<path d="M830 1411 c0 -12 5 -21 10 -21 6 0 10 6 10 14 0 8 -4 18 -10 21 -5 3
-10 -3 -10 -14z"/>
<path d="M1040 1419 c0 -5 5 -7 10 -4 6 3 10 8 10 11 0 2 -4 4 -10 4 -5 0 -10
-5 -10 -11z"/>
<path d="M2471 1414 c0 -11 3 -14 6 -6 3 7 2 16 -1 19 -3 4 -6 -2 -5 -13z"/>
<path d="M2954 1414 c10 -10 46 -33 79 -50 34 -17 71 -41 83 -53 12 -12 28
-19 36 -16 7 3 23 -3 33 -12 28 -25 75 -55 75 -47 0 3 -11 15 -25 26 -14 11
-22 24 -19 30 4 6 3 8 -3 5 -5 -3 -27 0 -49 8 -21 8 -34 14 -29 15 6 0 -12 12
-40 26 -27 14 -52 29 -55 32 -4 6 -57 34 -95 51 -5 2 -1 -4 9 -15z"/>
<path d="M2675 1388 c3 -14 2 -28 -3 -31 -4 -2 -1 -2 6 -1 6 2 12 -2 12 -8 0
-6 2 -9 6 -6 3 3 -2 21 -11 39 -13 29 -14 30 -10 7z"/>
<path d="M2770 1399 c0 -5 5 -7 10 -4 6 3 10 8 10 11 0 2 -4 4 -10 4 -5 0 -10
-5 -10 -11z"/>
<path d="M2797 1390 c-4 -15 0 -20 15 -20 18 0 19 2 7 18 -7 9 -14 18 -15 20
-1 1 -4 -6 -7 -18z"/>
<path d="M955 1389 c-4 -6 -5 -12 -2 -15 2 -3 7 2 10 11 7 17 1 20 -8 4z"/>
<path d="M1564 1378 c2 -16 -1 -28 -6 -28 -5 0 -6 -5 -2 -11 14 -23 27 8 15
38 l-11 28 4 -27z"/>
<path d="M2550 1376 c0 -8 4 -17 9 -20 5 -4 7 3 4 14 -6 23 -13 26 -13 6z"/>
<path d="M500 1376 c0 -2 7 -6 15 -10 8 -3 15 -1 15 4 0 6 -7 10 -15 10 -8 0
-15 -2 -15 -4z"/>
<path d="M1605 1350 c3 -5 8 -10 11 -10 2 0 4 5 4 10 0 6 -5 10 -11 10 -5 0
-7 -4 -4 -10z"/>
<path d="M3336 1342 c-3 -5 1 -9 9 -9 8 0 12 4 9 9 -3 4 -7 8 -9 8 -2 0 -6 -4
-9 -8z"/>
<path d="M533 1324 c-7 -7 -13 -16 -13 -19 0 -14 -26 -31 -40 -28 -13 4 -13 3
0 -6 23 -16 26 -14 50 25 23 36 24 52 3 28z"/>
<path d="M2756 1330 c6 -8 13 -22 16 -30 3 -9 7 -10 11 -3 4 6 -3 19 -16 29
-12 11 -17 12 -11 4z"/>
<path d="M3050 1336 c0 -4 9 -16 20 -28 11 -12 20 -17 20 -11 0 5 -9 18 -20
28 -11 10 -20 15 -20 11z"/>
<path d="M1916 1315 c-9 -26 -7 -32 5 -12 6 10 9 21 6 23 -2 3 -7 -2 -11 -11z"/>
<path d="M425 1266 c4 -28 11 -56 17 -63 6 -7 4 -13 -4 -16 -8 -4 -7 -6 5 -6
19 -1 23 14 6 25 -7 4 -10 25 -6 59 4 41 2 52 -10 52 -12 0 -13 -10 -8 -51z"/>
<path d="M580 1310 c0 -5 3 -10 8 -10 4 0 21 -23 37 -50 17 -27 33 -50 37 -50
18 0 17 21 -2 40 -11 11 -18 20 -16 20 3 0 -9 14 -26 30 -32 32 -38 36 -38 20z"/>
<path d="M1651 1304 c0 -11 3 -14 6 -6 3 7 2 16 -1 19 -3 4 -6 -2 -5 -13z"/>
<path d="M2402 1300 c0 -14 2 -19 5 -12 2 6 2 18 0 25 -3 6 -5 1 -5 -13z"/>
<path d="M2820 1310 c0 -5 5 -10 10 -10 6 0 10 5 10 10 0 6 -4 10 -10 10 -5 0
-10 -4 -10 -10z"/>
<path d="M1616 1295 c-9 -26 -7 -32 5 -12 6 10 9 21 6 23 -2 3 -7 -2 -11 -11z"/>
<path d="M816 1285 c-3 -8 -1 -15 4 -15 6 0 10 7 10 15 0 8 -2 15 -4 15 -2 0
-6 -7 -10 -15z"/>
<path d="M2430 1280 c0 -11 4 -20 9 -20 5 0 7 9 4 20 -3 11 -7 20 -9 20 -2 0
-4 -9 -4 -20z"/>
<path d="M3045 1288 c4 -11 0 -18 -12 -21 -15 -4 -16 -5 -1 -6 22 -1 33 18 19
32 -9 9 -11 8 -6 -5z"/>
<path d="M560 1275 c0 -8 4 -15 10 -15 5 0 7 7 4 15 -4 8 -8 15 -10 15 -2 0
-4 -7 -4 -15z"/>
<path d="M900 1283 c0 -15 18 -35 23 -27 3 5 -1 15 -9 22 -8 7 -14 9 -14 5z"/>
<path d="M1525 1265 c7 -33 12 -41 20 -33 3 3 -2 18 -11 34 l-16 29 7 -30z"/>
<path d="M1967 1284 c-3 -5 1 -15 9 -22 16 -14 18 -5 5 17 -5 7 -11 9 -14 5z"/>
<path d="M1499 1248 c4 -28 6 -29 9 -9 2 13 0 27 -5 32 -6 6 -7 -3 -4 -23z"/>
<path d="M1570 1270 c-8 -5 -12 -12 -9 -15 4 -3 12 1 19 10 14 17 11 19 -10 5z"/>
<path d="M3108 1268 c5 -5 16 -8 23 -6 8 3 3 7 -10 11 -17 4 -21 3 -13 -5z"/>
<path d="M2321 1254 c0 -11 3 -14 6 -6 3 7 2 16 -1 19 -3 4 -6 -2 -5 -13z"/>
<path d="M2396 1261 c-3 -5 1 -11 9 -14 9 -4 12 -1 8 9 -6 16 -10 17 -17 5z"/>
<path d="M2461 1254 c0 -11 3 -14 6 -6 3 7 2 16 -1 19 -3 4 -6 -2 -5 -13z"/>
<path d="M2543 1245 c12 -25 27 -34 27 -16 0 9 -27 41 -35 41 -2 0 2 -11 8
-25z"/>
<path d="M1947 1228 c-4 -21 -12 -38 -18 -38 -6 0 -7 -5 -3 -11 10 -17 36 37
32 64 -3 16 -6 12 -11 -15z"/>
<path d="M3070 1250 c0 -5 5 -10 11 -10 5 0 7 5 4 10 -3 6 -8 10 -11 10 -2 0
-4 -4 -4 -10z"/>
<path d="M3170 1256 c0 -3 9 -10 20 -16 11 -6 20 -8 20 -6 0 3 -9 10 -20 16
-11 6 -20 8 -20 6z"/>
<path d="M372 1230 c0 -14 2 -19 5 -12 2 6 2 18 0 25 -3 6 -5 1 -5 -13z"/>
<path d="M870 1241 c0 -6 4 -13 10 -16 6 -3 7 1 4 9 -7 18 -14 21 -14 7z"/>
<path d="M1921 1234 c0 -11 3 -14 6 -6 3 7 2 16 -1 19 -3 4 -6 -2 -5 -13z"/>
<path d="M2355 1241 c-3 -5 -1 -12 5 -16 5 -3 10 1 10 9 0 18 -6 21 -15 7z"/>
<path d="M2745 1224 c13 -20 14 -28 5 -34 -9 -5 -9 -9 -1 -14 6 -4 11 -2 11 3
0 6 5 11 10 11 6 0 10 -7 10 -15 0 -9 10 -30 22 -48 13 -18 24 -34 25 -36 2
-2 6 -2 9 1 7 7 -88 157 -100 158 -4 0 -1 -12 9 -26z"/>
<path d="M3116 1233 c-6 -14 -5 -15 5 -6 7 7 10 15 7 18 -3 3 -9 -2 -12 -12z"/>
<path d="M791 1214 c0 -11 3 -14 6 -6 3 7 2 16 -1 19 -3 4 -6 -2 -5 -13z"/>
<path d="M1411 1214 c0 -11 3 -14 6 -6 3 7 2 16 -1 19 -3 4 -6 -2 -5 -13z"/>
<path d="M3290 1211 c14 -11 30 -21 35 -21 11 0 -7 14 -40 31 -13 7 -12 3 5
-10z"/>
<path d="M1540 1180 c0 -26 5 -51 12 -58 7 -7 8 -12 2 -12 -5 0 -8 -18 -6 -40
2 -22 8 -40 13 -40 5 0 9 -16 9 -35 0 -19 5 -35 10 -35 13 0 13 15 -6 134 -19
117 -33 154 -34 86z"/>
<path d="M2312 1200 c7 -10 14 -18 15 -16 6 6 -9 36 -18 36 -5 0 -4 -9 3 -20z"/>
<path d="M3193 1205 c0 -8 4 -12 9 -9 5 3 6 10 3 15 -9 13 -12 11 -12 -6z"/>
<path d="M1360 1205 c0 -5 5 -17 10 -25 5 -8 10 -10 10 -5 0 6 -5 17 -10 25
-5 8 -10 11 -10 5z"/>
<path d="M485 1190 c-3 -6 1 -7 9 -4 18 7 21 14 7 14 -6 0 -13 -4 -16 -10z"/>
<path d="M2348 1175 c2 -14 8 -25 13 -25 5 0 7 -12 4 -27 -3 -21 -2 -19 7 6 9
27 9 36 0 39 -7 2 -12 10 -12 18 0 8 -4 14 -9 14 -4 0 -6 -11 -3 -25z"/>
<path d="M3327 1148 c8 -44 13 -48 13 -10 0 17 -4 34 -10 37 -6 4 -7 -6 -3
-27z"/>
<path d="M314 1156 c4 -10 1 -26 -6 -34 -11 -13 -11 -14 0 -8 10 6 12 1 7 -26
-4 -22 -1 -39 9 -53 15 -19 15 -19 16 10 0 24 -3 27 -11 15 -7 -11 -8 -2 -3
32 4 29 2 53 -6 65 -11 17 -11 17 -6 -1z"/>
<path d="M786 1156 c3 -9 11 -16 16 -16 13 0 5 23 -10 28 -7 2 -10 -2 -6 -12z"/>
<path d="M2325 1109 c1 -32 5 -62 8 -66 4 -3 6 22 5 56 -1 34 -5 64 -8 66 -4
2 -6 -23 -5 -56z"/>
<path d="M2721 1154 c0 -11 3 -14 6 -6 3 7 2 16 -1 19 -3 4 -6 -2 -5 -13z"/>
<path d="M3390 1166 c0 -4 7 -14 15 -22 8 -9 15 -11 15 -6 0 5 -7 15 -15 22
-8 7 -15 9 -15 6z"/>
<path d="M450 1144 c0 -8 5 -12 10 -9 6 4 8 11 5 16 -9 14 -15 11 -15 -7z"/>
<path d="M1481 1123 c-8 -29 -7 -48 4 -78 l14 -40 -1 37 c-1 22 -5 35 -11 31
-6 -4 -8 1 -4 11 4 10 7 22 7 27 0 6 4 8 9 5 4 -3 6 6 3 19 -6 34 -9 32 -21
-12z"/>
<path d="M1690 1149 c0 -5 5 -7 10 -4 6 3 10 8 10 11 0 2 -4 4 -10 4 -5 0 -10
-5 -10 -11z"/>
<path d="M2295 1150 c-3 -5 -1 -10 4 -10 6 0 11 5 11 10 0 6 -2 10 -4 10 -3 0
-8 -4 -11 -10z"/>
<path d="M2422 1131 c1 -17 6 -31 10 -31 12 0 10 48 -2 55 -6 4 -10 -5 -8 -24z"/>
<path d="M840 1142 c0 -8 9 -25 19 -38 17 -21 20 -22 25 -7 4 10 4 14 0 10 -4
-4 -16 5 -26 20 -10 16 -18 22 -18 15z"/>
<path d="M2693 1128 c1 -15 6 -23 11 -18 4 4 4 16 -2 26 -9 16 -10 14 -9 -8z"/>
<path d="M372 1110 c0 -14 2 -19 5 -12 2 6 2 18 0 25 -3 6 -5 1 -5 -13z"/>
<path d="M1412 1110 c0 -14 2 -19 5 -12 2 6 2 18 0 25 -3 6 -5 1 -5 -13z"/>
<path d="M2390 1105 c0 -14 4 -25 9 -25 4 0 6 11 3 25 -2 14 -6 25 -8 25 -2 0
-4 -11 -4 -25z"/>
<path d="M1622 1060 c0 -19 2 -27 5 -17 2 9 2 25 0 35 -3 9 -5 1 -5 -18z"/>
<path d="M1889 1078 c0 -7 -2 -21 -4 -31 -2 -9 0 -15 5 -12 11 7 19 55 9 55
-5 0 -9 -6 -10 -12z"/>
<path d="M1401 1064 c0 -11 3 -14 6 -6 3 7 2 16 -1 19 -3 4 -6 -2 -5 -13z"/>
<path d="M2365 1068 c-10 -24 -2 -38 12 -23 6 7 8 18 3 26 -7 11 -10 10 -15
-3z"/>
<path d="M2732 1055 c0 -16 2 -22 5 -12 2 9 2 23 0 30 -3 6 -5 -1 -5 -18z"/>
<path d="M2840 1066 c0 -8 5 -18 10 -21 6 -3 10 1 10 9 0 8 -4 18 -10 21 -5 3
-10 -1 -10 -9z"/>
<path d="M1450 1060 c0 -5 5 -10 11 -10 5 0 7 5 4 10 -3 6 -8 10 -11 10 -2 0
-4 -4 -4 -10z"/>
<path d="M1262 1040 c0 -14 -2 -32 -6 -41 -4 -10 -3 -20 2 -23 12 -7 20 46 11
70 -6 16 -8 15 -7 -6z"/>
<path d="M397 1005 c6 -48 34 -101 46 -88 3 3 5 -7 4 -23 -2 -23 2 -29 21 -30
22 -1 30 10 13 20 -5 4 -11 0 -14 -6 -2 -7 -8 -10 -12 -6 -4 4 -3 14 4 21 8
11 6 18 -9 32 -11 10 -18 21 -16 24 3 3 -6 29 -19 56 l-24 50 6 -50z"/>
<path d="M2050 1040 c0 -5 5 -10 11 -10 5 0 7 5 4 10 -3 6 -8 10 -11 10 -2 0
-4 -4 -4 -10z"/>
<path d="M2871 1034 c0 -11 3 -14 6 -6 3 7 2 16 -1 19 -3 4 -6 -2 -5 -13z"/>
<path d="M251 1024 c0 -11 3 -14 6 -6 3 7 2 16 -1 19 -3 4 -6 -2 -5 -13z"/>
<path d="M1371 1024 c0 -11 3 -14 6 -6 3 7 2 16 -1 19 -3 4 -6 -2 -5 -13z"/>
<path d="M150 1024 c0 -3 9 -17 20 -31 11 -14 20 -32 20 -39 0 -8 5 -14 10
-14 6 0 10 4 10 9 0 5 3 17 6 25 4 11 2 15 -8 11 -9 -4 -20 4 -28 20 -12 23
-30 34 -30 19z"/>
<path d="M1043 985 c0 -27 2 -38 4 -22 2 15 2 37 0 50 -2 12 -4 0 -4 -28z"/>
<path d="M2376 1005 c-3 -9 -6 -22 -5 -28 0 -7 5 -1 10 12 5 13 8 26 5 28 -2
2 -6 -3 -10 -12z"/>
<path d="M2420 1004 c0 -8 5 -12 10 -9 6 4 8 11 5 16 -9 14 -15 11 -15 -7z"/>
<path d="M2320 1000 c0 -5 5 -10 10 -10 6 0 10 5 10 10 0 6 -4 10 -10 10 -5 0
-10 -4 -10 -10z"/>
<path d="M33 987 c1 -7 7 -16 12 -20 7 -6 7 -10 0 -13 -6 -2 -9 -22 -7 -44 2
-22 8 -38 13 -35 4 3 6 20 4 37 -2 18 0 35 6 38 5 4 7 14 4 23 -8 19 -36 31
-32 14z"/>
<path d="M142 975 c6 -14 15 -25 19 -25 5 0 3 11 -3 25 -6 14 -15 25 -19 25
-5 0 -3 -11 3 -25z"/>
<path d="M349 975 c-4 -24 -1 -31 12 -31 12 0 15 5 10 16 -5 8 -10 22 -13 30
-3 8 -7 2 -9 -15z"/>
<path d="M470 991 c0 -5 5 -13 10 -16 6 -3 10 -2 10 4 0 5 -4 13 -10 16 -5 3
-10 2 -10 -4z"/>
<path d="M1345 990 c-3 -5 -1 -10 4 -10 6 0 11 5 11 10 0 6 -2 10 -4 10 -3 0
-8 -4 -11 -10z"/>
<path d="M1395 990 c-3 -5 -1 -10 4 -10 6 0 11 5 11 10 0 6 -2 10 -4 10 -3 0
-8 -4 -11 -10z"/>
<path d="M1434 972 c-6 -16 -7 -36 -3 -47 9 -20 9 -20 7 0 -1 11 2 30 6 43 11
34 2 37 -10 4z"/>
<path d="M1845 981 c5 -16 4 -21 -4 -17 -6 4 -11 0 -11 -9 0 -9 -7 -29 -15
-45 -8 -16 -19 -55 -24 -87 -5 -32 -12 -74 -15 -93 -14 -85 -16 -111 -7 -106
5 4 12 32 16 64 4 31 11 68 16 82 5 14 11 41 13 60 5 43 12 65 36 112 18 33
18 37 3 49 -14 12 -15 11 -8 -10z"/>
<path d="M240 970 c-1 -14 -2 -40 -3 -58 -1 -19 1 -36 4 -38 10 -6 18 90 8
106 -6 12 -9 9 -9 -10z"/>
<path d="M2220 976 c0 -2 7 -7 16 -10 8 -3 12 -2 9 4 -6 10 -25 14 -25 6z"/>
<path d="M1335 950 c3 -5 8 -10 11 -10 2 0 4 5 4 10 0 6 -5 10 -11 10 -5 0 -7
-4 -4 -10z"/>
<path d="M2280 950 c0 -5 5 -10 11 -10 5 0 7 5 4 10 -3 6 -8 10 -11 10 -2 0
-4 -4 -4 -10z"/>
<path d="M2345 931 c-3 -16 -13 -35 -21 -41 -7 -7 -12 -16 -9 -20 10 -15 -47
-51 -69 -44 -18 6 -19 5 -7 -9 12 -15 16 -15 45 5 30 22 37 29 38 45 1 5 7 13
15 18 16 12 35 75 23 75 -5 0 -11 -13 -15 -29z"/>
<path d="M2401 948 c0 -9 -4 -25 -7 -35 -5 -14 -4 -15 5 -7 7 7 11 22 8 35 -2
13 -5 16 -6 7z"/>
<path d="M839 948 c0 -2 -2 -14 -5 -28 -3 -17 -1 -20 5 -12 6 11 9 10 15 -3 8
-23 8 -25 -6 -21 -7 1 -10 1 -5 -1 4 -3 7 -12 7 -21 0 -12 3 -13 12 -4 13 13
19 54 6 46 -13 -8 -9 11 5 25 10 10 8 11 -7 5 -13 -5 -17 -4 -12 4 4 7 2 12
-3 12 -6 0 -11 -1 -12 -2z"/>
<path d="M1356 925 c-9 -14 -13 -25 -9 -25 12 1 46 50 35 50 -6 0 -17 -11 -26
-25z"/>
<path d="M3201 934 c0 -11 3 -14 6 -6 3 7 2 16 -1 19 -3 4 -6 -2 -5 -13z"/>
<path d="M894 920 c3 -14 6 -28 6 -32 0 -5 5 -8 11 -8 12 0 2 39 -13 55 -7 7
-9 2 -4 -15z"/>
<path d="M1310 929 c0 -5 5 -7 10 -4 6 3 10 8 10 11 0 2 -4 4 -10 4 -5 0 -10
-5 -10 -11z"/>
<path d="M2315 930 c-4 -6 -10 -8 -14 -6 -4 3 -28 -1 -53 -9 -40 -12 -47 -11
-62 3 -9 9 -16 11 -16 5 0 -6 6 -14 13 -16 9 -4 9 -8 -3 -16 -8 -5 -17 -8 -21
-5 -4 2 -10 -3 -13 -12 -5 -12 -10 -13 -19 -6 -15 12 -57 5 -57 -10 0 -5 -4
-6 -10 -3 -5 3 -10 2 -10 -3 0 -6 7 -12 15 -16 8 -3 14 -2 14 2 -3 21 3 24 16
6 16 -22 20 -38 6 -29 -5 3 -16 -2 -25 -11 -19 -19 -38 -10 -29 13 6 15 5 16
-9 3 -14 -13 -14 -16 1 -28 12 -10 13 -15 4 -18 -7 -3 -13 -15 -12 -27 0 -15
2 -17 6 -7 12 31 45 58 69 55 18 -2 24 2 20 11 -3 8 -2 13 2 13 20 -3 32 2 27
11 -4 6 -11 8 -16 5 -5 -4 -16 -2 -25 3 -13 7 -14 11 -3 17 8 5 14 4 17 -4 3
-8 8 -7 16 5 7 9 18 14 24 10 19 -11 14 -26 -5 -19 -15 5 -16 3 -6 -7 7 -8 22
-14 33 -15 19 -2 19 0 4 23 -8 13 -14 25 -12 26 2 1 15 7 31 14 20 9 27 9 27
0 0 -7 7 -3 15 8 12 16 14 17 15 3 0 -18 -26 -33 -41 -23 -5 3 -9 0 -9 -6 0
-6 -5 -8 -11 -4 -7 4 -10 1 -7 -7 3 -8 12 -12 19 -10 8 3 24 5 35 5 13 1 20 6
17 14 -3 8 0 10 10 7 12 -5 26 11 31 35 1 3 5 11 9 18 5 6 6 12 3 12 -3 0 -8
-5 -11 -10z m-11 -31 c-8 -14 -24 -10 -24 6 0 9 6 12 15 9 8 -4 12 -10 9 -15z"/>
<path d="M170 920 c0 -5 4 -10 9 -10 6 0 13 5 16 10 3 6 -1 10 -9 10 -9 0 -16
-4 -16 -10z"/>
<path d="M490 920 c0 -5 5 -10 11 -10 5 0 7 5 4 10 -3 6 -8 10 -11 10 -2 0 -4
-4 -4 -10z"/>
<path d="M1399 912 c-26 -30 -29 -39 -14 -39 8 0 12 4 9 8 -2 4 3 12 12 17 9
5 15 14 13 21 -3 7 -10 5 -20 -7z"/>
<path d="M351 915 c1 -19 18 -51 18 -35 0 8 -4 22 -9 30 -5 8 -9 11 -9 5z"/>
<path d="M1230 906 c-6 -9 -10 -21 -7 -28 4 -9 6 -7 6 4 1 9 7 18 14 21 6 2 9
7 6 11 -3 4 -12 0 -19 -8z"/>
<path d="M1248 878 c-32 -35 -24 -36 25 -3 43 30 43 31 19 31 -10 0 -30 -13
-44 -28z"/>
<path d="M1582 890 c0 -14 2 -19 5 -12 2 6 2 18 0 25 -3 6 -5 1 -5 -13z"/>
<path d="M155 890 c-3 -6 1 -7 9 -4 18 7 21 14 7 14 -6 0 -13 -4 -16 -10z"/>
<path d="M187 881 c-4 -17 -3 -21 5 -13 5 5 8 16 6 23 -3 8 -7 3 -11 -10z"/>
<path d="M1071 884 c0 -11 3 -14 6 -6 3 7 2 16 -1 19 -3 4 -6 -2 -5 -13z"/>
<path d="M1511 884 c0 -11 3 -14 6 -6 3 7 2 16 -1 19 -3 4 -6 -2 -5 -13z"/>
<path d="M2371 884 c0 -11 3 -14 6 -6 3 7 2 16 -1 19 -3 4 -6 -2 -5 -13z"/>
<path d="M510 884 c0 -6 8 -18 18 -27 16 -15 18 -15 18 3 0 10 -4 16 -9 13 -5
-3 -13 1 -18 8 -5 8 -9 9 -9 3z"/>
<path d="M907 850 c3 -11 9 -20 13 -20 5 0 6 9 3 20 -3 11 -9 20 -13 20 -5 0
-6 -9 -3 -20z"/>
<path d="M50 852 c0 -12 34 -42 48 -42 7 0 12 5 12 10 0 6 -3 9 -7 9 -21 -3
-33 2 -33 16 0 8 -4 15 -10 15 -5 0 -10 -4 -10 -8z"/>
<path d="M2640 829 c44 -37 139 -74 154 -59 7 7 3 10 -11 10 -12 0 -25 5 -28
11 -4 6 -13 8 -20 5 -7 -2 -29 6 -48 20 -20 13 -41 24 -46 24 -6 0 -11 5 -11
10 0 6 -6 10 -12 10 -7 -1 3 -14 22 -31z"/>
<path d="M243 810 c0 -25 2 -35 4 -22 2 12 2 32 0 45 -2 12 -4 2 -4 -23z"/>
<path d="M470 839 c0 -5 5 -7 10 -4 6 3 10 0 10 -8 0 -8 7 -20 15 -27 18 -15
19 -9 3 25 -11 25 -38 35 -38 14z"/>
<path d="M16 825 c4 -9 15 -20 26 -26 20 -11 20 -11 2 15 -21 28 -37 34 -28
11z"/>
<path d="M875 829 c-4 -6 -5 -12 -2 -15 2 -3 7 2 10 11 7 17 1 20 -8 4z"/>
<path d="M970 812 c0 -18 -3 -32 -8 -32 -4 0 -8 -18 -8 -41 -1 -24 2 -35 7
-27 11 17 23 117 15 125 -3 4 -6 -8 -6 -25z"/>
<path d="M1112 824 c-7 -8 -8 -14 -3 -14 10 0 25 19 20 25 -2 1 -10 -3 -17
-11z"/>
<path d="M1164 825 c-10 -8 -14 -14 -9 -14 6 0 19 6 29 14 11 8 15 15 10 15
-6 0 -19 -7 -30 -15z"/>
<path d="M3641 824 c0 -11 3 -14 6 -6 3 7 2 16 -1 19 -3 4 -6 -2 -5 -13z"/>
<path d="M3670 816 c0 -22 3 -27 11 -19 8 8 8 16 0 30 -9 16 -10 14 -11 -11z"/>
<path d="M181 814 c0 -11 3 -14 6 -6 3 7 2 16 -1 19 -3 4 -6 -2 -5 -13z"/>
<path d="M1224 815 c-12 -8 -23 -12 -26 -10 -3 3 -5 -2 -5 -10 0 -13 3 -13 16
-1 9 7 25 18 36 24 11 6 15 12 10 12 -6 0 -20 -7 -31 -15z"/>
<path d="M2354 808 l-19 -23 23 19 c12 11 22 21 22 23 0 8 -8 2 -26 -19z"/>
<path d="M1016 809 c-9 -30 -13 -69 -6 -69 8 0 22 71 15 78 -3 3 -7 -1 -9 -9z"/>
<path d="M2153 809 c-9 -11 -6 -14 13 -15 13 -1 24 2 24 8 0 5 -4 7 -9 4 -5
-4 -11 -1 -13 5 -3 8 -7 7 -15 -2z"/>
<path d="M1246 802 c-2 -4 4 -8 15 -8 10 0 19 4 19 8 0 10 -27 10 -34 0z"/>
<path d="M2206 802 c-3 -6 -1 -14 5 -17 14 -9 20 -2 10 14 -6 8 -11 9 -15 3z"/>
<path d="M0 785 c0 -8 4 -15 10 -15 5 0 7 7 4 15 -4 8 -8 15 -10 15 -2 0 -4
-7 -4 -15z"/>
<path d="M450 793 c8 -3 21 -12 28 -21 11 -14 12 -14 12 0 0 16 -21 29 -43 27
-7 0 -5 -3 3 -6z"/>
<path d="M881 784 c0 -11 3 -14 6 -6 3 7 2 16 -1 19 -3 4 -6 -2 -5 -13z"/>
<path d="M2253 776 c-23 -14 -53 -27 -65 -29 -23 -4 -23 -4 1 -6 22 -1 111 43
111 54 0 7 -2 7 -47 -19z"/>
<path d="M2642 784 c16 -16 128 -57 135 -50 3 2 -23 14 -56 27 -34 12 -64 26
-67 30 -3 5 -10 9 -17 9 -7 0 -5 -6 5 -16z"/>
<path d="M2290 760 c-19 -17 -43 -30 -54 -30 -11 0 -16 -3 -13 -7 9 -9 57 -10
51 -2 -2 4 6 16 19 26 20 16 43 44 35 43 -2 -1 -19 -14 -38 -30z"/>
<path d="M375 770 c-3 -5 3 -10 14 -10 12 0 21 5 21 10 0 6 -6 10 -14 10 -8 0
-18 -4 -21 -10z"/>
<path d="M1030 770 c0 -6 7 -10 15 -10 8 0 15 2 15 4 0 2 -7 6 -15 10 -8 3
-15 1 -15 -4z"/>
<path d="M38 763 c7 -3 16 -2 19 1 4 3 -2 6 -13 5 -11 0 -14 -3 -6 -6z"/>
<path d="M585 750 c3 -5 8 -10 11 -10 2 0 4 5 4 10 0 6 -5 10 -11 10 -5 0 -7
-4 -4 -10z"/>
<path d="M918 753 c7 -3 16 -2 19 1 4 3 -2 6 -13 5 -11 0 -14 -3 -6 -6z"/>
<path d="M470 739 c0 -5 9 -9 20 -9 11 0 20 2 20 4 0 2 -9 6 -20 9 -11 3 -20
1 -20 -4z"/>
<path d="M3646 742 c-2 -4 4 -8 15 -8 10 0 19 4 19 8 0 4 -6 8 -14 8 -8 0 -17
-4 -20 -8z"/>
<path d="M3730 735 c-7 -9 -11 -18 -8 -20 3 -3 11 1 18 10 7 9 11 18 8 20 -3
3 -11 -1 -18 -10z"/>
<path d="M2648 733 c6 -2 18 -2 25 0 6 3 1 5 -13 5 -14 0 -19 -2 -12 -5z"/>
<path d="M1646 713 c-6 -14 -5 -15 5 -6 7 7 10 15 7 18 -3 3 -9 -2 -12 -12z"/>
<path d="M603 705 c-10 -10 -9 -15 4 -19 22 -9 37 8 21 21 -9 8 -16 7 -25 -2z"/>
<path d="M980 710 c-9 -6 -10 -10 -3 -10 6 0 15 5 18 10 8 12 4 12 -15 0z"/>
<path d="M1290 715 c0 -7 30 -13 34 -7 3 4 -4 9 -15 9 -10 1 -19 0 -19 -2z"/>
<path d="M3628 713 c6 -2 18 -2 25 0 6 3 1 5 -13 5 -14 0 -19 -2 -12 -5z"/>
<path d="M912 685 c0 -16 2 -22 5 -12 2 9 2 23 0 30 -3 6 -5 -1 -5 -18z"/>
<path d="M3586 680 c-15 -32 -13 -38 8 -17 11 10 18 47 10 47 -1 0 -9 -13 -18
-30z"/>
<path d="M882 680 c0 -14 2 -19 5 -12 2 6 2 18 0 25 -3 6 -5 1 -5 -13z"/>
<path d="M1280 690 c0 -5 5 -10 11 -10 5 0 7 5 4 10 -3 6 -8 10 -11 10 -2 0
-4 -4 -4 -10z"/>
<path d="M562 654 c-10 -11 -12 -38 -9 -100 3 -66 1 -88 -10 -97 -8 -7 -22
-20 -31 -30 -28 -31 -60 -39 -99 -25 -30 11 -39 10 -65 -5 -16 -9 -34 -15 -39
-11 -5 3 -9 0 -9 -6 0 -7 -7 -10 -14 -7 -11 4 -13 1 -10 -11 5 -14 2 -13 -12
3 -15 18 -16 18 -10 2 3 -10 6 -21 6 -23 0 -2 8 -4 18 -5 9 0 12 -3 5 -6 -14
-5 2 -42 25 -56 7 -5 10 -12 7 -18 -4 -5 -1 -9 5 -9 6 0 8 -4 5 -10 -3 -5 -1
-10 6 -10 6 0 9 -8 6 -20 -3 -10 -2 -19 2 -18 20 2 30 -4 25 -17 -4 -8 -2 -15
4 -15 6 0 18 -20 28 -45 9 -25 19 -43 22 -40 11 11 30 -17 25 -38 -4 -20 -3
-21 10 -4 16 19 37 23 37 6 0 -17 23 -34 50 -37 23 -3 21 0 -20 42 -24 25 -52
46 -61 46 -12 0 -35 33 -70 97 -28 54 -60 110 -70 125 -11 14 -19 28 -19 31 0
2 18 12 40 22 34 15 46 16 80 6 34 -10 44 -9 79 8 43 23 78 62 87 98 4 13 2
56 -4 95 -6 40 -9 74 -7 76 2 2 18 -4 35 -13 32 -17 33 -18 27 -73 -4 -32 -11
-104 -17 -162 -6 -58 -8 -134 -5 -170 8 -81 55 -230 72 -230 15 0 16 11 4 42
-24 58 -25 63 -40 143 -10 57 -5 238 9 305 20 92 17 117 -17 148 -36 32 -62
37 -81 16z"/>
<path d="M991 634 c1 -21 3 -31 6 -21 2 9 9 14 15 11 5 -4 4 4 -2 17 -19 36
-20 36 -19 -7z"/>
<path d="M1484 646 c-3 -14 -3 -30 1 -35 3 -6 2 -11 -4 -11 -6 0 -8 -7 -5 -15
4 -8 1 -15 -5 -15 -6 0 -11 -5 -11 -11 0 -5 5 -7 10 -4 6 3 10 2 10 -4 0 -5
-5 -13 -10 -16 -6 -4 -8 -11 -5 -16 3 -5 2 -24 -3 -43 -8 -27 -7 -34 3 -30 10
4 11 -3 5 -30 -6 -26 -3 -45 9 -70 19 -41 30 -46 23 -11 -2 14 -9 25 -14 25
-6 0 -7 25 -4 63 10 111 16 247 11 247 -2 0 -7 -11 -11 -24z"/>
<path d="M958 654 c-5 -4 -8 -23 -7 -43 0 -34 1 -34 10 -11 11 27 8 66 -3 54z"/>
<path d="M901 643 c-1 -18 13 -23 29 -11 12 8 12 9 -2 5 -9 -3 -19 -1 -22 6
-3 9 -5 9 -5 0z"/>
<path d="M1558 620 c-3 -17 -1 -33 4 -36 4 -3 8 4 8 15 0 10 3 26 6 35 3 9 2
16 -4 16 -5 0 -12 -14 -14 -30z"/>
<path d="M871 624 c0 -11 3 -14 6 -6 3 7 2 16 -1 19 -3 4 -6 -2 -5 -13z"/>
<path d="M1641 624 c0 -11 3 -14 6 -6 3 7 2 16 -1 19 -3 4 -6 -2 -5 -13z"/>
<path d="M1851 614 c0 -11 3 -14 6 -6 3 7 2 16 -1 19 -3 4 -6 -2 -5 -13z"/>
<path d="M1901 614 c0 -11 3 -14 6 -6 3 7 2 16 -1 19 -3 4 -6 -2 -5 -13z"/>
<path d="M1195 585 c-21 -18 -42 -32 -45 -31 -3 2 -14 0 -25 -5 -16 -7 -13 -8
11 -5 39 5 63 17 93 50 35 37 13 31 -34 -9z"/>
<path d="M1766 583 c10 -40 14 -41 14 -5 0 18 -5 32 -10 32 -6 0 -8 -11 -4
-27z"/>
<path d="M1520 595 c0 -13 10 -26 38 -49 31 -27 28 -15 -8 25 -16 19 -30 30
-30 24z"/>
<path d="M902 570 c0 -14 2 -19 5 -12 2 6 2 18 0 25 -3 6 -5 1 -5 -13z"/>
<path d="M1295 581 c-3 -5 -1 -12 5 -16 5 -3 10 1 10 9 0 18 -6 21 -15 7z"/>
<path d="M1586 583 c-11 -11 -6 -24 6 -17 7 5 9 2 6 -8 -4 -8 2 -22 13 -32 30
-25 43 -19 23 12 -24 37 -40 52 -48 45z"/>
<path d="M856 571 c-4 -7 -5 -15 -2 -18 9 -9 19 4 14 18 -4 11 -6 11 -12 0z"/>
<path d="M1078 563 c7 -3 16 -2 19 1 4 3 -2 6 -13 5 -11 0 -14 -3 -6 -6z"/>
<path d="M1240 530 c-19 -16 -46 -30 -60 -30 -14 -1 -19 -4 -12 -7 7 -3 23 -2
35 1 24 6 98 66 82 66 -6 0 -26 -13 -45 -30z"/>
<path d="M1175 530 c-16 -7 -17 -9 -3 -9 9 -1 20 4 23 9 7 11 7 11 -20 0z"/>
<path d="M1760 520 c0 -5 5 -10 11 -10 5 0 7 -5 3 -12 -4 -7 -3 -8 4 -4 17 10
15 36 -3 36 -8 0 -15 -4 -15 -10z"/>
<path d="M1551 508 c0 -10 -6 -18 -12 -18 -5 0 -7 -5 -3 -11 10 -16 27 5 21
27 -4 17 -5 17 -6 2z"/>
<path d="M1596 507 c3 -10 9 -15 12 -12 3 3 0 11 -7 18 -10 9 -11 8 -5 -6z"/>
<path d="M1432 490 c0 -14 2 -19 5 -12 2 6 2 18 0 25 -3 6 -5 1 -5 -13z"/>
<path d="M1638 489 c-16 -9 -13 -13 20 -42 20 -18 39 -35 42 -39 10 -12 81
-58 90 -58 14 0 12 -27 -1 -36 -6 -3 -22 -31 -35 -61 -23 -50 -25 -53 -47 -42
-12 7 -48 38 -79 70 l-58 57 0 -36 c0 -39 29 -74 113 -136 35 -27 54 -23 22 4
-8 7 -15 10 -15 7 0 -3 -13 8 -30 25 -44 43 -37 45 20 4 28 -20 52 -31 55 -26
4 6 11 7 17 4 7 -4 8 -2 4 4 -3 6 4 33 16 59 l23 48 3 -84 c2 -60 -1 -87 -10
-94 -10 -7 -9 -8 3 -4 19 6 34 -21 44 -77 5 -22 13 -36 22 -36 9 0 12 6 9 18
-3 9 -15 49 -27 87 -13 43 -21 92 -20 129 1 35 -3 62 -9 66 -8 5 -6 12 5 24
13 13 14 20 5 31 -6 7 -18 11 -26 8 -8 -3 -14 0 -14 6 0 6 -7 11 -15 11 -8 0
-28 18 -46 40 -17 21 -36 38 -42 37 -6 -1 -13 8 -16 20 -5 17 -10 20 -23 12z"/>
<path d="M1035 450 c-3 -6 1 -7 9 -4 18 7 21 14 7 14 -6 0 -13 -4 -16 -10z"/>
<path d="M1535 425 c0 -40 10 -46 19 -12 9 34 7 47 -6 47 -8 0 -13 -14 -13
-35z"/>
<path d="M965 420 c3 -5 8 -10 11 -10 2 0 4 5 4 10 0 6 -5 10 -11 10 -5 0 -7
-4 -4 -10z"/>
<path d="M1580 419 c0 -5 5 -7 10 -4 6 3 10 8 10 11 0 2 -4 4 -10 4 -5 0 -10
-5 -10 -11z"/>
<path d="M876 405 c-9 -26 -7 -32 5 -12 6 10 9 21 6 23 -2 3 -7 -2 -11 -11z"/>
<path d="M20 396 c0 -2 9 -6 20 -9 11 -3 20 -1 20 4 0 5 -9 9 -20 9 -11 0 -20
-2 -20 -4z"/>
<path d="M1437 384 c-4 -4 -7 -14 -7 -23 0 -11 3 -12 11 -4 6 6 10 16 7 23 -2
6 -7 8 -11 4z"/>
<path d="M3019 357 c-10 -11 -20 -24 -20 -29 -3 -19 -5 -24 -13 -37 -5 -8 -10
-25 -12 -39 -4 -37 -43 -108 -86 -157 -21 -24 -38 -54 -38 -67 0 -19 -2 -20
-11 -8 -9 13 -10 13 -6 0 6 -25 33 -22 45 5 7 14 30 49 51 78 22 29 55 94 74
145 20 52 37 96 40 98 2 3 37 -11 78 -31 45 -22 88 -35 112 -35 81 0 217 -89
217 -142 0 -28 -45 -103 -72 -123 l-22 -15 26 0 c35 0 63 31 79 85 7 24 17 41
22 38 12 -7 -2 36 -17 54 -6 8 -23 27 -38 43 -16 15 -28 33 -28 38 0 6 -10 8
-22 4 -15 -4 -28 3 -46 24 -13 16 -21 23 -18 17 8 -15 -10 -18 -19 -3 -3 6
-24 10 -45 10 -21 0 -42 5 -46 11 -4 8 -9 7 -15 -2 -6 -11 -9 -10 -15 4 -3 9
-10 17 -16 17 -5 0 -7 -4 -4 -9 4 -5 -5 -4 -18 2 -13 7 -23 14 -21 17 2 4 -14
11 -36 17 -36 9 -43 8 -60 -10z"/>
<path d="M1888 338 c5 -7 13 -29 17 -49 5 -30 10 -36 26 -32 20 6 26 23 8 23
-6 0 -8 7 -5 16 3 9 2 12 -5 9 -6 -4 -13 2 -16 13 -3 11 -12 23 -20 27 -12 4
-13 2 -5 -7z"/>
<path d="M820 321 c0 -7 -5 -9 -12 -5 -7 5 -8 3 -3 -5 5 -9 10 -10 18 -2 6 6
8 14 4 18 -4 3 -7 1 -7 -6z"/>
<path d="M1427 306 c-3 -8 0 -20 8 -26 8 -6 19 -27 25 -46 7 -20 16 -31 23
-27 6 4 8 0 4 -10 -6 -17 26 -101 35 -92 8 8 -4 65 -13 65 -5 0 -9 5 -9 10 0
6 4 9 9 8 5 -2 9 0 10 5 3 21 0 27 -14 27 -9 0 -20 11 -25 24 -5 13 -14 27
-19 31 -6 3 -11 15 -11 26 0 22 -15 26 -23 5z"/>
<path d="M1836 313 c5 -5 12 -12 16 -18 4 -6 8 -2 8 8 0 9 -7 17 -17 17 -9 0
-12 -3 -7 -7z"/>
<path d="M1983 307 c11 -8 17 -23 16 -42 -4 -52 1 -115 9 -115 7 0 5 108 -3
148 -3 12 -13 22 -22 22 -15 0 -15 -1 0 -13z"/>
<path d="M1950 301 c0 -6 4 -13 10 -16 6 -3 7 1 4 9 -7 18 -14 21 -14 7z"/>
<path d="M3346 298 c3 -5 10 -6 15 -3 13 9 11 12 -6 12 -8 0 -12 -4 -9 -9z"/>
<path d="M1490 295 c0 -5 5 -17 10 -25 5 -8 10 -10 10 -5 0 6 -5 17 -10 25 -5
8 -10 11 -10 5z"/>
<path d="M3358 273 c7 -3 16 -2 19 1 4 3 -2 6 -13 5 -11 0 -14 -3 -6 -6z"/>
<path d="M1417 233 c-4 -15 -9 -38 -13 -50 -4 -14 -2 -23 5 -23 6 0 11 9 11
19 0 11 4 22 9 26 6 3 8 15 6 27 -6 31 -12 32 -18 1z"/>
<path d="M1551 238 c-1 -16 4 -28 9 -28 12 0 12 8 0 35 -8 18 -9 17 -9 -7z"/>
<path d="M336 163 c-6 -14 -5 -15 5 -6 7 7 10 15 7 18 -3 3 -9 -2 -12 -12z"/>
<path d="M938 108 c-5 -68 0 -108 13 -108 5 0 9 38 9 85 0 98 -15 114 -22 23z"/>
<path d="M1531 84 c-7 -42 -10 -78 -8 -81 9 -8 29 38 23 53 -3 8 -1 14 5 14 6
0 7 5 4 11 -4 5 -4 22 -1 35 6 21 9 24 21 14 10 -8 15 -9 15 -2 0 10 -30 32
-43 32 -2 0 -10 -34 -16 -76z"/>
<path d="M2030 145 c0 -8 2 -15 4 -15 2 0 6 7 10 15 3 8 1 15 -4 15 -6 0 -10
-7 -10 -15z"/>
<path d="M888 133 c-7 -30 3 -133 13 -133 5 0 6 31 3 73 -7 79 -9 87 -16 60z"/>
<path d="M1390 140 c0 -5 5 -10 10 -10 6 0 10 5 10 10 0 6 -4 10 -10 10 -5 0
-10 -4 -10 -10z"/>
<path d="M238 133 c7 -3 16 -2 19 1 4 3 -2 6 -13 5 -11 0 -14 -3 -6 -6z"/>
<path d="M1010 132 c0 -12 19 -26 26 -19 2 2 -2 10 -11 17 -9 8 -15 8 -15 2z"/>
<path d="M2003 120 c-1 -11 2 -20 8 -20 5 0 9 9 9 20 0 11 -4 20 -8 20 -4 0
-8 -9 -9 -20z"/>
<path d="M1688 90 c-36 -36 -50 -58 -28 -45 6 3 10 1 10 -5 0 -6 7 -4 17 5 14
14 14 18 2 27 -10 7 -7 7 10 3 17 -5 21 -4 16 5 -4 7 -2 16 5 20 7 4 11 12 9
18 -2 6 -21 -7 -41 -28z"/>
<path d="M1377 113 c-4 -3 -7 -11 -7 -17 0 -6 5 -5 12 2 6 6 9 14 7 17 -3 3
-9 2 -12 -2z"/>
<path d="M1398 95 c-19 -25 -25 -95 -8 -95 5 0 7 6 4 14 -3 8 -1 17 5 20 5 4
12 -3 16 -14 4 -14 14 -20 33 -19 15 1 20 3 11 6 -18 4 -49 54 -49 77 0 20 16
21 23 2 4 -9 15 -12 32 -8 18 3 24 9 21 19 -3 8 -6 18 -6 21 0 4 -5 0 -10 -8
-8 -12 -13 -13 -30 -2 -25 15 -22 16 -42 -13z"/>
<path d="M2030 101 c0 -25 6 -27 13 -6 4 8 2 17 -3 20 -6 4 -10 -3 -10 -14z"/>
<path d="M971 69 c-1 -30 4 -51 14 -59 13 -11 14 -8 8 21 -14 75 -21 87 -22
38z"/>
<path d="M1042 80 c0 -14 2 -19 5 -12 2 6 2 18 0 25 -3 6 -5 1 -5 -13z"/>
<path d="M1095 69 c-4 -6 -5 -12 -2 -15 2 -3 7 2 10 11 7 17 1 20 -8 4z"/>
<path d="M1310 67 c0 -17 28 -43 37 -33 3 3 1 6 -5 6 -7 0 -12 6 -12 14 0 8
-4 18 -10 21 -5 3 -10 0 -10 -8z"/>
<path d="M28 58 c-34 -12 -36 -28 -4 -28 13 0 42 -7 65 -15 25 -8 39 -10 35
-4 -4 8 2 9 17 5 20 -6 19 -4 -5 10 -22 12 -26 18 -15 25 19 12 2 11 -20 0
-11 -6 -22 -6 -32 1 -11 8 -10 9 4 4 11 -3 16 -2 12 4 -7 12 -21 12 -57 -2z"/>
<path d="M2011 38 c-1 -22 4 -38 10 -38 6 0 9 6 6 14 -4 10 2 16 16 19 l22 4
-22 2 c-12 0 -24 9 -26 19 -3 9 -5 0 -6 -20z"/>
<path d="M1110 53 c0 -13 49 -32 56 -22 3 5 2 8 -3 7 -4 -1 -18 3 -30 10 -13
7 -23 9 -23 5z"/>
<path d="M28 3 c7 -3 16 -2 19 1 4 3 -2 6 -13 5 -11 0 -14 -3 -6 -6z"/>
</g>
</svg>
