<?xml version="1.0" standalone="no"?>
<!DOCTYPE svg PUBLIC "-//W3C//DTD SVG 20010904//EN"
 "http://www.w3.org/TR/2001/REC-SVG-20010904/DTD/svg10.dtd">
<svg version="1.0" xmlns="http://www.w3.org/2000/svg"
 width="125.000000pt" height="125.000000pt" viewBox="0 0 125.000000 125.000000"
 preserveAspectRatio="xMidYMid meet">
<g transform="translate(0.000000,125.000000) scale(0.100000,-0.100000)"
fill="#000000" stroke="none">
<path d="M440 1170 c-63 -29 -127 -95 -159 -161 -24 -49 -28 -71 -30 -160 -3
-123 11 -166 69 -220 37 -34 39 -35 54 -17 21 25 20 41 -3 33 -10 -3 -24 1
-31 10 -7 8 -16 13 -20 10 -5 -3 -6 5 -3 17 4 19 3 21 -7 8 -10 -13 -11 -12
-6 3 3 9 -3 40 -14 68 -24 60 -24 60 -5 53 10 -4 13 -13 9 -26 -4 -14 -2 -18
5 -14 7 5 9 1 4 -11 -4 -13 -3 -15 6 -7 8 8 9 18 1 38 -8 23 -6 31 12 49 16
17 20 18 15 5 -4 -10 -2 -18 3 -18 11 0 13 11 4 34 -3 9 -10 14 -14 11 -5 -3
-12 0 -16 6 -4 7 -3 9 4 6 6 -5 13 8 17 33 4 22 11 38 16 34 5 -3 6 -16 3 -29
-3 -12 -2 -25 3 -28 10 -6 9 41 -1 65 -8 17 30 118 44 118 16 0 17 -26 1 -45
-15 -18 -15 -19 1 -7 9 8 19 9 22 4 7 -12 -18 -34 -35 -30 -8 2 -14 -3 -13 -9
1 -7 2 -22 3 -34 0 -11 5 -18 10 -14 5 3 12 1 16 -5 3 -5 2 -10 -3 -10 -6 0
-13 -8 -16 -17 -6 -14 -3 -14 15 3 20 17 22 17 16 2 -4 -11 -2 -18 7 -18 23 0
26 13 6 27 -11 8 -18 19 -14 24 3 6 12 2 20 -10 10 -13 22 -18 39 -15 14 2 25
0 25 -6 0 -6 -4 -9 -9 -5 -5 3 -12 1 -16 -5 -4 -6 -10 -8 -14 -5 -5 2 -16 -4
-25 -14 -10 -11 -25 -17 -37 -14 -10 3 -19 0 -19 -6 0 -5 8 -8 18 -5 10 4 13
2 7 -3 -17 -13 -15 -110 2 -124 11 -10 11 -14 1 -20 -10 -7 -9 -9 3 -9 9 0 20
-8 24 -17 5 -15 4 -16 -6 -5 -7 6 -18 12 -24 12 -5 0 2 -8 18 -18 15 -10 24
-21 21 -24 -3 -4 4 -12 16 -18 12 -6 19 -17 17 -23 -2 -7 1 -28 8 -47 7 -19
11 -47 11 -61 -1 -16 3 -25 10 -22 14 5 27 -24 14 -32 -5 -3 -11 -1 -15 5 -3
5 -11 10 -17 10 -7 0 -6 -6 2 -15 10 -12 10 -15 -1 -15 -12 0 -12 -2 -1 -9 9
-5 12 -21 8 -47 -4 -27 -3 -31 2 -14 8 24 8 24 15 -9 10 -48 9 -71 -4 -68 -6
1 -14 -5 -16 -13 -4 -13 -3 -13 6 0 8 11 11 12 11 2 0 -7 5 -10 10 -7 6 4 9
37 8 80 -2 40 -6 71 -10 68 -14 -8 -8 14 7 27 10 8 19 9 28 3 14 -10 59 -10
97 0 14 4 19 4 13 1 -15 -7 -17 -54 -3 -54 6 0 10 11 10 24 0 14 7 32 16 41 9
8 13 22 10 30 -3 9 0 28 6 43 7 15 12 38 12 52 1 19 6 25 22 24 11 0 21 5 21
12 0 7 -5 10 -11 7 -6 -4 -3 3 7 15 11 11 16 25 13 30 -3 5 2 16 12 23 9 7 14
10 10 5 -4 -5 -3 -17 3 -27 7 -15 6 -21 -5 -25 -14 -6 -16 -28 -2 -41 4 -4 7
-3 6 2 -4 19 0 35 9 35 7 0 8 -30 2 -74 0 -5 -9 -2 -18 5 -16 13 -17 12 -4 -4
13 -17 15 -17 34 0 11 10 17 12 13 6 -4 -7 -3 -13 3 -13 6 0 8 -7 5 -15 -4 -8
-10 -12 -15 -9 -5 3 -6 -2 -3 -11 5 -12 10 -13 20 -4 16 13 19 6 29 -65 4 -30
10 -44 14 -37 11 18 21 -10 15 -41 -3 -17 -2 -19 3 -5 8 16 9 16 23 0 9 -10
22 -33 30 -52 7 -19 15 -30 18 -23 4 13 -32 86 -65 129 -30 39 -48 104 -27 96
8 -3 14 -9 14 -14 0 -9 38 -28 50 -25 3 0 21 -9 41 -22 20 -12 40 -18 44 -14
5 4 5 2 2 -4 -3 -6 15 -21 42 -34 37 -19 47 -29 43 -43 -3 -14 0 -18 14 -15
12 2 23 -7 32 -24 7 -16 18 -28 24 -28 6 0 5 -7 -3 -17 -12 -14 -12 -16 0 -8
11 6 13 4 6 -11 -4 -10 -10 -29 -12 -41 -3 -13 -9 -20 -13 -18 -5 3 -11 1 -14
-4 -4 -5 2 -8 11 -7 9 2 22 17 28 35 6 18 14 29 17 25 4 -4 6 3 3 15 -2 11 1
21 7 21 6 0 8 -13 6 -31 -5 -30 -4 -30 15 -11 18 19 18 21 2 45 -9 15 -25 29
-34 32 -10 3 -23 16 -29 29 -13 29 -149 120 -244 164 -82 37 -88 49 -122 229
-3 13 1 24 10 27 19 7 44 67 44 103 0 15 -14 48 -30 72 -17 24 -30 48 -30 53
0 25 -83 126 -121 148 -62 34 -176 39 -239 10z m113 -1 c-73 -9 -111 -27 -170
-82 -32 -29 -40 -43 -31 -49 10 -6 8 -8 -5 -8 -9 0 -23 -11 -29 -25 -6 -14
-15 -25 -20 -25 -13 0 -9 16 7 30 8 6 17 20 20 31 8 25 81 95 125 119 25 13
54 19 100 18 l65 -1 -62 -8z m66 -29 c13 0 42 -14 65 -32 22 -17 43 -33 45
-35 2 -2 -3 -11 -12 -21 -10 -11 -13 -23 -8 -31 6 -9 11 -10 15 -2 4 6 2 11
-4 11 -6 0 -8 5 -5 10 9 15 19 12 32 -10 13 -20 8 -50 -9 -50 -5 0 -6 5 -2 12
4 6 3 8 -4 4 -6 -3 -17 3 -25 14 -8 12 -18 20 -23 18 -16 -4 -54 13 -49 23 3
5 1 18 -5 29 -9 16 -8 22 5 26 16 6 11 24 -6 24 -6 0 -8 -4 -4 -9 11 -18 -16
-23 -29 -5 -10 13 -15 14 -21 4 -6 -9 -4 -11 5 -5 10 6 12 4 7 -9 -4 -9 -3
-15 2 -12 4 3 16 -3 25 -13 15 -16 15 -22 4 -40 -7 -12 -16 -21 -21 -21 -4 0
-6 4 -2 10 3 5 -8 28 -25 51 -16 23 -30 37 -30 31 0 -6 5 -14 10 -17 6 -4 8
-11 5 -16 -4 -5 -1 -9 6 -9 8 0 8 -4 -1 -15 -7 -8 -9 -15 -5 -15 4 0 1 -8 -6
-17 -10 -11 -10 -14 -1 -9 6 4 12 2 12 -3 0 -6 -6 -11 -14 -11 -7 0 -19 -7
-26 -15 -10 -12 -16 -13 -26 -4 -8 6 -14 8 -14 3 -1 -5 -9 2 -20 15 -11 12
-18 27 -15 31 3 5 0 12 -6 16 -8 5 -9 3 -4 -7 5 -8 6 -12 2 -9 -3 3 -6 10 -7
15 -1 6 -6 17 -10 26 -12 21 -1 35 46 59 28 15 51 19 84 15 25 -3 56 -5 69 -5z
m-35 -105 c-4 -8 -10 -15 -15 -15 -4 0 -6 7 -3 15 4 8 10 15 15 15 4 0 6 -7 3
-15z m-247 -45 c-6 -16 -14 -30 -18 -30 -4 0 -5 -10 -2 -21 4 -16 2 -20 -8
-17 -17 5 -25 48 -9 48 6 0 16 11 22 25 16 35 29 31 15 -5z m101 24 c-3 -3 4
-16 17 -30 23 -25 42 -33 29 -12 -4 7 -3 8 4 4 9 -5 8 -12 0 -26 -9 -14 -14
-16 -20 -7 -6 9 -8 8 -8 -2 0 -12 -3 -12 -12 -3 -10 10 -10 15 2 22 12 8 11
10 -5 7 -11 -1 -25 -6 -32 -10 -7 -5 -16 0 -22 12 -13 23 -14 42 -3 23 7 -9
13 -8 27 8 10 11 20 20 23 20 3 0 3 -3 0 -6z m226 -4 c7 0 20 -6 30 -13 15
-11 14 -13 -15 -15 -39 -3 -61 -19 -57 -41 5 -24 -24 -47 -52 -43 -14 2 -36
-2 -50 -8 -24 -10 -24 -10 5 -6 42 6 51 -2 51 -49 -1 -42 -15 -55 -77 -70 -22
-5 -30 -1 -48 23 l-21 30 21 23 c15 18 19 19 15 7 -3 -10 -1 -18 4 -18 6 0 10
4 10 9 0 5 9 7 20 4 11 -3 20 -10 20 -15 0 -13 18 0 30 22 8 16 5 18 -29 22
-22 2 -37 0 -35 -4 3 -5 -5 -7 -17 -5 -16 1 -27 -6 -35 -23 -12 -22 -14 -23
-20 -6 -8 20 2 28 76 61 64 28 85 45 110 88 15 25 28 36 37 33 8 -3 20 -6 27
-6z m136 -39 c0 -9 4 -21 9 -26 4 -6 11 -23 15 -38 5 -22 4 -27 -6 -21 -9 6
-9 3 1 -10 10 -12 11 -20 3 -28 -6 -6 -8 -18 -4 -26 5 -14 4 -15 -10 -2 -9 8
-14 18 -12 22 2 4 0 9 -6 13 -5 3 -11 23 -11 43 l-2 37 -7 -35 -7 -35 -2 38
c-1 45 -35 68 -73 49 -22 -10 -22 -10 5 -9 23 2 30 -4 47 -41 l20 -43 -36 -15
c-20 -8 -42 -13 -50 -10 -20 8 -47 54 -40 71 5 13 9 13 27 3 17 -10 23 -10 26
-1 2 7 11 9 19 6 8 -3 14 -1 14 5 0 15 -25 21 -41 11 -19 -12 -32 -11 -24 1 3
6 -1 7 -9 4 -9 -3 -16 -2 -16 4 0 16 57 35 90 30 22 -3 31 0 35 13 7 22 45 13
45 -10z m-226 -3 c-34 -37 -104 -49 -73 -12 6 7 15 12 19 9 4 -3 12 1 18 8 6
7 21 13 32 14 22 2 22 1 4 -19z m-282 -73 c0 -14 1 -30 2 -37 1 -6 -3 -13 -9
-15 -5 -1 -10 15 -10 37 -1 43 14 56 17 15z m346 -46 c12 -21 12 -22 -1 -6 -8
9 -18 17 -22 17 -5 0 0 -9 10 -20 23 -25 60 -25 108 -1 l37 19 6 -34 c9 -49
-2 -94 -36 -147 -44 -69 -101 -83 -209 -51 -53 15 -53 16 -91 97 -21 46 -33
84 -28 86 6 2 14 -3 19 -10 30 -53 34 -55 86 -38 46 15 51 15 60 0 8 -13 13
-13 25 -4 8 7 18 10 21 6 4 -3 12 -2 19 4 7 5 20 9 28 8 8 -1 21 -3 29 -3 23
-3 -6 -29 -42 -37 -44 -10 -48 -12 -79 -24 -16 -6 -28 -12 -28 -14 0 -1 34 -3
75 -3 41 -1 72 2 70 6 -3 4 4 18 14 32 18 23 18 24 1 46 -19 23 -45 29 -55 12
-3 -5 -16 -10 -29 -10 -12 0 -28 -6 -35 -12 -11 -11 -12 -8 -6 17 4 17 9 41
10 55 1 14 3 29 3 33 3 15 25 2 40 -24z m-98 1 c0 -5 -4 -10 -10 -10 -5 0 -10
5 -10 10 0 6 5 10 10 10 6 0 10 -4 10 -10z m136 -135 c-19 -15 -46 -20 -46
-10 0 6 40 24 55 24 6 0 1 -6 -9 -14z m-162 -104 c10 -15 141 -24 165 -12 28
16 27 5 -9 -74 -21 -46 -35 -65 -49 -65 -39 0 -81 13 -81 25 0 7 -11 33 -25
59 -14 26 -25 54 -25 62 0 16 16 19 24 5z m4 -106 c-3 -3 -9 2 -12 12 -6 14
-5 15 5 6 7 -7 10 -15 7 -18z m158 -27 c-15 -10 -16 -6 -9 22 6 22 7 22 13 4
4 -10 2 -22 -4 -26z"/>
<path d="M500 1112 c0 -5 -7 -9 -15 -10 -8 -1 -22 -3 -30 -4 -8 -1 -12 -5 -9
-9 2 -5 11 -6 18 -3 8 3 17 1 21 -5 5 -10 -15 -16 -38 -12 -5 1 -6 -3 -3 -8 3
-5 15 -7 27 -4 14 4 20 1 18 -8 -9 -46 32 -73 44 -28 3 10 1 17 -3 14 -5 -3
-11 1 -14 7 -4 7 -4 3 -2 -9 5 -25 -9 -31 -18 -8 -6 15 21 48 33 41 4 -3 8 1
8 9 0 11 -4 12 -13 4 -15 -12 -37 -3 -28 12 3 5 9 7 13 5 4 -3 8 1 8 9 0 8 -4
15 -9 15 -4 0 -8 -4 -8 -8z"/>
<path d="M645 1100 c-3 -5 -1 -10 5 -10 6 0 9 -4 6 -9 -3 -5 1 -11 9 -15 9 -3
12 -12 8 -23 -5 -15 -2 -14 17 4 l23 22 -24 20 c-27 23 -35 25 -44 11z m50
-30 c3 -5 1 -10 -4 -10 -6 0 -11 5 -11 10 0 6 2 10 4 10 3 0 8 -4 11 -10z"/>
<path d="M760 955 c0 -8 7 -15 15 -15 16 0 18 -8 15 -51 -1 -17 5 -29 16 -33
14 -5 15 -4 5 8 -7 8 -11 23 -9 34 3 21 -20 72 -34 72 -4 0 -8 -7 -8 -15z"/>
<path d="M654 882 c8 -9 22 -11 35 -7 32 10 25 21 -14 21 -30 0 -33 -2 -21
-14z"/>
<path d="M530 726 c7 -7 13 -7 20 0 6 6 3 10 -10 10 -13 0 -16 -4 -10 -10z"/>
<path d="M470 706 c0 -2 7 -7 16 -10 8 -3 12 -2 9 4 -6 10 -25 14 -25 6z"/>
<path d="M505 670 c3 -5 11 -10 16 -10 6 0 7 5 4 10 -3 6 -11 10 -16 10 -6 0
-7 -4 -4 -10z"/>
<path d="M766 1151 c-4 -5 -2 -12 3 -15 5 -4 12 -2 15 3 4 5 2 12 -3 15 -5 4
-12 2 -15 -3z"/>
<path d="M362 859 c3 -8 2 -21 -2 -29 -5 -9 -2 -20 7 -29 13 -11 14 -11 12 5
-2 11 -1 24 3 29 3 6 -1 16 -9 24 -14 12 -15 12 -11 0z"/>
<path d="M320 825 c0 -5 10 -27 23 -49 21 -38 25 -60 16 -95 -3 -8 5 -14 20
-16 21 -2 22 0 8 10 -9 7 -15 21 -12 33 6 31 -12 86 -35 107 -11 10 -20 14
-20 10z"/>
<path d="M319 743 c-13 -16 -12 -17 4 -4 16 13 21 21 13 21 -2 0 -10 -8 -17
-17z"/>
<path d="M330 725 c-7 -9 -8 -15 -2 -15 5 0 12 7 16 15 3 8 4 15 2 15 -2 0 -9
-7 -16 -15z"/>
<path d="M387 609 c-8 -11 -46 -31 -86 -44 -104 -36 -211 -117 -211 -161 0 -8
-10 -14 -25 -14 -14 0 -34 -9 -45 -20 -16 -16 -18 -25 -10 -45 5 -14 7 -25 4
-25 -4 0 -1 -7 6 -15 7 -8 16 -12 21 -9 5 3 9 0 9 -5 0 -6 5 -11 11 -11 6 0 7
5 2 13 -4 6 -8 17 -8 22 -1 6 -5 18 -9 28 -6 11 -4 23 3 30 9 9 11 8 6 -4 -4
-10 -1 -20 6 -25 8 -4 10 -3 5 4 -4 7 -3 12 2 12 13 0 20 -76 9 -98 -8 -16 -7
-16 6 0 11 14 20 16 50 7 38 -10 54 -24 38 -34 -5 -3 -8 -14 -6 -25 4 -21 -19
-45 -34 -36 -5 4 -16 -1 -24 -9 -9 -8 -24 -15 -34 -15 -15 0 -16 -2 -3 -10 8
-5 11 -10 5 -10 -5 0 -1 -7 9 -15 21 -16 17 -18 -28 -15 -19 1 -26 -2 -21 -10
4 -6 16 -9 28 -6 14 3 30 -5 52 -27 18 -18 41 -33 51 -35 18 -2 18 -1 -1 15
-11 10 -31 36 -43 57 -25 41 -16 62 20 50 10 -3 26 4 37 15 16 16 19 28 14 53
-6 29 -4 31 9 21 12 -10 13 -23 7 -64 -10 -63 6 -149 27 -149 11 0 13 7 7 28
-4 15 -7 63 -6 107 1 67 -2 83 -18 98 -17 16 -24 36 -20 60 0 4 -3 7 -7 7 -12
0 -33 50 -27 61 4 5 2 9 -2 9 -8 0 -10 7 -16 56 -1 16 13 33 52 63 30 22 57
38 60 36 2 -3 8 -28 11 -55 5 -37 3 -50 -6 -50 -7 0 -16 9 -19 20 -3 11 -16
25 -28 31 -17 9 -14 4 11 -29 18 -22 32 -46 32 -53 1 -8 7 -3 14 10 8 14 12
30 11 35 -2 6 -6 31 -9 56 -4 39 -2 46 13 47 16 1 18 -3 10 -35 -14 -62 -9
-70 11 -18 11 27 16 54 13 59 -3 6 -1 7 5 3 7 -4 12 -3 12 3 0 6 7 7 17 4 11
-4 14 -3 9 5 -8 13 6 17 17 5 9 -9 -13 -34 -24 -27 -5 3 -6 -2 -3 -10 5 -13
10 -12 25 8 11 14 19 28 18 33 -3 19 14 52 24 46 6 -3 7 -1 3 5 -11 17 -23 15
-39 -9z m-264 -209 c-3 -12 0 -20 6 -20 7 0 9 6 5 13 -4 6 -3 9 1 4 5 -4 10
-17 12 -28 2 -11 14 -44 27 -72 26 -57 25 -73 -4 -55 -14 9 -16 16 -8 25 7 9
7 17 -2 28 -7 8 -16 30 -21 48 -9 32 -9 32 -4 -5 4 -44 -1 -49 -16 -12 -5 15
-12 24 -15 22 -9 -10 20 -59 32 -54 7 3 15 -2 18 -11 5 -11 2 -14 -9 -9 -9 3
-13 2 -10 -4 7 -12 -15 -13 -30 -2 -5 4 -11 20 -12 36 -1 16 -7 34 -12 39 -7
7 -3 16 10 28 11 10 20 20 20 23 -2 19 0 26 8 26 5 0 7 -9 4 -20z m-83 -90 c5
0 6 -8 3 -17 -6 -15 -7 -15 -14 3 -4 10 -7 28 -7 39 1 17 1 16 5 -2 2 -13 8
-23 13 -23z"/>
<path d="M446 618 c3 -5 10 -6 15 -3 13 9 11 12 -6 12 -8 0 -12 -4 -9 -9z"/>
<path d="M732 590 c0 -14 2 -19 5 -12 2 6 2 18 0 25 -3 6 -5 1 -5 -13z"/>
<path d="M1036 508 c3 -5 10 -6 15 -3 13 9 11 12 -6 12 -8 0 -12 -4 -9 -9z"/>
<path d="M225 499 c-4 -6 -5 -12 -2 -15 2 -3 7 2 10 11 7 17 1 20 -8 4z"/>
<path d="M716 493 c-6 -14 -5 -15 5 -6 7 7 10 15 7 18 -3 3 -9 -2 -12 -12z"/>
<path d="M880 501 c0 -6 5 -13 10 -16 6 -4 7 -11 4 -17 -4 -7 -2 -8 4 -4 9 5
9 13 2 27 -11 20 -20 25 -20 10z"/>
<path d="M822 470 c0 -14 2 -19 5 -12 2 6 2 18 0 25 -3 6 -5 1 -5 -13z"/>
<path d="M179 466 c-1 -3 -2 -9 -3 -13 -1 -5 -5 -14 -9 -20 -6 -9 -3 -11 10
-6 15 6 16 4 5 -9 -9 -11 -10 -18 -2 -23 6 -3 8 -11 5 -16 -3 -5 1 -6 9 -3 8
3 13 14 11 24 -2 11 1 17 8 14 7 -2 13 -20 14 -40 1 -21 9 -41 19 -48 11 -8
14 -18 9 -27 -4 -8 0 -6 11 3 14 14 16 21 6 30 -16 16 -15 33 1 20 10 -8 13
-6 14 11 2 17 0 19 -7 7 -5 -8 -10 -11 -10 -6 0 5 -6 3 -13 -3 -10 -8 -14 -7
-15 2 -3 33 -10 50 -25 59 -9 5 -17 15 -17 23 0 13 -19 32 -21 21z"/>
<path d="M914 458 c-4 -7 -3 -8 4 -4 7 4 17 -3 24 -18 6 -14 15 -26 20 -26 4
0 8 -7 8 -15 0 -8 5 -15 10 -15 16 0 11 19 -9 37 -11 9 -17 23 -13 31 3 10 1
13 -6 8 -7 -4 -12 -2 -12 3 0 15 -17 14 -26 -1z"/>
<path d="M311 453 c-1 -6 -4 -20 -7 -30 -5 -17 -5 -17 6 0 6 10 9 23 6 30 -3
9 -5 9 -5 0z"/>
<path d="M710 441 c0 -5 5 -13 10 -16 6 -3 10 -2 10 4 0 5 -4 13 -10 16 -5 3
-10 2 -10 -4z"/>
<path d="M765 441 c-3 -5 -2 -12 3 -15 5 -3 9 1 9 9 0 17 -3 19 -12 6z"/>
<path d="M1173 415 c0 -8 4 -12 9 -9 5 3 6 10 3 15 -9 13 -12 11 -12 -6z"/>
<path d="M1036 405 c-19 -14 -16 -16 17 -19 6 -1 15 -5 19 -11 5 -7 8 -6 8 1
0 5 -6 18 -12 27 -12 14 -15 14 -32 2z"/>
<path d="M449 395 c-1 -8 -3 -24 -4 -35 -1 -11 -3 -25 -4 -31 0 -5 -5 -8 -10
-4 -14 8 -25 -15 -14 -26 13 -13 55 50 45 66 -4 5 -5 18 -4 28 2 9 1 17 -2 17
-3 0 -7 -7 -7 -15z"/>
<path d="M700 399 c0 -5 5 -7 10 -4 6 3 10 8 10 11 0 2 -4 4 -10 4 -5 0 -10
-5 -10 -11z"/>
<path d="M802 390 c7 -11 16 -20 21 -20 4 0 3 9 -3 20 -6 11 -15 20 -20 20 -6
0 -5 -9 2 -20z"/>
<path d="M633 384 c3 -3 -3 -23 -15 -45 -13 -25 -22 -67 -25 -119 -6 -80 -6
-80 -26 -63 -11 10 -28 32 -39 48 -18 29 -19 29 -16 5 3 -24 64 -87 80 -83 13
5 9 -20 -8 -42 -15 -20 -16 -20 -40 8 -21 24 -24 26 -24 9 0 -11 12 -27 26
-37 21 -13 23 -19 13 -31 -7 -9 -21 -13 -31 -11 -10 3 -18 0 -18 -7 0 -11 9
-12 52 -7 3 1 12 17 18 36 6 19 15 33 20 30 4 -3 10 5 13 17 5 18 8 19 22 8
14 -12 16 -10 13 13 -2 14 -7 30 -12 34 -4 4 -7 4 -6 -2 5 -21 -1 -29 -10 -15
-6 10 -4 21 8 35 9 11 10 14 2 8 -8 -7 -17 -13 -20 -13 -8 0 -3 75 6 110 4 14
6 31 5 38 -1 7 5 15 14 18 10 4 13 13 9 26 -4 14 -2 18 5 14 7 -5 9 -1 5 8 -3
9 -11 16 -17 16 -6 0 -8 -3 -4 -6z"/>
<path d="M760 380 c-13 -8 -13 -10 0 -10 11 0 11 -3 2 -12 -7 -7 -12 -16 -12
-21 0 -5 6 -2 13 5 10 10 20 49 13 48 -1 0 -8 -5 -16 -10z"/>
<path d="M303 361 c0 -11 5 -18 9 -15 4 3 5 11 1 19 -7 21 -12 19 -10 -4z"/>
<path d="M421 364 c0 -11 3 -14 6 -6 3 7 2 16 -1 19 -3 4 -6 -2 -5 -13z"/>
<path d="M188 353 c7 -3 16 -2 19 1 4 3 -2 6 -13 5 -11 0 -14 -3 -6 -6z"/>
<path d="M885 350 c3 -5 8 -10 11 -10 2 0 4 5 4 10 0 6 -5 10 -11 10 -5 0 -7
-4 -4 -10z"/>
<path d="M1129 358 c-6 -19 -6 -39 0 -42 4 -3 8 6 9 20 1 13 0 24 -3 24 -3 0
-5 -1 -6 -2z"/>
<path d="M327 343 c-4 -3 -7 -11 -7 -17 0 -6 5 -5 12 2 6 6 9 14 7 17 -3 3 -9
2 -12 -2z"/>
<path d="M714 336 c-3 -8 -1 -24 6 -35 8 -15 8 -21 0 -21 -16 0 -44 -30 -36
-38 4 -3 11 -1 15 6 4 7 12 12 17 11 5 -1 21 3 37 9 28 12 37 31 15 33 -7 0
-4 4 7 9 15 6 16 9 4 9 -22 1 -31 -10 -18 -25 8 -9 5 -11 -11 -7 -15 4 -20 11
-17 24 3 12 1 17 -6 12 -6 -4 -8 0 -4 10 3 10 4 17 1 17 -2 0 -7 -6 -10 -14z"/>
<path d="M475 320 c-4 -11 -11 -17 -17 -14 -6 4 -8 2 -4 -4 3 -5 1 -12 -5 -14
-7 -2 -13 -17 -15 -33 -3 -27 0 -25 23 17 14 26 30 45 34 42 5 -3 9 2 9 10 0
23 -17 20 -25 -4z"/>
<path d="M1055 330 c-3 -5 -1 -10 4 -10 6 0 11 5 11 10 0 6 -2 10 -4 10 -3 0
-8 -4 -11 -10z"/>
<path d="M281 284 c0 -11 3 -14 6 -6 3 7 2 16 -1 19 -3 4 -6 -2 -5 -13z"/>
<path d="M310 246 c-6 -31 -10 -64 -8 -74 2 -9 10 14 17 52 15 82 8 101 -9 22z"/>
<path d="M685 290 c-4 -6 -16 -8 -28 -5 -19 5 -20 5 -4 -5 13 -8 22 -7 39 4
12 9 17 16 11 16 -7 0 -15 -5 -18 -10z"/>
<path d="M791 278 c-9 -14 -9 -23 -2 -29 6 -5 9 -6 6 -3 -2 4 0 15 6 26 14 27
6 32 -10 6z"/>
<path d="M1132 274 c-1 -13 0 -24 2 -24 7 0 14 40 7 44 -4 3 -8 -6 -9 -20z"/>
<path d="M880 280 c0 -5 5 -10 11 -10 6 0 7 -5 2 -12 -14 -23 -11 -35 8 -33
10 1 22 5 26 10 5 4 3 6 -2 2 -6 -3 -17 -2 -24 3 -11 6 -9 11 8 20 18 9 26 9
39 -2 15 -12 16 -11 3 5 -8 10 -19 16 -25 14 -6 -3 -19 0 -28 5 -12 5 -18 5
-18 -2z"/>
<path d="M404 266 c-6 -6 -9 -17 -6 -24 2 -8 -5 -22 -16 -33 -25 -23 -32 -24
-32 -5 0 8 -4 18 -10 21 -6 4 -9 -5 -8 -20 4 -41 46 -30 70 17 20 39 21 65 2
44z"/>
<path d="M537 251 c3 -12 9 -21 14 -21 14 0 11 16 -5 29 -12 10 -13 8 -9 -8z"/>
<path d="M0 250 c0 -6 5 -10 11 -10 5 0 8 -3 6 -7 -2 -5 7 -19 21 -33 17 -16
24 -19 20 -8 -4 9 -2 19 5 22 9 3 9 5 0 5 -7 1 -13 9 -14 19 0 14 -2 14 -9 -3
-7 -16 -9 -16 -9 -4 -1 18 -31 35 -31 19z"/>
<path d="M340 252 c0 -5 7 -15 15 -22 8 -7 15 -8 15 -2 0 5 -7 15 -15 22 -8 7
-15 8 -15 2z"/>
<path d="M453 234 c-6 -13 -7 -24 -3 -24 9 0 25 39 18 45 -2 2 -8 -7 -15 -21z"/>
<path d="M485 218 c-11 -24 -18 -47 -17 -52 2 -5 -3 -13 -10 -19 -9 -6 -8 -7
5 -3 14 5 16 1 11 -22 -13 -52 -24 -72 -39 -72 -8 0 -15 -4 -15 -9 0 -5 9 -7
20 -4 15 4 20 0 20 -16 0 -11 4 -21 10 -21 5 0 6 7 3 17 -4 11 -3 14 5 9 7 -4
12 -3 12 3 0 5 -5 11 -11 13 -9 3 -9 10 0 26 7 12 9 27 6 32 -3 6 -3 10 2 10
4 0 9 26 11 58 2 31 5 65 8 75 10 31 -2 18 -21 -25z m2 -60 c-3 -7 -5 -2 -5
12 0 14 2 19 5 13 2 -7 2 -19 0 -25z"/>
<path d="M740 244 l-25 -14 31 2 c21 1 30 6 27 15 -3 7 -6 13 -7 12 0 -1 -12
-7 -26 -15z"/>
<path d="M1236 233 c-6 -14 -5 -15 5 -6 7 7 10 15 7 18 -3 3 -9 -2 -12 -12z"/>
<path d="M281 214 c0 -11 3 -14 6 -6 3 7 2 16 -1 19 -3 4 -6 -2 -5 -13z"/>
<path d="M676 218 c3 -4 11 -5 19 -1 21 7 19 12 -4 10 -11 0 -18 -5 -15 -9z"/>
<path d="M1202 208 c-7 -7 -12 -16 -12 -21 0 -5 7 -1 16 8 9 9 14 18 12 20 -2
3 -10 -1 -16 -7z"/>
<path d="M411 173 c-19 -13 -27 -23 -19 -23 17 0 66 36 58 43 -3 2 -20 -7 -39
-20z"/>
<path d="M0 184 c0 -7 7 -18 16 -25 14 -12 14 -14 -3 -20 -16 -7 -16 -8 4 -8
32 -1 34 11 7 39 -13 13 -24 20 -24 14z"/>
<path d="M998 131 c-8 -13 -16 -17 -23 -11 -8 7 -12 5 -12 -5 0 -8 4 -15 8
-15 11 0 0 -28 -22 -61 -17 -24 -16 -39 2 -39 4 0 21 26 37 59 28 56 30 58 53
45 13 -7 33 -13 44 -14 26 0 65 -27 65 -45 0 -7 -7 -21 -16 -30 -15 -14 -13
-15 14 -13 17 1 28 6 25 11 -3 5 5 6 18 2 l24 -7 -22 17 c-25 18 -30 50 -10
59 8 4 7 5 -3 5 -30 -2 -41 1 -35 11 4 6 3 10 -2 9 -4 -1 -20 1 -34 5 -14 4
-32 8 -40 10 -8 1 -24 7 -36 14 -19 11 -24 10 -35 -7z"/>
<path d="M360 130 c-8 -5 -10 -10 -5 -10 6 0 17 5 25 10 8 5 11 10 5 10 -5 0
-17 -5 -25 -10z"/>
<path d="M291 114 c0 -11 3 -14 6 -6 3 7 2 16 -1 19 -3 4 -6 -2 -5 -13z"/>
<path d="M664 94 c3 -9 6 -33 6 -55 0 -42 15 -53 22 -16 6 29 -10 87 -23 87
-6 0 -8 -7 -5 -16z"/>
<path d="M282 75 c0 -11 4 -33 8 -50 7 -27 8 -27 8 -5 0 14 -4 36 -8 50 -6 20
-8 21 -8 5z"/>
<path d="M494 67 c3 -10 6 -21 6 -23 0 -2 10 -4 23 -3 15 0 17 2 7 6 -8 4 -21
13 -28 22 -12 14 -13 14 -8 -2z"/>
<path d="M340 40 c20 -29 40 -39 40 -22 0 10 -43 52 -54 52 -4 0 2 -13 14 -30z"/>
<path d="M601 50 c0 -8 4 -24 9 -35 5 -13 9 -14 9 -5 0 8 -4 24 -9 35 -5 13
-9 14 -9 5z"/>
<path d="M311 28 c-1 -16 4 -28 9 -28 12 0 12 8 0 35 -8 18 -9 17 -9 -7z"/>
<path d="M396 41 c-8 -12 3 -41 15 -41 5 0 9 5 9 10 0 6 -4 10 -10 10 -5 0 -7
7 -4 15 7 16 -1 21 -10 6z"/>
<path d="M1235 40 c-3 -5 -1 -10 4 -10 6 0 11 5 11 10 0 6 -2 10 -4 10 -3 0
-8 -4 -11 -10z"/>
<path d="M0 21 c0 -12 4 -12 62 -15 24 -1 34 2 28 8 -14 14 -90 19 -90 7z"/>
</g>
</svg>
