<?xml version="1.0" standalone="no"?>
<!DOCTYPE svg PUBLIC "-//W3C//DTD SVG 20010904//EN"
 "http://www.w3.org/TR/2001/REC-SVG-20010904/DTD/svg10.dtd">
<svg version="1.0" xmlns="http://www.w3.org/2000/svg"
 width="250.000000pt" height="250.000000pt" viewBox="0 0 250.000000 250.000000"
 preserveAspectRatio="xMidYMid meet">
<g transform="translate(0.000000,250.000000) scale(0.100000,-0.100000)"
fill="#000000" stroke="none">
<path d="M951 2364 c-127 -34 -261 -136 -346 -263 -90 -136 -107 -207 -107
-446 -1 -157 0 -161 31 -235 45 -110 65 -138 116 -162 33 -16 48 -30 56 -56 6
-18 9 -35 7 -37 -1 -1 -55 -20 -118 -40 -192 -62 -381 -205 -410 -308 -11 -41
-16 -48 -33 -43 -36 9 -79 -6 -113 -41 -35 -35 -44 -55 -21 -51 7 2 11 -6 9
-22 -2 -20 -1 -22 7 -10 6 8 11 23 11 34 0 13 5 16 16 12 11 -4 15 -2 11 7 -3
8 -1 20 4 28 7 11 9 11 9 -3 0 -22 13 -23 30 -3 8 9 21 13 36 9 20 -5 27 2 58
63 33 65 35 67 44 43 l10 -25 8 30 9 30 6 -40 6 -40 2 43 c0 24 -4 52 -9 62
-8 16 -7 18 4 14 8 -3 24 4 35 15 12 12 23 21 26 22 26 5 45 13 45 19 0 4 11
19 25 34 14 15 25 22 25 15 0 -7 3 -9 7 -6 3 4 13 1 22 -5 13 -10 14 -10 3 2
-14 16 -17 44 -3 36 5 -3 14 1 21 9 7 9 29 15 51 15 21 0 41 5 44 10 10 16 58
13 52 -3 -3 -8 -1 -20 5 -28 8 -11 9 -10 4 4 -3 9 0 17 6 17 7 0 7 5 -1 14
-10 12 -8 17 7 25 11 6 22 7 26 4 3 -4 15 3 26 15 18 19 43 28 53 20 5 -5 34
26 34 37 0 5 3 20 7 33 6 16 3 22 -8 22 -9 0 -18 -10 -21 -23 -4 -13 -14 -28
-24 -34 -15 -9 -17 -7 -17 23 0 31 3 34 36 41 19 3 29 8 22 10 -6 3 -10 8 -8
12 6 10 -50 8 -60 -1 -4 -4 -14 -2 -22 5 -13 10 -15 9 -8 -3 4 -8 -1 -5 -10 8
-9 12 -22 22 -29 22 -6 0 -23 12 -36 28 -32 35 -46 57 -31 48 7 -4 5 8 -4 29
-19 47 -8 65 18 28 23 -32 23 -30 -27 96 -20 51 -34 100 -32 110 4 13 5 13 6
-2 1 -13 6 -17 19 -12 16 4 25 -10 57 -90 21 -53 39 -94 41 -92 2 2 -10 44
-26 93 -17 49 -29 98 -28 108 4 25 28 33 28 9 0 -10 16 -49 35 -88 32 -65 35
-67 35 -37 0 18 -4 31 -8 28 -5 -3 -9 0 -9 7 0 7 -4 21 -8 32 -7 16 -4 15 14
-5 21 -24 22 -24 11 -2 -6 13 -18 26 -25 29 -12 4 -45 56 -45 70 0 12 19 -1
29 -19 9 -17 10 -18 5 -3 -4 11 -8 31 -11 45 -3 22 -2 22 10 -5 7 -16 16 -25
19 -20 3 6 -2 28 -13 49 -10 22 -19 47 -19 56 0 24 49 212 60 232 13 23 13 38
0 38 -5 0 -10 -8 -10 -17 0 -16 -2 -16 -11 -3 -8 12 -9 11 -7 -5 2 -13 -2 -19
-11 -17 -12 3 -12 0 -2 -12 11 -13 10 -20 -3 -41 -10 -15 -12 -25 -6 -25 7 0
6 -5 -2 -14 -8 -7 -13 -30 -13 -50 2 -33 -4 -40 -30 -37 -5 1 -2 -5 7 -12 13
-10 15 -16 6 -25 -8 -8 -8 -12 -1 -12 6 0 11 -11 11 -25 0 -14 -4 -25 -8 -25
-11 0 -40 75 -40 102 0 12 -3 18 -7 15 -9 -9 -32 26 -29 44 13 65 59 173 69
163 5 -6 18 27 15 36 -2 5 5 14 54 71 9 11 20 19 25 17 4 -2 12 7 18 20 5 12
15 22 22 22 6 0 20 11 31 25 11 14 25 25 31 25 6 0 11 3 11 8 0 11 52 32 63
25 6 -3 7 -1 4 4 -21 33 228 59 311 32 48 -15 66 -32 21 -19 -111 32 -294 -11
-403 -93 -86 -66 -173 -171 -221 -267 l-17 -35 24 25 c14 14 28 37 31 50 4 14
15 36 25 49 18 22 20 23 50 7 l31 -16 -10 32 c-5 17 -6 34 -4 37 3 2 5 -1 5
-7 0 -7 5 -12 11 -12 6 0 9 7 5 15 -3 9 0 15 9 15 8 0 15 4 15 8 0 16 46 65
83 89 36 22 40 23 56 9 10 -9 22 -16 27 -16 4 0 -2 7 -15 16 -29 20 -21 28 54
49 60 17 146 15 198 -4 11 -4 36 -3 54 2 30 9 36 7 80 -32 26 -23 59 -53 73
-67 14 -13 33 -24 42 -24 22 0 33 -19 20 -32 -7 -7 1 -25 24 -57 43 -58 84
-106 84 -97 0 4 9 2 21 -5 14 -7 20 -18 17 -33 -3 -12 1 -27 8 -34 7 -6 22
-37 34 -69 18 -47 21 -69 15 -118 -7 -68 -19 -95 -41 -95 -8 0 -13 -4 -9 -9 3
-5 0 -13 -6 -17 -8 -4 -9 -3 -5 4 4 7 1 12 -8 12 -12 0 -16 11 -17 40 -2 53
-3 57 -11 66 -5 4 -8 37 -8 74 0 39 -5 71 -12 79 -11 10 -9 15 7 27 19 14 19
15 -3 36 -13 13 -22 17 -22 10 0 -7 -4 -11 -8 -8 -5 3 -9 -2 -9 -10 0 -8 5
-13 11 -11 7 3 12 -25 14 -82 3 -100 0 -105 -82 -142 -95 -42 -139 -26 -186
68 l-23 47 38 33 c32 28 142 80 150 71 2 -2 19 -39 38 -83 20 -44 39 -79 43
-78 12 4 16 51 4 58 -5 3 -10 23 -10 44 0 41 -14 61 -43 61 -10 0 -16 4 -13 9
10 16 -74 -9 -135 -40 -33 -16 -62 -36 -66 -44 -3 -8 -9 -13 -13 -10 -16 10
-40 -7 -40 -28 0 -16 -3 -18 -12 -9 -18 18 -86 13 -143 -9 l-50 -19 43 5 c24
3 46 6 50 6 40 6 62 -3 68 -28 5 -17 3 -28 -4 -31 -7 -2 -12 -12 -12 -23 0
-12 5 -16 15 -13 12 5 14 0 9 -27 -4 -19 -11 -42 -16 -52 -13 -26 -93 -58
-158 -64 -52 -5 -56 -4 -72 24 -24 42 -86 105 -97 99 -5 -3 -7 3 -4 14 6 24
-12 27 -21 4 -13 -35 -7 -50 22 -48 22 1 32 -7 51 -40 38 -66 51 -76 91 -76
21 0 69 10 108 23 l71 23 3 -20 c3 -22 48 -37 48 -16 0 7 18 10 50 9 43 -2 53
1 67 20 10 15 18 19 22 12 5 -7 14 -6 29 5 22 15 21 41 -1 27 -7 -4 -20 -6
-29 -5 -9 2 -22 -6 -27 -17 -9 -15 -19 -19 -46 -15 -22 3 -45 -2 -60 -12 -37
-24 -65 7 -31 35 17 14 27 59 29 131 3 75 22 77 75 6 23 -30 42 -58 42 -62 0
-3 -18 10 -40 30 -22 20 -42 36 -45 36 -13 0 11 -29 49 -57 43 -33 63 -42 51
-23 -3 6 1 7 9 4 22 -8 147 31 179 56 l26 21 8 -28 c3 -15 7 -66 7 -113 1 -77
-2 -92 -31 -150 -54 -108 -95 -163 -138 -185 -59 -29 -223 -28 -322 3 -115 36
-128 53 -223 285 -18 42 -36 77 -41 77 -12 0 -5 -64 9 -100 9 -22 11 -22 12
-5 l1 20 8 -20 c5 -11 6 -26 4 -32 -3 -7 0 -13 6 -13 5 0 15 -19 22 -42 6 -24
20 -58 32 -77 11 -19 16 -31 10 -28 -7 4 -15 2 -19 -4 -4 -7 -3 -9 4 -5 6 3
26 -7 45 -23 41 -36 153 -75 265 -92 75 -11 88 -11 135 6 29 10 58 22 65 28
24 19 14 -14 -45 -152 -4 -9 -2 -12 5 -7 15 9 14 5 -1 -63 -10 -40 -19 -56
-35 -62 -13 -5 -22 -4 -22 1 0 6 4 10 9 10 10 0 45 89 37 97 -3 3 -17 -22 -32
-56 -22 -51 -31 -61 -53 -63 -48 -2 -77 -1 -126 6 -44 7 -47 6 -32 -8 10 -10
33 -16 61 -16 25 0 47 -4 51 -9 3 -6 21 -5 44 4 22 7 42 11 45 8 3 -4 6 -1 6
5 0 7 5 12 11 12 11 0 9 -20 -5 -80 -4 -14 5 4 20 40 23 59 63 192 68 230 1 8
7 27 13 41 6 14 11 32 11 40 -2 33 3 50 12 44 6 -3 10 1 10 9 0 8 8 21 19 28
10 7 21 23 25 36 4 12 12 20 17 17 5 -4 9 2 9 12 0 11 5 24 11 30 6 6 12 17
13 24 10 52 19 70 27 57 5 -7 9 -26 10 -43 0 -26 2 -27 9 -10 9 21 10 19 16
-45 2 -19 5 -46 8 -60 2 -14 5 -34 5 -46 1 -11 9 -29 19 -40 10 -11 23 -44 28
-74 5 -31 14 -56 22 -56 6 -1 15 -3 20 -4 4 -1 9 -2 12 -2 3 0 32 -13 65 -29
42 -20 51 -27 30 -23 -30 4 -30 4 -5 -8 96 -47 177 -82 187 -81 7 0 11 -2 8
-6 -2 -4 10 -16 28 -26 l32 -18 -19 22 c-17 18 -17 21 -3 15 9 -3 17 -9 17
-14 0 -4 9 -17 20 -30 11 -13 20 -20 20 -16 0 4 10 1 23 -6 12 -7 26 -11 30
-10 5 1 6 -2 2 -8 -3 -5 -1 -10 5 -10 6 0 22 -11 35 -25 14 -13 25 -20 25 -15
0 6 5 10 10 10 6 0 10 -6 10 -12 0 -7 20 -30 45 -52 25 -21 42 -42 39 -47 -3
-5 0 -9 6 -9 6 0 15 -11 20 -25 5 -14 15 -25 21 -25 7 0 18 -8 26 -17 8 -10
12 -13 9 -6 -4 6 -2 14 3 18 13 7 41 -47 41 -79 0 -14 5 -28 10 -31 6 -3 10 0
10 8 0 8 7 18 15 21 14 5 13 11 -4 45 -21 40 -59 73 -98 85 -11 4 -24 18 -27
31 -8 33 -59 89 -104 116 -20 12 -46 30 -58 41 -43 38 -237 147 -352 197
l-120 53 -25 62 c-14 33 -32 93 -41 131 -10 39 -24 95 -32 125 -7 31 -15 68
-16 83 -1 15 -6 27 -10 27 -21 0 -4 17 32 32 46 19 60 46 81 145 11 55 11 69
-4 116 -9 30 -27 63 -38 73 -12 10 -43 65 -70 122 -28 57 -57 106 -65 109 -8
3 -22 23 -31 44 -28 72 -144 154 -258 184 -74 19 -222 19 -294 -1z m734 -564
c4 -19 4 -32 0 -28 -4 3 -10 21 -14 40 -5 18 -11 44 -14 58 -5 20 -4 19 7 -5
7 -16 17 -46 21 -65z m-1115 20 c0 -11 7 -38 16 -61 17 -40 17 -41 -9 -67 -34
-33 -41 -25 -27 28 9 32 9 49 0 71 -13 31 -7 64 10 54 5 -3 10 -15 10 -25z
m-17 -370 l6 -35 -14 31 c-8 17 -17 44 -20 60 l-6 29 14 -25 c8 -14 17 -41 20
-60z m10 53 c-4 -11 -2 -14 5 -9 8 5 10 1 5 -10 -5 -13 -3 -15 8 -9 12 7 11 6
-1 -9 -11 -14 -15 -15 -18 -5 -2 8 -7 26 -12 41 -7 21 -6 26 5 22 8 -3 11 -13
8 -21z"/>
<path d="M1130 2254 c0 -5 12 -22 26 -39 l26 -30 -23 35 c-29 45 -29 45 -29
34z"/>
<path d="M1240 2252 c0 -15 38 -44 49 -37 6 3 11 2 11 -4 0 -5 -6 -12 -12 -14
-7 -3 -3 -6 10 -6 13 -1 20 -5 17 -11 -3 -6 4 -10 17 -10 30 0 52 -15 44 -29
-4 -7 -1 -9 7 -5 8 3 18 1 22 -5 3 -6 11 -11 18 -11 6 0 -9 20 -33 45 -28 28
-50 43 -59 40 -9 -3 -12 -3 -8 1 4 4 -9 18 -28 31 -35 24 -55 29 -55 15z"/>
<path d="M1050 2240 c0 -5 7 -7 15 -4 8 4 15 1 15 -5 0 -19 3 -25 22 -45 10
-11 20 -17 23 -14 3 3 0 12 -8 20 -8 7 -19 23 -26 36 -12 22 -41 31 -41 12z"/>
<path d="M1207 2186 c10 -11 20 -23 22 -26 2 -3 1 3 -2 13 -4 9 -2 17 3 17 9
0 14 -14 11 -32 0 -5 6 -8 14 -8 26 0 -11 47 -41 53 -24 4 -24 4 -7 -17z"/>
<path d="M930 2192 c0 -5 9 -12 19 -15 10 -2 24 -15 31 -27 11 -21 10 -22 -9
-17 -11 3 -21 1 -21 -5 0 -6 11 -8 24 -6 19 4 26 -1 37 -31 8 -19 13 -39 11
-44 -1 -5 2 -6 7 -3 13 8 21 -19 10 -33 -5 -6 -2 -5 7 3 15 13 12 22 -33 98
-28 46 -58 84 -67 86 -9 2 -16 -1 -16 -6z"/>
<path d="M1127 2140 c3 -11 10 -17 16 -13 6 4 8 0 4 -10 -6 -17 5 -31 16 -20
8 7 -21 63 -32 63 -5 0 -7 -9 -4 -20z"/>
<path d="M1334 2145 c8 -8 17 -15 20 -15 3 0 6 7 6 15 0 9 -9 15 -21 15 -18 0
-19 -2 -5 -15z"/>
<path d="M880 2145 c0 -5 18 -37 40 -70 52 -78 52 -65 0 17 -22 35 -40 59 -40
53z"/>
<path d="M1059 2135 c17 -33 31 -51 31 -40 0 6 -10 21 -21 35 -13 17 -17 18
-10 5z"/>
<path d="M815 2101 c3 -5 1 -12 -5 -16 -5 -3 -10 -11 -10 -17 0 -6 6 -6 16 2
12 11 18 10 32 -3 13 -14 14 -17 2 -17 -8 -1 -3 -7 12 -15 15 -8 30 -25 33
-37 4 -11 18 -31 31 -43 13 -12 21 -25 17 -29 -4 -4 0 -4 9 -1 13 5 12 11 -12
35 -15 16 -45 56 -65 89 -21 34 -44 61 -52 61 -8 0 -12 -4 -8 -9z"/>
<path d="M1240 2081 c0 -5 6 -12 13 -14 8 -4 7 -6 -3 -6 -8 -1 -26 -10 -40
-20 -18 -15 -29 -17 -43 -9 -15 7 -24 5 -42 -12 -14 -14 -30 -20 -40 -16 -13
5 -15 1 -9 -17 3 -12 3 -19 -1 -15 -4 4 -17 2 -29 -4 -11 -7 -24 -11 -28 -10
-5 1 -8 -4 -8 -12 0 -7 -15 -21 -32 -30 -27 -12 -29 -16 -12 -16 12 0 36 15
54 33 28 28 31 29 25 10 -3 -13 -4 -23 -2 -23 8 0 54 47 60 61 4 9 6 7 6 -6 1
-12 -5 -27 -11 -34 -11 -10 -10 -11 5 -6 9 4 17 15 17 24 0 25 11 33 27 20 9
-9 13 -8 13 0 0 6 -4 11 -10 11 -5 0 -10 6 -10 13 0 8 7 14 15 14 8 0 15 -5
14 -11 -3 -24 2 -37 11 -31 6 3 7 -1 4 -9 -3 -9 -10 -14 -15 -11 -9 6 -31 -29
-24 -39 3 -3 2 -4 -1 -1 -4 2 -25 -11 -47 -30 -22 -19 -49 -35 -59 -35 -11 0
-17 -4 -14 -9 4 -5 -4 -7 -16 -3 -13 3 -19 1 -15 -5 4 -6 1 -10 -6 -9 -6 0
-13 -3 -14 -8 -2 -8 -31 -26 -66 -39 -17 -6 -16 -4 2 19 41 52 20 42 -39 -18
-33 -33 -60 -64 -60 -70 0 -9 36 7 60 27 8 8 57 32 109 55 132 58 183 99 223
182 26 52 38 67 55 67 12 1 25 -3 28 -9 3 -5 17 -10 31 -10 28 0 74 -21 92
-42 9 -11 3 -13 -28 -10 -51 5 -130 -29 -130 -57 0 -16 4 -19 18 -13 9 5 40
18 67 31 40 18 60 21 100 16 l50 -6 -22 20 c-12 12 -27 21 -33 21 -6 0 -10 8
-8 18 2 10 11 16 23 14 19 -2 19 -2 2 8 -9 6 -15 17 -11 23 3 7 -1 4 -10 -7
-19 -23 -43 -12 -25 12 11 15 11 15 -6 0 -17 -16 -19 -16 -32 0 -8 9 -12 11
-8 5 3 -7 1 -13 -5 -13 -8 0 -10 9 -5 27 l7 28 -21 -24 c-19 -22 -27 -17 -22
13 1 5 -5 3 -14 -4 -12 -10 -19 -10 -27 -2 -14 14 -28 16 -28 3z"/>
<path d="M810 2029 c0 -5 4 -9 8 -9 5 0 14 -10 21 -22 6 -13 9 -15 7 -5 -8 27
12 20 28 -10 8 -16 15 -24 16 -20 0 5 -4 17 -10 27 -11 21 -70 54 -70 39z"/>
<path d="M760 2014 c0 -16 27 -37 39 -30 5 4 14 -2 20 -11 6 -10 11 -13 11 -7
0 7 -9 22 -21 35 -15 17 -19 19 -15 7 3 -10 1 -18 -4 -18 -5 0 -14 8 -19 18
-6 9 -11 12 -11 6z"/>
<path d="M740 1980 c0 -14 43 -80 53 -80 11 0 9 8 -15 50 -22 39 -38 51 -38
30z"/>
<path d="M902 1928 c-7 -9 -4 -19 11 -33 l20 -20 -12 23 c-7 12 -9 27 -6 32 9
14 -1 12 -13 -2z"/>
<path d="M803 1879 c9 -5 17 -15 17 -20 0 -6 -5 -7 -12 -3 -7 4 -8 3 -4 -5 6
-8 12 -9 20 -2 7 6 17 7 22 3 5 -4 0 3 -10 16 -11 12 -26 22 -35 22 -14 -1
-13 -2 2 -11z"/>
<path d="M954 1882 c-8 -5 -7 -11 4 -22 14 -13 15 -12 9 2 -3 9 -1 19 6 22 7
2 8 5 2 5 -5 0 -15 -3 -21 -7z"/>
<path d="M690 1874 c0 -13 23 -89 30 -96 13 -16 9 45 -5 73 -15 27 -25 37 -25
23z"/>
<path d="M1338 1848 c-36 -21 -61 -53 -34 -42 8 3 17 1 20 -4 3 -6 15 -8 26
-5 19 5 24 14 21 41 -3 18 20 15 34 -5 7 -9 17 -13 24 -9 9 6 8 13 -5 27 -22
24 -40 24 -86 -3z"/>
<path d="M780 1849 c0 -8 10 -20 23 -28 l22 -14 -20 24 c-11 13 -21 26 -22 28
-2 2 -3 -2 -3 -10z"/>
<path d="M1387 1794 c-3 -3 -3 -12 0 -20 4 -11 9 -12 19 -3 8 6 11 15 8 20 -6
10 -18 12 -27 3z"/>
<path d="M1315 1761 c-8 -14 30 -32 50 -25 14 6 14 8 -2 20 -21 16 -40 18 -48
5z"/>
<path d="M1050 1741 c0 -5 7 -12 16 -15 8 -3 12 -10 9 -16 -3 -5 1 -10 10 -10
24 0 14 31 -12 41 -13 5 -23 4 -23 0z"/>
<path d="M897 1722 c-25 -15 -45 -48 -35 -58 2 -2 22 14 43 36 41 42 38 51 -8
22z"/>
<path d="M1005 1729 c-4 -6 -13 -8 -21 -5 -17 7 -64 -42 -57 -60 9 -25 39 -1
34 29 -2 11 13 9 26 -4 18 -18 53 -1 53 27 0 25 -23 33 -35 13z"/>
<path d="M753 1673 c-4 -10 -11 -21 -17 -25 -7 -5 -5 -8 4 -8 8 0 20 11 27 25
6 14 7 25 2 25 -5 0 -13 -8 -16 -17z"/>
<path d="M587 1545 c9 -19 20 -35 25 -35 11 0 10 7 -7 40 -22 42 -38 37 -18
-5z"/>
<path d="M1410 1500 c0 -5 -15 -10 -33 -10 -17 0 -53 -11 -78 -24 -25 -14 -55
-25 -65 -25 -10 1 -37 -6 -59 -15 -22 -8 -48 -15 -57 -16 -10 0 -18 -7 -18
-15 0 -18 12 -19 27 -4 8 8 25 8 63 -1 90 -21 193 8 213 60 6 16 20 31 31 34
18 5 19 8 6 16 -19 13 -30 13 -30 0z m-20 -47 c0 -17 -81 -53 -126 -57 -48 -4
-49 -4 -25 12 48 33 151 63 151 45z"/>
<path d="M970 1165 c0 -8 5 -15 10 -15 6 0 10 7 10 15 0 8 -4 15 -10 15 -5 0
-10 -7 -10 -15z"/>
<path d="M1010 1073 c45 -64 56 -106 15 -59 -30 35 -34 25 -5 -11 13 -17 20
-41 20 -72 1 -43 2 -45 15 -27 32 43 11 150 -38 196 -48 45 -51 36 -7 -27z"/>
<path d="M427 928 c11 -13 34 -39 53 -58 25 -26 28 -28 11 -6 -11 16 -21 35
-21 42 0 13 -37 44 -54 44 -5 0 0 -10 11 -22z"/>
<path d="M377 904 c-8 -8 3 -35 21 -56 8 -10 11 -18 7 -18 -4 0 0 -9 10 -20
10 -11 22 -17 26 -14 8 5 13 -10 10 -28 0 -5 4 -8 10 -8 5 0 8 -4 5 -8 -3 -5
6 -16 20 -26 13 -11 24 -27 24 -37 0 -11 5 -19 10 -19 6 0 10 -7 10 -15 0 -9
7 -18 15 -21 8 -4 15 -14 15 -24 0 -11 5 -22 11 -26 16 -9 1 34 -22 67 -10 14
-16 28 -14 31 3 2 -6 15 -20 28 -14 13 -25 28 -25 33 0 5 -20 34 -45 66 -25
31 -45 65 -45 74 0 17 -14 30 -23 21z"/>
<path d="M1004 828 c0 -29 6 -50 13 -53 7 -2 13 -17 13 -32 0 -15 7 -46 15
-68 l16 -40 -6 50 c-7 61 -27 148 -36 155 -3 3 -8 12 -11 20 -3 8 -5 -6 -4
-32z"/>
<path d="M520 820 c0 -5 5 -12 10 -15 6 -4 8 -11 5 -16 -3 -5 1 -6 9 -3 20 8
20 6 -4 27 -11 9 -20 13 -20 7z"/>
<path d="M1820 820 c8 -5 12 -12 8 -15 -3 -3 5 -18 19 -33 14 -15 32 -42 39
-59 8 -18 19 -33 24 -33 6 0 3 15 -6 33 -29 55 -74 117 -87 117 -7 0 -6 -4 3
-10z"/>
<path d="M545 700 c10 -11 19 -20 21 -20 1 0 0 9 -3 20 -3 11 -12 20 -21 20
-13 0 -12 -3 3 -20z"/>
<path d="M67 673 c-2 -5 2 -26 9 -48 13 -39 14 -39 8 -5 -3 19 -6 41 -7 48 0
14 -4 15 -10 5z"/>
<path d="M1222 632 c-12 -27 -24 -66 -28 -88 -10 -64 -16 -180 -9 -172 4 4 7
25 7 48 0 22 2 39 6 36 4 -2 7 19 8 46 1 28 5 53 10 57 5 3 11 17 12 31 2 14
10 40 17 58 8 17 10 32 6 32 -5 0 -18 -22 -29 -48z"/>
<path d="M226 645 c4 -16 10 -37 15 -45 7 -12 8 -11 8 5 0 11 -6 31 -14 45
l-15 25 6 -30z"/>
<path d="M271 654 c-1 -12 8 -32 19 -45 l21 -24 -14 30 c-8 17 -17 37 -20 45
-4 10 -6 8 -6 -6z"/>
<path d="M162 620 c0 -19 2 -27 5 -17 2 9 2 25 0 35 -3 9 -5 1 -5 -18z"/>
<path d="M37 624 c-4 -4 -7 -17 -7 -28 1 -19 1 -20 11 -3 11 19 8 43 -4 31z"/>
<path d="M1446 604 c-3 -9 -4 -19 -1 -22 3 -3 5 0 5 6 0 6 6 9 14 6 8 -3 17 0
22 7 5 8 3 10 -6 4 -7 -4 -15 -2 -20 5 -5 8 -9 7 -14 -6z"/>
<path d="M1451 563 c-50 -21 -61 -35 -41 -48 6 -3 10 1 10 9 0 8 5 18 12 22 6
4 8 3 4 -4 -3 -6 -2 -14 4 -17 6 -4 9 -1 8 7 -2 8 7 13 24 13 21 -1 24 2 16
12 -8 10 -5 13 11 13 14 0 20 -4 15 -12 -4 -7 -3 -8 5 -4 6 4 9 11 6 16 -3 4
1 10 7 13 7 3 3 4 -9 4 -12 -1 -44 -11 -72 -24z"/>
<path d="M1365 550 c5 -8 8 -24 6 -35 -2 -11 1 -16 5 -12 14 14 12 36 -4 49
-13 11 -14 11 -7 -2z"/>
<path d="M405 459 c6 -9 2 -11 -12 -7 -31 8 -48 -20 -48 -77 1 -70 -10 -85
-64 -85 -59 0 -111 -32 -111 -68 0 -15 7 -36 15 -46 18 -24 19 -40 3 -30 -8 4
-10 3 -5 -2 5 -5 14 -9 20 -9 7 -1 11 -6 10 -13 -2 -7 1 -12 6 -12 8 0 26 -47
23 -61 -1 -4 8 -5 19 -2 15 4 22 0 26 -16 3 -11 9 -19 13 -16 5 3 11 1 15 -5
3 -5 18 -10 32 -10 l27 0 -29 30 c-16 16 -35 30 -42 30 -8 0 -17 8 -20 18 -4
9 -24 48 -46 85 -21 38 -37 70 -35 71 25 16 56 21 79 13 21 -8 33 -6 63 12 41
26 51 53 43 122 -5 37 -3 49 7 49 32 0 38 -26 25 -111 -19 -129 2 -302 38
-316 24 -9 25 4 8 74 -12 50 -15 92 -11 158 12 181 8 202 -35 226 -17 9 -20 8
-14 -2z"/>
<path d="M1034 432 c4 -11 2 -23 -4 -27 -14 -9 6 -45 25 -45 8 0 15 -6 15 -13
0 -8 18 -30 40 -51 22 -20 40 -34 40 -29 0 4 6 -2 14 -13 8 -10 17 -16 21 -13
6 7 -10 25 -49 56 -13 10 -30 32 -39 49 -9 17 -23 36 -31 43 -9 8 -16 22 -16
32 0 10 -5 21 -11 25 -7 4 -9 0 -5 -14z"/>
<path d="M979 374 c-1 -10 -1 -26 0 -36 1 -9 -5 -33 -14 -53 -18 -44 -18 -45
-5 -45 6 0 10 10 11 23 1 17 3 15 10 -10 5 -18 11 -33 12 -33 5 0 -2 162 -7
168 -3 3 -7 -3 -7 -14z"/>
<path d="M1193 283 c15 -30 12 -45 -20 -111 l-20 -43 -34 28 c-19 15 -40 36
-47 45 -17 23 -32 23 -32 -1 0 -11 23 -40 51 -65 44 -39 49 -48 39 -65 -6 -11
-19 -25 -31 -31 -11 -6 -17 -15 -14 -20 4 -6 16 -3 30 6 22 14 32 32 40 68 5
26 25 65 35 71 9 5 11 -7 9 -44 -2 -28 -2 -51 1 -51 4 0 12 -17 20 -37 19 -54
25 -21 6 36 -20 63 -20 149 2 147 8 0 17 5 20 13 2 8 1 11 -4 8 -5 -3 -18 12
-28 34 -11 21 -23 39 -28 39 -5 0 -2 -12 5 -27z"/>
<path d="M2007 248 c-13 -13 -36 -52 -52 -87 -15 -35 -38 -79 -51 -99 -13 -19
-24 -41 -24 -48 0 -25 29 -15 44 14 8 16 21 34 29 41 13 10 36 59 66 143 l10
27 43 -24 c24 -14 57 -25 73 -25 54 0 155 -63 155 -95 0 -24 -28 -73 -47 -84
-15 -9 -13 -10 13 -11 31 0 60 21 47 33 -3 4 -1 7 5 7 7 0 11 3 10 8 -1 4 2
17 6 30 6 17 1 33 -18 63 -25 36 -45 54 -31 27 4 -7 1 -6 -7 3 -19 24 -93 59
-123 59 -14 0 -38 6 -53 14 -54 27 -69 28 -95 4z"/>
<path d="M1267 224 c-2 -3 -2 -16 1 -29 5 -29 22 -34 22 -6 0 11 6 21 12 23 7
3 3 7 -9 10 -12 3 -24 4 -26 2z"/>
<path d="M950 191 c0 -16 -4 -33 -10 -36 -5 -3 -10 -15 -10 -25 0 -10 -4 -20
-8 -22 -4 -1 -6 -27 -4 -57 3 -36 7 -49 13 -40 6 10 9 10 9 2 0 -7 7 -13 17
-13 15 0 15 1 0 18 -20 22 -24 63 -5 44 14 -14 28 -16 28 -3 0 5 -9 13 -20 16
-24 7 -27 51 -7 79 13 17 15 16 29 -15 9 -19 18 -41 21 -49 3 -8 6 -1 6 15 0
17 -8 41 -19 55 -11 14 -20 30 -20 37 0 28 -20 22 -20 -6z"/>
<path d="M1331 183 c-1 -23 4 -45 10 -48 18 -12 19 0 5 46 l-14 44 -1 -42z"/>
<path d="M630 83 c-6 -75 -3 -88 15 -73 10 8 12 17 6 24 -5 6 -11 27 -14 46
l-4 35 -3 -32z"/>
<path d="M1341 53 l1 -58 8 47 c5 26 11 52 15 57 3 6 -1 11 -9 11 -13 0 -16
-12 -15 -57z"/>
<path d="M0 37 c0 -7 20 -17 45 -23 47 -11 55 -6 29 20 -19 19 -74 21 -74 3z"/>
</g>
</svg>
